<svg width="360" height="46" viewBox="0 0 360 46" fill="none" xmlns="http://www.w3.org/2000/svg">
<path d="M50.2386 42.4002H64.1503L53.0065 3.69683H45.593V26.861L50.2386 42.4002ZM68.5165 45.6865H47.7907L42.3066 27.3419V0.410469H55.4801L68.5165 45.6865Z" fill="#E84925"/>
<path d="M77.5008 42.4002H84.0949L84.0967 18.6413L79.4619 3.69683H66.3564L77.5008 42.4002ZM87.3807 45.6865H75.0272L61.9902 0.410469H81.8836L87.3831 18.1431L87.3807 45.6865Z" fill="#E84925"/>
<path d="M3.28636 12.3645V24.5071L32.4745 16.8087V4.66615L3.28636 12.3645ZM0 28.7725V9.83256L35.7608 0.400146V19.3406L0 28.7725Z" fill="#E84925"/>
<path d="M35.7757 45.71L0 36.2579V19.4513H3.28636V33.7271L32.4893 41.4428V29.3002L14.3324 24.5033L15.1721 21.326L35.7757 26.7695V45.71Z" fill="#E84925"/>
<path d="M103.244 25.9796H106.23V37.2736C106.23 38.9504 106.617 40.2101 107.392 41.0527C108.167 41.8953 109.325 42.3166 110.866 42.3166C112.399 42.3166 113.553 41.8953 114.328 41.0527C115.103 40.2101 115.49 38.9504 115.49 37.2736V25.9796H118.514V37.5525C118.514 40.0683 117.879 41.9508 116.608 43.1998C115.338 44.4487 113.424 45.0732 110.866 45.0732C108.309 45.0732 106.399 44.4511 105.137 43.2057C103.875 41.9609 103.244 40.0767 103.244 37.5525V25.9796Z" fill="white"/>
<path d="M122.453 44.5811V32.538H125.045V34.5069C125.595 33.6768 126.243 33.0714 126.988 32.6906C127.733 32.3092 128.64 32.1185 129.707 32.1185C130.604 32.1185 131.369 32.2603 132 32.5446C132.631 32.8282 133.124 33.2495 133.48 33.8085C133.692 34.1386 133.844 34.5241 133.937 34.9639C134.03 35.4049 134.077 36.1754 134.077 37.2766V44.5811H131.295V38.3945C131.295 36.8106 131.103 35.7582 130.717 35.2374C130.331 34.7166 129.647 34.4562 128.665 34.4562C128.022 34.4562 127.448 34.5748 126.944 34.812C126.44 35.0491 126.044 35.3834 125.756 35.8154C125.553 36.1033 125.411 36.4739 125.331 36.9268C125.25 37.3803 125.21 38.1019 125.21 39.0929V44.5811H122.453Z" fill="white"/>
<path d="M137.874 32.538H140.631V44.5811H137.874V32.538ZM137.506 27.3299C137.506 26.8639 137.677 26.4617 138.021 26.1226C138.363 25.7842 138.772 25.6143 139.246 25.6143C139.737 25.6143 140.146 25.7782 140.472 26.1036C140.798 26.4301 140.961 26.8389 140.961 27.3299C140.961 27.8209 140.796 28.2339 140.466 28.5682C140.136 28.9031 139.729 29.0699 139.246 29.0699C138.772 29.0699 138.363 28.8983 138.021 28.5557C137.677 28.2124 137.506 27.8042 137.506 27.3299Z" fill="white"/>
<path d="M148.8 45.3037L142.486 32.5361H145.497L148.126 38.5963C148.211 38.7822 148.312 39.0617 148.432 39.4342C148.55 39.8072 148.673 40.2517 148.8 40.7684C148.884 40.4043 148.984 40.042 149.098 39.682C149.213 39.3221 149.35 38.9598 149.511 38.5963L152.128 32.5361H155.126L148.8 45.3037Z" fill="white"/>
<path d="M165.594 37.1079C165.484 36.2439 165.154 35.5854 164.604 35.1325C164.053 34.6797 163.299 34.4526 162.342 34.4526C161.436 34.4526 160.708 34.6731 160.158 35.1135C159.607 35.5538 159.221 36.2188 159.002 37.1079H165.594ZM168.453 38.9629H158.823C158.891 40.0892 159.226 40.9681 159.827 41.5986C160.428 42.2296 161.228 42.5449 162.228 42.5449C163.117 42.5449 163.858 42.3589 164.451 41.9859C165.044 41.6135 165.561 41.0122 166.001 40.1821L168.326 41.4782C167.648 42.6891 166.81 43.5913 165.81 44.1842C164.811 44.7765 163.638 45.0732 162.291 45.0732C160.361 45.0732 158.823 44.4845 157.68 43.3076C156.537 42.1301 155.965 40.5593 155.965 38.5947C155.965 36.7057 156.556 35.1534 157.737 33.9384C158.919 32.7233 160.437 32.1149 162.291 32.1149C164.231 32.1149 165.742 32.6703 166.827 33.7793C167.911 34.8894 168.453 36.4429 168.453 38.4421V38.9629Z" fill="white"/>
<path d="M174.081 34.4562C174.377 33.6601 174.769 33.0714 175.256 32.6906C175.743 32.3092 176.346 32.1185 177.066 32.1185C177.455 32.1185 177.839 32.1656 178.216 32.2586C178.593 32.3521 178.963 32.4874 179.328 32.665L178.337 35.0026C178.1 34.8334 177.843 34.7083 177.568 34.6278C177.293 34.5474 176.986 34.5069 176.647 34.5069C175.732 34.5069 175.076 34.8739 174.678 35.6057C174.28 36.3386 174.081 37.5686 174.081 39.2967V44.5811H171.324V32.5124H174.081V34.4562Z" fill="white"/>
<path d="M179.518 42.3929L181.804 41.1481C181.973 41.7493 182.287 42.207 182.744 42.5198C183.201 42.8333 183.79 42.99 184.51 42.99C185.129 42.99 185.613 42.8482 185.965 42.5645C186.316 42.2809 186.492 41.8935 186.492 41.4019C186.492 40.75 185.865 40.1911 184.612 39.7251C184.188 39.5725 183.862 39.4456 183.633 39.3437C182.346 38.8104 181.446 38.2687 180.934 37.7181C180.422 37.1675 180.165 36.4983 180.165 35.7105C180.165 34.6356 180.587 33.7632 181.429 33.094C182.272 32.4248 183.388 32.0905 184.777 32.0905C185.708 32.0905 186.507 32.2615 187.171 32.6047C187.836 32.948 188.321 33.4366 188.626 34.0718L186.67 35.4186C186.526 35.0378 186.274 34.7351 185.914 34.5104C185.554 34.2858 185.137 34.1737 184.663 34.1737C184.138 34.1737 183.716 34.2989 183.399 34.5486C183.081 34.7982 182.922 35.1307 182.922 35.5455C182.922 36.1724 183.633 36.7444 185.056 37.2605C185.505 37.4214 185.853 37.5525 186.098 37.6544C187.208 38.0947 188.001 38.5923 188.48 39.1471C188.958 39.7019 189.198 40.3943 189.198 41.2244C189.198 42.4269 188.762 43.369 187.889 44.0507C187.017 44.7324 185.814 45.0732 184.282 45.0732C183.104 45.0732 182.126 44.8534 181.347 44.4124C180.568 43.9726 179.958 43.2993 179.518 42.3929Z" fill="white"/>
<path d="M192.107 32.538H194.863V44.5811H192.107V32.538ZM191.738 27.3299C191.738 26.8639 191.91 26.4617 192.253 26.1226C192.596 25.7842 193.005 25.6143 193.479 25.6143C193.97 25.6143 194.379 25.7782 194.705 26.1036C195.031 26.4301 195.194 26.8389 195.194 27.3299C195.194 27.8209 195.029 28.2339 194.699 28.5682C194.368 28.9031 193.962 29.0699 193.479 29.0699C193.005 29.0699 192.596 28.8983 192.253 28.5557C191.91 28.2124 191.738 27.8042 191.738 27.3299Z" fill="white"/>
<path d="M199.449 44.5811V34.9514H197.34V32.538H199.449V27.9771H202.205V32.538H204.314V34.9514H202.205V44.5811H199.449Z" fill="white"/>
<path d="M206.818 32.538H209.575V44.5811H206.818V32.538ZM206.449 27.3299C206.449 26.8639 206.621 26.4617 206.964 26.1226C207.307 25.7842 207.715 25.6143 208.19 25.6143C208.681 25.6143 209.09 25.7782 209.416 26.1036C209.742 26.4301 209.905 26.8389 209.905 27.3299C209.905 27.8209 209.74 28.2339 209.41 28.5682C209.079 28.9031 208.673 29.0699 208.19 29.0699C207.715 29.0699 207.307 28.8983 206.964 28.5557C206.621 28.2124 206.449 27.8042 206.449 27.3299Z" fill="white"/>
<path d="M222.253 37.1079C222.142 36.2439 221.812 35.5854 221.262 35.1325C220.711 34.6797 219.957 34.4526 219 34.4526C218.095 34.4526 217.366 34.6731 216.816 35.1135C216.265 35.5538 215.88 36.2188 215.66 37.1079H222.253ZM225.111 38.9629H215.482C215.549 40.0892 215.884 40.9681 216.485 41.5986C217.086 42.2296 217.887 42.5449 218.886 42.5449C219.776 42.5449 220.516 42.3589 221.109 41.9859C221.702 41.6135 222.219 41.0122 222.659 40.1821L224.984 41.4782C224.306 42.6891 223.468 43.5913 222.468 44.1842C221.469 44.7765 220.296 45.0732 218.95 45.0732C217.019 45.0732 215.482 44.4845 214.338 43.3076C213.195 42.1301 212.623 40.5593 212.623 38.5947C212.623 36.7057 213.214 35.1534 214.395 33.9384C215.577 32.7233 217.095 32.1149 218.95 32.1149C220.889 32.1149 222.4 32.6703 223.485 33.7793C224.569 34.8894 225.111 36.4429 225.111 38.4421V38.9629Z" fill="white"/>
<path d="M226.598 42.3929L228.884 41.1481C229.053 41.7493 229.367 42.207 229.824 42.5198C230.281 42.8333 230.87 42.99 231.59 42.99C232.209 42.99 232.693 42.8482 233.045 42.5645C233.396 42.2809 233.572 41.8935 233.572 41.4019C233.572 40.75 232.945 40.1911 231.692 39.7251C231.268 39.5725 230.942 39.4456 230.713 39.3437C229.426 38.8104 228.527 38.2687 228.014 37.7181C227.502 37.1675 227.245 36.4983 227.245 35.7105C227.245 34.6356 227.667 33.7632 228.509 33.094C229.352 32.4248 230.468 32.0905 231.857 32.0905C232.788 32.0905 233.587 32.2615 234.252 32.6047C234.916 32.948 235.401 33.4366 235.706 34.0718L233.75 35.4186C233.606 35.0378 233.354 34.7351 232.994 34.5104C232.634 34.2858 232.217 34.1737 231.743 34.1737C231.218 34.1737 230.796 34.2989 230.479 34.5486C230.161 34.7982 230.002 35.1307 230.002 35.5455C230.002 36.1724 230.713 36.7444 232.136 37.2605C232.585 37.4214 232.933 37.5525 233.178 37.6544C234.288 38.0947 235.081 38.5923 235.561 39.1471C236.038 39.7019 236.278 40.3943 236.278 41.2244C236.278 42.4269 235.842 43.369 234.969 44.0507C234.097 44.7324 232.894 45.0732 231.362 45.0732C230.184 45.0732 229.206 44.8534 228.427 44.4124C227.648 43.9726 227.038 43.2993 226.598 42.3929Z" fill="white"/>
<path d="M159.125 7.73842L165.048 0.0305271H171.046L163.636 8.87837L171.74 18.7178H165.445L159.125 10.613V18.7178H154.268V0.0305271H159.125V7.73842Z" fill="white"/>
<path d="M173.475 6.00377H177.961V7.61447C178.571 6.87139 179.191 6.37144 179.819 6.1152C180.447 5.85957 181.183 5.73085 182.025 5.73085C182.917 5.73085 183.681 5.87625 184.318 6.16466C184.953 6.45427 185.494 6.86305 185.941 7.39161C186.304 7.82125 186.552 8.30035 186.684 8.82891C186.816 9.35806 186.882 9.96111 186.882 10.638V18.7178H182.397V12.2988C182.397 11.6713 182.351 11.163 182.26 10.7745C182.169 10.3866 182.008 10.0767 181.777 9.8455C181.579 9.64707 181.356 9.50703 181.108 9.4242C180.86 9.34138 180.596 9.30026 180.315 9.30026C179.555 9.30026 178.972 9.5273 178.568 9.98137C178.163 10.436 177.961 11.0844 177.961 11.927V18.7178H173.475V6.00377Z" fill="white"/>
<path d="M193.353 12.2968C193.353 12.7264 193.431 13.1191 193.588 13.4737C193.745 13.8294 193.952 14.1393 194.208 14.4033C194.464 14.6679 194.769 14.874 195.125 15.023C195.48 15.1714 195.856 15.2459 196.253 15.2459C196.649 15.2459 197.025 15.1714 197.38 15.023C197.735 14.874 198.041 14.6679 198.297 14.4033C198.553 14.1393 198.759 13.8294 198.917 13.4737C199.074 13.1191 199.152 12.7348 199.152 12.3218C199.152 11.925 199.074 11.5495 198.917 11.1938C198.759 10.8386 198.553 10.5288 198.297 10.2642C198.041 10.0002 197.735 9.79344 197.38 9.64506C197.025 9.49609 196.649 9.4222 196.253 9.4222C195.856 9.4222 195.48 9.49609 195.125 9.64506C194.769 9.79344 194.464 10.0002 194.208 10.2642C193.952 10.5288 193.745 10.8345 193.588 11.1813C193.431 11.5287 193.353 11.9005 193.353 12.2968ZM188.619 12.2473C188.619 11.3052 188.809 10.4257 189.189 9.60752C189.569 8.78995 190.098 8.07965 190.776 7.4766C191.453 6.87356 192.258 6.39804 193.192 6.05122C194.125 5.70441 195.145 5.53101 196.253 5.53101C197.343 5.53101 198.355 5.70024 199.289 6.03871C200.222 6.37778 201.032 6.84853 201.717 7.45158C202.403 8.05522 202.936 8.77387 203.316 9.60752C203.696 10.4424 203.886 11.3636 203.886 12.3713C203.886 13.3789 203.692 14.3002 203.304 15.1344C202.915 15.9687 202.383 16.6879 201.705 17.2904C201.027 17.894 200.213 18.3606 199.264 18.6907C198.314 19.0215 197.285 19.1865 196.178 19.1865C195.088 19.1865 194.08 19.0215 193.154 18.6907C192.229 18.3606 191.432 17.8899 190.763 17.2785C190.094 16.6671 189.569 15.9359 189.189 15.085C188.809 14.234 188.619 13.2884 188.619 12.2473Z" fill="white"/>
<path d="M208.891 6.00377L211.939 12.6957L215.111 6.00377H217.937L221.109 12.8935L224.306 6.00377H229.288L222.646 18.7178H219.647L216.475 11.7536L213.451 18.7178H210.403L203.885 6.00377H208.891Z" fill="white"/>
<path d="M235.558 18.7178H231.072V0.0311222H235.558V18.7178Z" fill="white"/>
<path d="M247.082 10.5199C246.933 9.89242 246.628 9.3883 246.165 9.00812C245.703 8.62794 245.141 8.43785 244.48 8.43785C243.786 8.43785 243.22 8.62019 242.782 8.98309C242.344 9.34718 242.067 9.85905 241.952 10.5199H247.082ZM241.828 13.1222C241.828 15.0553 242.736 16.0218 244.555 16.0218C245.529 16.0218 246.265 15.6255 246.76 14.8324H251.097C250.221 17.7404 248.032 19.1943 244.53 19.1943C243.456 19.1943 242.472 19.0328 241.58 18.7111C240.688 18.3887 239.924 17.9304 239.288 17.3351C238.652 16.7404 238.16 16.0301 237.813 15.2036C237.466 14.3777 237.293 13.4529 237.293 12.428C237.293 11.3708 237.458 10.4168 237.789 9.56587C238.119 8.71494 238.59 7.99212 239.201 7.39682C239.812 6.80212 240.552 6.34387 241.42 6.02149C242.287 5.69971 243.266 5.53822 244.356 5.53822C245.43 5.53822 246.396 5.69971 247.256 6.02149C248.115 6.34387 248.842 6.81105 249.437 7.42185C250.031 8.03323 250.486 8.78108 250.8 9.66479C251.114 10.5491 251.271 11.5442 251.271 12.6514V13.1222H241.828Z" fill="white"/>
<path d="M257.665 12.3293C257.665 12.7423 257.74 13.1266 257.888 13.4818C258.037 13.8375 258.239 14.1474 258.495 14.4114C258.751 14.6753 259.057 14.8821 259.412 15.0305C259.767 15.1795 260.152 15.254 260.565 15.254C260.962 15.254 261.337 15.1795 261.693 15.0305C262.047 14.8821 262.353 14.6753 262.609 14.4114C262.866 14.1474 263.072 13.8411 263.229 13.4943C263.386 13.1475 263.464 12.7756 263.464 12.3788C263.464 11.9825 263.386 11.6065 263.229 11.2513C263.072 10.8962 262.866 10.5863 262.609 10.3217C262.353 10.0578 262.047 9.85098 261.693 9.70201C261.337 9.55363 260.962 9.47914 260.565 9.47914C260.169 9.47914 259.792 9.55363 259.437 9.70201C259.082 9.85098 258.776 10.0578 258.52 10.3217C258.264 10.5863 258.057 10.8878 257.901 11.2263C257.743 11.5654 257.665 11.933 257.665 12.3293ZM263.316 0.0365982H267.826V18.7233H263.316V17.311C262.357 18.5171 261.061 19.1201 259.425 19.1201C258.499 19.1201 257.648 18.9467 256.872 18.5999C256.096 18.2525 255.418 17.7734 254.84 17.162C254.261 16.5512 253.812 15.8326 253.489 15.0061C253.167 14.1802 253.006 13.2875 253.006 12.3293C253.006 11.4206 253.158 10.5571 253.464 9.73955C253.77 8.92138 254.204 8.20691 254.766 7.59552C255.327 6.98473 256 6.50146 256.786 6.14571C257.57 5.79056 258.433 5.61298 259.375 5.61298C260.962 5.61298 262.275 6.16656 263.316 7.27374V0.0365982Z" fill="white"/>
<path d="M274.22 12.2994C274.22 12.7123 274.294 13.0967 274.443 13.4518C274.592 13.8076 274.794 14.1169 275.05 14.3814C275.306 14.6454 275.612 14.8522 275.967 15.0006C276.322 15.1495 276.707 15.224 277.119 15.224C277.516 15.224 277.892 15.1495 278.247 15.0006C278.602 14.8522 278.908 14.6454 279.164 14.3814C279.42 14.1169 279.626 13.8076 279.784 13.4518C279.94 13.0967 280.019 12.7207 280.019 12.3244C280.019 11.9115 279.94 11.5313 279.784 11.1839C279.626 10.8371 279.416 10.5314 279.152 10.2668C278.887 10.0028 278.578 9.79603 278.222 9.64765C277.867 9.49868 277.5 9.42479 277.119 9.42479C276.723 9.42479 276.351 9.50285 276.005 9.66017C275.657 9.81689 275.351 10.0237 275.087 10.2793C274.823 10.5361 274.612 10.8371 274.455 11.1839C274.298 11.5313 274.22 11.9031 274.22 12.2994ZM284.282 6.00435V17.8507C284.282 18.5616 284.24 19.1975 284.158 19.7594C284.075 20.3207 283.96 20.8165 283.811 21.2461C283.613 21.7914 283.303 22.2997 282.882 22.7704C282.46 23.2412 281.952 23.65 281.357 23.9974C280.763 24.3442 280.089 24.6171 279.338 24.815C278.585 25.0134 277.772 25.1123 276.897 25.1123C275.905 25.1123 274.996 24.9884 274.17 24.7405C273.344 24.4926 272.621 24.1499 272.002 23.712C271.382 23.274 270.874 22.7621 270.478 22.1757C270.081 21.5888 269.817 20.9488 269.684 20.2552H274.74C275.054 21.0978 275.764 21.5191 276.872 21.5191C277.814 21.5191 278.536 21.2545 279.04 20.7259C279.544 20.1968 279.796 19.462 279.796 18.5199V17.3055C279.466 17.6195 279.147 17.8799 278.842 18.0861C278.536 18.2929 278.226 18.4621 277.913 18.5944C277.599 18.7267 277.268 18.8214 276.921 18.8792C276.574 18.9371 276.194 18.9662 275.781 18.9662C274.872 18.9662 274.038 18.8089 273.278 18.4955C272.518 18.1815 271.861 17.7435 271.308 17.1815C270.754 16.6202 270.324 15.9469 270.019 15.1621C269.713 14.3773 269.561 13.5055 269.561 12.5473C269.561 11.5724 269.726 10.6678 270.056 9.83357C270.386 8.99932 270.837 8.27233 271.407 7.6526C271.977 7.03287 272.654 6.54543 273.439 6.19027C274.224 5.83512 275.079 5.65754 276.005 5.65754C277.507 5.65754 278.771 6.21947 279.796 7.34273V6.00435H284.282Z" fill="white"/>
<path d="M295.807 10.5121C295.658 9.88461 295.352 9.38049 294.89 9.00031C294.427 8.62012 293.866 8.43003 293.205 8.43003C292.51 8.43003 291.944 8.61238 291.507 8.97528C291.069 9.33937 290.792 9.85124 290.677 10.5121H295.807ZM290.553 13.1144C290.553 15.0474 291.461 16.014 293.279 16.014C294.253 16.014 294.989 15.6177 295.485 14.8246H299.822C298.946 17.7325 296.757 19.1865 293.254 19.1865C292.18 19.1865 291.197 19.025 290.305 18.7033C289.413 18.3809 288.648 17.9226 288.013 17.3273C287.376 16.7326 286.885 16.0223 286.538 15.1958C286.191 14.3699 286.018 13.4451 286.018 12.4201C286.018 11.363 286.183 10.409 286.513 9.55806C286.843 8.70712 287.314 7.9843 287.926 7.38901C288.537 6.7943 289.277 6.33606 290.144 6.01368C291.011 5.6919 291.99 5.53041 293.081 5.53041C294.155 5.53041 295.121 5.6919 295.98 6.01368C296.839 6.33606 297.567 6.80324 298.161 7.41403C298.756 8.02542 299.211 8.77327 299.525 9.65698C299.838 10.5413 299.995 11.5364 299.995 12.6436V13.1144H290.553Z" fill="white"/>
<path d="M316.307 7.21198H323.321V-0.000127792H328.178V18.6865H323.321V10.9792H316.307V18.6865H311.449V-0.000127792H316.307V7.21198Z" fill="white"/>
<path d="M334.398 5.97052V13.1326C334.398 14.7028 335.158 15.4875 336.678 15.4875C338.198 15.4875 338.958 14.7028 338.958 13.1326V5.97052H343.444V14.0002C343.444 15.7188 342.878 17.0077 341.747 17.8664C340.614 18.7256 338.925 19.1553 336.678 19.1553C334.431 19.1553 332.741 18.7256 331.61 17.8664C330.478 17.0077 329.912 15.7188 329.912 14.0002V5.97052H334.398Z" fill="white"/>
<path d="M355.316 12.3686C355.316 11.9724 355.241 11.5964 355.093 11.2412C354.944 10.8861 354.737 10.5762 354.473 10.3116C354.209 10.0476 353.903 9.83668 353.556 9.67936C353.209 9.52264 352.829 9.44398 352.416 9.44398C352.019 9.44398 351.648 9.51847 351.301 9.66745C350.954 9.81582 350.652 10.0226 350.396 10.2866C350.14 10.5512 349.934 10.861 349.777 11.2162C349.62 11.5719 349.541 11.9473 349.541 12.3436C349.541 12.7405 349.616 13.1123 349.764 13.4591C349.913 13.8059 350.12 14.1081 350.384 14.3637C350.648 14.6199 350.958 14.8267 351.313 14.9834C351.668 15.1407 352.044 15.2188 352.441 15.2188C352.838 15.2188 353.209 15.1443 353.556 14.9959C353.903 14.847 354.205 14.6408 354.461 14.3762C354.717 14.1122 354.923 13.8059 355.08 13.4591C355.237 13.1123 355.316 12.7488 355.316 12.3686ZM349.665 0.00144196V7.23858C350.723 6.13141 352.044 5.57782 353.631 5.57782C354.572 5.57782 355.436 5.7554 356.22 6.11055C357.005 6.4663 357.674 6.9454 358.228 7.54844C358.781 8.15149 359.215 8.8618 359.529 9.67936C359.843 10.4975 360 11.3693 360 12.2941C360 13.2363 359.839 14.12 359.517 14.9459C359.195 15.7724 358.744 16.491 358.166 17.1024C357.587 17.7138 356.906 18.1971 356.121 18.5522C355.336 18.9074 354.489 19.085 353.581 19.085C351.929 19.085 350.623 18.4819 349.665 17.2758V18.6887H345.18V0.00144196H349.665Z" fill="white"/>
<path d="M107.969 4.14518V18.7178H103.111V4.14518H99.1211V0.031126H111.959V4.14518H107.969Z" fill="white"/>
<path d="M113.693 0.031126H118.179V7.61507C118.79 6.8714 119.41 6.37204 120.038 6.1158C120.666 5.85957 121.401 5.73145 122.244 5.73145C123.846 5.73145 125.056 6.1736 125.875 7.05731C126.692 7.94162 127.102 9.1352 127.102 10.6386V18.7178H122.616V12.2988C122.616 11.6546 122.566 11.1344 122.467 10.7376C122.368 10.3413 122.202 10.0356 121.971 9.82048C121.575 9.47367 121.095 9.30026 120.534 9.30026C119.773 9.30026 119.191 9.5273 118.786 9.98196C118.381 10.4366 118.179 11.0844 118.179 11.9276V18.7178H113.693V0.031126Z" fill="white"/>
<path d="M138.625 10.5121C138.476 9.88461 138.171 9.38049 137.708 9.00031C137.246 8.62072 136.684 8.43003 136.023 8.43003C135.329 8.43003 134.763 8.61238 134.325 8.97528C133.887 9.33937 133.61 9.85124 133.495 10.5121H138.625ZM133.371 13.1144C133.371 15.0474 134.279 16.014 136.098 16.014C137.072 16.014 137.807 15.6177 138.303 14.8246H142.64C141.764 17.7325 139.575 19.1865 136.072 19.1865C134.998 19.1865 134.015 19.025 133.123 18.7033C132.231 18.3809 131.467 17.9226 130.831 17.3273C130.195 16.7326 129.703 16.0223 129.356 15.1964C129.009 14.3705 128.836 13.4451 128.836 12.4207C128.836 11.363 129.001 10.409 129.332 9.55806C129.662 8.70712 130.133 7.9843 130.744 7.3896C131.355 6.7943 132.095 6.33606 132.963 6.01368C133.83 5.6919 134.809 5.53041 135.899 5.53041C136.973 5.53041 137.939 5.6919 138.799 6.01368C139.658 6.33606 140.385 6.80324 140.98 7.41403C141.574 8.02542 142.029 8.77327 142.343 9.65698C142.657 10.5413 142.814 11.537 142.814 12.6436V13.1144H133.371Z" fill="white"/>
</svg>
