<svg width="231" height="65" viewBox="0 0 231 65" fill="none" xmlns="http://www.w3.org/2000/svg">
<path d="M36.1733 26.4619C32.2932 26.4619 31.1266 22.8553 31.1266 19.2877C31.1266 15.6819 32.2932 12.0699 36.1733 12.0699C40.0907 12.0699 41.2636 15.6819 41.2636 19.2877C41.2636 22.8553 40.0907 26.4619 36.1733 26.4619ZM36.1733 7.4191C29.628 7.4191 25.3887 12.1128 25.3887 19.2877C25.3887 26.4182 29.628 31.1143 36.1733 31.1143C42.7567 31.1143 46.9999 26.4182 46.9999 19.2877C46.9999 12.1128 42.7567 7.4191 36.1733 7.4191Z" fill="#1B6FC1"/>
<path d="M60.7373 30.5059L68.0525 8.02717H61.8689L57.4331 24.4882L52.9967 8.02717H46.813L54.1282 30.5059H60.7373Z" fill="#1B6FC1"/>
<path d="M13.1328 57.8218C20.7504 57.8218 23.4638 52.7759 23.4638 46.84V30.5021H20.8478V46.2314C20.8828 52.9372 18.1725 55.4847 13.1328 55.4847C8.09313 55.4847 5.38199 52.9372 5.41783 46.2314V30.5021H2.80176V46.84C2.80176 52.7759 5.51524 57.8218 13.1328 57.8218Z" fill="#1B6FC1"/>
<path d="M48.6655 57.2236H51.2122V36.3713H48.6655V57.2236Z" fill="#1B6FC1"/>
<path d="M64.9206 57.2236L72.966 36.3713H70.138L63.4945 54.6792L56.8495 36.3713H54.0215L62.0669 57.2236H64.9206Z" fill="#1B6FC1"/>
<path d="M124.427 57.2236H126.973V36.3713H124.427V57.2236Z" fill="#1B6FC1"/>
<path d="M96.5172 30.5088V18.5077C96.5172 13.9442 97.8506 12.0739 100.959 12.0739C103.625 12.0739 104.641 13.9005 104.641 17.5959V30.5088H110.376V16.6857C110.376 11.1177 108.838 7.42304 102.736 7.42304C100.315 7.42304 97.577 8.65821 96.2328 11.1605V8.02621H90.7793V30.5088H96.5172Z" fill="#1B6FC1"/>
<path d="M119.788 2.4518L114.05 4.44367V8.02218H111.867V12.154H114.05V23.7834C114.05 29.2298 117.089 30.7666 120.607 30.7666C121.63 30.7666 122.759 30.7315 123.685 30.5944V25.7729C123.18 25.8602 122.695 25.8952 122.179 25.8952C120.24 25.8952 119.788 25.3747 119.788 21.1158V12.1563H123.685V8.02218H119.788V2.4518Z" fill="#1B6FC1"/>
<path d="M29.9819 57.2236V45.0589C30.0614 40.9793 32.4865 37.9097 36.5232 37.9097C40.6457 37.9097 41.8162 40.6146 41.8162 44.2126V57.2236H44.3637V43.8073C44.3637 38.8409 42.2323 35.7666 36.7282 35.7666C33.8713 35.7666 30.7791 37.5605 29.8517 40.0636V36.3713H27.4336V57.2236H29.9819Z" fill="#1B6FC1"/>
<path d="M98.2332 57.2236V46.107C98.2332 41.789 101.125 38.311 105.99 38.311V35.765C101.956 35.765 99.3998 37.9097 98.1054 41.2637V36.3713H95.6865V57.2236H98.2332Z" fill="#1B6FC1"/>
<path d="M109.713 41.261C109.713 38.493 112.083 37.8353 114.957 37.8353C116.503 37.8353 118.561 38.3317 120.029 39.1016V36.6391C118.096 36.0055 115.788 35.7647 114.646 35.7647C110.773 35.7647 107.095 37.2539 107.095 41.261C107.095 47.9489 118.526 46.7247 118.526 51.8368C118.526 54.541 115.679 55.752 113.027 55.752C110.861 55.752 108.763 55.1628 107.083 54.3781V56.9217C108.999 57.5903 111.133 57.8218 113.204 57.8218C116.607 57.8218 121.138 56.2944 121.138 51.8368C121.138 44.6946 109.713 45.3617 109.713 41.261Z" fill="#1B6FC1"/>
<path d="M150.646 57.2242C148.699 62.0184 146.283 64.6719 143.248 65L142.397 63.0159C145.548 62.5554 147.022 59.6618 148.065 57.2242H146.603L139.299 38.3568H135.026V51.166C135.026 53.408 135.104 55.2355 136.884 55.2355C137.367 55.2355 138.21 55.2425 138.864 55.1731V57.3138C138.116 57.3622 137.328 57.3816 136.806 57.3816C133.488 57.3816 132.479 55.255 132.479 51.265V38.3568H129.751V36.3704H132.479V31.7936H135.047V36.3704H141.407L148.715 55.4817L156.289 36.3704H159.116L150.646 57.2242Z" fill="#1B6FC1"/>
<path d="M153.072 8.02227L147.792 24.484L142.478 8.02227H137.733C133.737 8.02227 132.141 10.2581 131.512 12.1541V8.02227H126.059V30.5025H131.796V20.4177C131.796 15.4707 133.766 13.1204 137.858 13.0362L143.782 30.5025H146.053C145.158 33.1739 144.576 34.5198 143.298 35.3871L145.172 40.2865L145.173 40.2881C148.003 39.3685 150.247 34.7107 151.464 31.341L159.099 8.02227H153.072Z" fill="#1B6FC1"/>
<path d="M19.3279 21.2321C18.4762 23.9783 16.5404 25.7831 13.509 25.7831C8.08201 25.7831 6.04105 20.9344 6.04105 16.1292C6.04105 11.0779 8.08201 6.2299 13.509 6.2299C16.3705 6.2299 18.8791 8.21631 19.437 10.8908L24.9053 8.99249C23.381 3.76733 18.8167 0.895641 13.509 0.895641C5.00382 0.895641 0 7.56171 0 16.1292C0 24.4482 5.00382 31.1143 13.509 31.1143C18.957 31.1143 23.0958 28.0961 24.8017 23.1327L19.3279 21.2321Z" fill="#1B6FC1"/>
<path d="M78.185 12.0707C80.9694 12.0707 82.3261 13.7345 82.7493 16.8524H73.415C73.4991 15.1169 74.5496 12.0707 78.185 12.0707ZM82.8148 24.1708C82.1485 25.3553 80.5127 26.4627 78.5458 26.4627C75.357 26.4627 73.5786 24.6812 73.415 20.766H88.4856C88.8924 13.8514 85.455 7.41988 78.3471 7.41988C72.0045 7.41988 67.6802 12.5484 67.6802 19.2877C67.6802 26.2476 71.7605 31.1143 78.3471 31.1143C82.3682 31.1143 85.4472 29.4723 87.2762 25.7192L82.8148 24.1708Z" fill="#1B6FC1"/>
<path d="M82.8656 37.9093C86.9864 37.9093 89.3664 41.5073 89.4903 45.3445H75.9946C76.4014 41.5478 78.701 37.9093 82.8656 37.9093ZM88.9261 51.769C87.9122 54.1365 85.9866 55.6842 82.8656 55.6842C77.974 55.6842 76.0359 51.2009 75.9946 47.4845H92.0355C92.2342 41.6226 89.5667 35.7655 82.8656 35.7655C76.2385 35.7655 73.4463 41.3039 73.4463 46.8002C73.4463 52.7338 76.2385 57.8218 82.8656 57.8218C87.2265 57.8218 89.8542 55.9258 91.2484 52.5756L88.9261 51.769Z" fill="#1B6FC1"/>
<path d="M222.428 34.5982C219.197 35.6269 215.886 36.6743 212.791 38.0973C211.578 38.6108 210.357 39.3722 209.213 40.1078C208.737 38.4378 209.22 36.5776 210.475 35.6043C211.446 36.3181 212.633 36.6891 213.951 36.4943C216.543 36.1973 218.004 33.8314 219.003 31.3992C220.861 30.5171 222.741 29.649 224.436 28.5182C224.101 30.4586 223.397 32.4684 222.746 34.3013C222.665 34.4915 222.733 34.5117 222.428 34.5982ZM210.102 41.696C213.489 40.2855 217.985 38.7028 221.481 37.6118C220.055 40.0408 214.113 44.9683 210.102 41.696ZM218.28 31.6915C217.671 33.0576 216.758 34.712 215.463 35.4671C214.194 36.2729 212.046 36.209 210.839 35.2638C212.793 33.7021 215.906 32.6282 218.28 31.6915ZM220.285 20.7245C220.193 23.2759 219.88 25.5647 219.187 27.8745C218.362 28.3896 211.713 31.7149 210.107 34.2522C208.502 29.4019 217.708 23.9874 220.285 20.7245ZM220.929 19.9686C221.643 19.116 223.112 16.528 223.308 15.9435C224.433 13.2706 224.484 10.2851 224.433 9.07252C224.804 10.2773 225.025 11.5507 225.173 12.8233C225.688 16.7556 225.401 21.0191 224.914 25.0433C223.32 26.0798 221.661 26.8209 219.979 27.5417C220.521 25.0979 220.965 22.7086 220.929 19.9686ZM216.795 47.1885C215.508 48.4564 213.859 49.9176 212.493 51.2961C209.825 50.4155 206.706 50.0937 203.863 50.6478C203.85 49.6635 203.907 48.8406 204.223 47.8937C208.122 47.1129 212.652 47.3295 216.795 47.1885ZM214.989 54.9705C213.553 56.2501 210.77 57.1089 208.074 56.3927L211.146 53.9075C212.447 54.4063 213.665 54.5832 214.989 54.9705ZM207.54 56.215C207.54 56.215 205.104 54.912 203.99 51.7536C206.174 51.9328 208.579 52.995 210.547 53.6722C210.547 53.6722 208.471 55.4194 207.54 56.215ZM201.311 57.9279C201.895 56.1472 201.83 54.185 201.152 52.3661C201.252 52.2944 202.703 51.7279 203.421 51.7801C204.697 55.2004 206.986 56.3319 207.177 56.5275C205.568 57.7604 203.36 58.4415 201.311 57.9279ZM200.561 57.6177C197.655 55.0632 200.213 52.8461 200.604 52.6708C201.058 54.1211 201.099 56.2041 200.561 57.6177ZM193.201 57.8188C196.588 55.2931 194.793 52.9529 193.557 51.7957C193.829 51.2642 194.133 50.6088 194.786 50.022C195.514 50.6789 195.803 51.6788 195.898 52.7955C196.063 52.8017 196.043 52.7924 196.36 52.8056C196.428 51.6086 195.911 50.449 195.216 49.5466C195.646 49.1492 196.848 48.1034 197.216 47.9413C197.829 48.4743 198.324 49.0042 198.909 49.7103C198.909 49.7103 197.471 51.1434 197.529 52.8477L197.966 52.8656C198.175 51.971 198.098 51.3819 199.305 50.2137C199.796 50.7896 200.168 51.3819 200.382 52.0801C199.665 52.6731 196.764 55.2308 200.332 58.1103C196.525 63.8583 193.237 58.1103 193.201 57.8188ZM193.321 52.3661C195.869 54.7944 193.811 56.7418 192.988 57.2967C192.988 57.2967 192.319 54.9798 193.321 52.3661ZM192.198 57.5671C190.12 57.8827 187.903 56.8829 186.485 55.7397C189.493 54.0556 190.352 51.5167 190.581 51.2556C191.402 51.3608 192.111 51.6312 192.777 52.0217C192.169 53.362 191.604 55.6687 192.198 57.5671ZM183.328 52.6427C185.394 52.0856 187.669 51.2642 189.961 51.2252C189.969 51.5424 188.088 54.4803 186.129 55.3773C185.195 54.4795 183.328 52.6427 183.328 52.6427ZM178.803 53.6324C179.116 53.5982 181.527 53.1244 182.693 52.8298C183.578 53.7065 184.638 54.6931 185.581 55.5542C185.581 55.5542 181.498 56.2641 178.803 53.6324ZM177.598 45.7429C180.389 45.9673 188.287 46.5845 190.02 47.3365C190.282 48.147 190.279 49.2778 190.2 50.103C187.466 49.4282 184.211 49.3643 181.523 50.1233C181.523 50.1233 178.814 47.1254 177.598 45.7429ZM190.736 47.5298C192.007 47.8423 193.306 48.7666 194.369 49.5552C193.723 50.2503 193.466 50.6914 193.109 51.4122C192.436 50.9096 191.918 50.6657 190.724 50.2558C190.828 49.3814 190.834 48.3933 190.736 47.5298ZM186.067 39.553C186.93 37.4489 186.48 35.856 185.439 33.8735C188.547 29.7643 184.61 24.1386 181.774 21.2926C180.299 19.7309 176.807 15.8968 176.534 15.4487C175.881 8.83484 179.075 2.98547 179.311 2.50777C177.728 5.93198 176.928 10.7605 185.948 21.9558C187.547 23.9414 189.738 26.1827 189.631 29.1019C189.586 31.7297 187.477 33.8392 187.766 36.2098C187.992 37.784 188.868 39.1088 190.546 39.4267C192.335 39.7673 193.794 39.253 194.93 38.0037C198.584 33.2493 192.956 29.7721 192.935 25.0278C192.927 23.2237 193.971 22.1311 195.547 21.5552C196.647 21.2381 198.098 20.9092 198.975 21.7906C198.659 21.8264 198.031 21.9418 197.27 22.3197L197.279 22.3423C197.18 22.1981 197.015 22.1038 196.828 22.1038C196.526 22.1038 196.282 22.3478 196.282 22.6478C196.282 22.732 196.302 22.8099 196.336 22.8808C196.416 23.085 196.608 23.2455 196.925 23.1839C196.937 23.1816 196.95 23.1785 196.962 23.1754C197.069 23.1489 197.187 23.0998 197.321 23.0187C198.038 22.5839 198.896 22.4265 199.292 22.3735L199.293 22.3758C202.702 22.1319 201.77 23.9586 201.77 23.9586C201.77 23.9586 199.135 22.4725 196.57 24.9109C192.751 29.1759 210.259 37.6071 197.125 47.2126C196.576 46.7139 194.885 45.5839 193.772 45.1202C193.673 45.2504 193.616 45.3571 193.539 45.474C194.663 46.0032 195.806 46.7092 196.701 47.4924C195.9 48.0309 195.478 48.4424 194.848 49.0471C193.671 47.8571 192.311 46.8822 190.605 46.1583C189.776 43.5733 188.067 41.3547 186.067 39.553ZM185.634 39.1438C182.562 36.8325 177.519 34.4907 172.609 32.622C172.167 31.4624 171.349 27.2183 171.297 26.5435C172.696 27.6867 174.789 29.0123 176.56 29.8952C178.852 37.3141 183.709 35.2902 184.707 34.6216C185.954 35.8358 186.181 37.4512 185.634 39.1438ZM173.593 35.8225C176.095 36.7296 183.992 40.3666 184.61 40.7289C183.791 41.5737 178.6 43.4409 173.593 35.8225ZM172.289 8.13893C172.185 9.5175 172.341 12.9581 175.387 18.3001C175.246 20.8266 175.452 23.4372 175.8 25.8577C174.126 25.034 172.668 23.9874 171.072 23.0546C170.931 20.9201 171.206 10.4667 172.289 8.13893ZM184.343 34.2405C183.989 34.5686 179.309 36.6938 177.227 30.1797C179.548 31.2372 182.431 32.5908 184.343 34.2405ZM176.016 19.0927C177.379 21.3207 187.21 28.7761 185.152 33.2282C182.712 29.8446 176.791 26.6222 176.56 26.3245C176.105 24.0934 175.973 21.5264 176.016 19.0927ZM203.505 48.0387C203.401 48.9341 203.298 49.298 203.342 50.767C202.476 50.986 201.572 51.2595 200.873 51.745C200.581 51.0257 200.204 50.3812 199.744 49.7991C199.744 49.7991 201.582 48.4868 203.505 48.0387ZM228.992 40.3393C230.667 42.6873 223.137 44.7033 219.849 44.8031C219.849 44.8031 226.68 38.1409 228.992 40.3393ZM224.222 51.7536C224.476 52.7815 221.397 55.1295 217.356 53.1625C221.272 50.3189 224.017 50.4085 224.222 51.7536ZM169.798 49.9643C170.183 47.261 175.424 50.5223 176.567 51.6343C174.837 52.4846 169.84 52.4471 169.798 49.9643ZM165.72 38.2391C167.43 35.8225 172.875 41.1194 174.68 43.119C173.651 42.9702 164.253 40.9183 165.72 38.2391ZM223.481 34.2273C224.891 30.4329 224.725 30.0316 225.227 28.0958C229.719 25.7229 230.748 19.886 230.694 19.2524C230.6 17.513 230.687 18.4755 230.518 19.0677C230.022 20.7985 228.388 22.7475 226.911 23.8869C226.537 24.116 226.086 24.515 225.616 24.716C225.722 23.1123 227.465 12.9924 223.504 5.19243L223.48 5.21347C224.748 9.13175 223.041 13.4179 220.698 16.3254C220.649 15.776 219.759 5.65377 215.296 0.563431L214.922 0.0958557C215.596 1.17284 216.413 7.34327 212.86 13.3353C211.057 16.069 208.59 18.4497 206.433 20.8788C204.4 23.4325 203.429 25.9083 204.382 30.3651C204.699 31.5668 205.202 33.402 205.743 33.8228C206.062 33.9545 206.015 33.5454 205.907 33.2929C205.365 32.1302 204.544 27.5129 209.743 21.5061C218.479 11.4205 216.052 2.57868 216.052 2.57868C217.454 4.06557 219.748 12.4476 219.995 17.0322C217.276 20.1704 207.475 27.188 208.971 32.749C209.143 33.4823 209.446 34.2024 209.788 34.8032C208.493 36.8769 208.057 38.43 208.739 40.4546C206.783 42.035 204.654 44.1913 203.76 46.6656C202.186 47.2524 200.685 48.0176 199.309 49.2575C198.769 48.6551 198.331 48.1579 197.692 47.6716C198.101 47.4324 202.014 45.3221 203.554 43.6996C205.05 42.1472 205.947 39.998 205.383 37.632C204.393 33.4605 195.072 27.9805 197.044 25.5701C198.075 24.2859 200.39 23.6819 201.731 24.6124V24.6101C201.731 24.6101 201.742 24.6194 201.758 24.628C201.766 24.6326 201.77 24.6365 201.783 24.6451L201.78 24.6467C201.854 24.7004 201.998 24.8127 202.063 24.8812C202.681 23.9749 203.315 21.6495 199.686 21.6768C199.397 20.9372 198.507 20.6598 197.73 20.5608C195.407 20.4034 193.172 21.4414 192.319 23.4575C191.237 25.9949 194.436 31.5948 194.224 35.2123C194.359 38.2952 188.186 40.3463 188.278 35.5388C188.32 33.381 193.357 27.5285 188.694 20.7666C186.952 18.442 184.902 16.2818 183.169 14.0693C176.848 5.99665 180.615 0.00467682 180.542 3.8147e-06C174.372 7.97294 175.8 14.5595 175.645 14.2525C175.239 13.5067 171.768 9.35852 173.456 3.98687C173.456 3.98687 169.648 8.77405 170.327 22.6049C169.667 22.2052 165.685 18.6048 165.84 15.9054C165.84 15.9054 164.92 21.8443 170.52 26.1063C170.952 28.286 171.086 30.1633 171.797 32.311C169.634 31.5278 166.285 28.9741 165.187 26.5871C165.034 26.1484 165.835 32.0188 172.566 35.383C177.976 44.6667 184.028 42.1917 185.266 40.9721C187.016 41.6438 189.578 45.3291 189.707 45.8442C186.155 44.7189 180.373 43.3793 175.886 43.2297C173.351 40.6767 167.683 35.3121 165.266 37.8993C162.678 41.2277 171.707 45.0906 176.408 45.5863C177.671 46.9243 179.53 48.7697 180.771 50.3088C179.335 50.6657 179.109 50.7693 177.126 51.4715C170.39 45.9486 169.371 49.7048 169.371 49.7048C168.354 54.2169 177.043 53.9761 178.055 53.7306C180.549 56.3163 184.229 56.5454 186.002 55.9789C188.63 58.4103 191.425 58.3316 192.282 58.1188C195.145 64.7093 200.078 61.4807 201.219 58.4609C203.703 59.1124 205.802 58.1103 207.655 56.78C208.905 57.2164 212.425 57.8445 215.716 55.1326C224.108 56.7418 224.99 52.2812 224.571 51.4224C223.35 48.9279 218.235 51.766 216.8 52.9732C215.329 52.3583 214.673 51.9414 213.251 51.526C214.72 49.9207 216.427 48.4696 217.961 47.1378C234.943 45.9159 232.176 32.1793 218.742 44.8444C214.838 44.8109 208.804 45.3384 204.651 46.4466C204.615 46.1068 207.246 42.7847 209.464 41.894C213.603 45.6268 219.784 41.908 222.499 37.2361C226.584 35.6931 229.345 32.6391 230.359 29.4861L230.56 28.9375C229.702 30.4968 226.695 33.402 223.481 34.2273Z" fill="#1B6FC1"/>
</svg>
