<svg width="149" height="65" viewBox="0 0 149 65" fill="none" xmlns="http://www.w3.org/2000/svg">
<path d="M148.674 37.387C143.391 24.9281 138.109 12.4688 132.827 0.0104637H122.881C117.993 11.5423 113.103 23.0737 108.214 34.6051C107.821 35.533 107.428 36.4609 107.034 37.3888L117.871 37.3852C121.167 28.986 124.462 20.5869 127.757 12.1878C131.034 20.5901 134.312 28.9933 137.588 37.3965C141.284 37.3929 144.979 37.3897 148.674 37.387Z" fill="black"/>
<path d="M73.5073 0.0199852C78.7897 12.4788 84.0725 24.9381 89.3544 37.3965H99.2999C104.189 25.8646 109.078 14.3333 113.967 2.80186C114.36 1.87396 114.754 0.946068 115.147 0.0181732L104.31 0.0217972C101.014 8.42091 97.7187 16.82 94.4237 25.2201L84.5933 0.0104637C80.898 0.0140877 77.2022 0.0172653 73.5073 0.0199852Z" fill="black"/>
<path d="M25.1856 3.8147e-05V23.0247L7.60916 3.8147e-05H0V37.3965H8.14497V13.6229L26.3111 37.3965H33.3305V3.8147e-05H25.1856Z" fill="black"/>
<path d="M54.5534 28.166C59.6431 28.166 63.784 32.3069 63.784 37.3965H72.5419C72.5419 27.4784 64.4726 19.4083 54.5534 19.4083C44.6342 19.4083 36.5649 27.4784 36.5649 37.3965H45.3228C45.3228 32.3069 49.4637 28.166 54.5534 28.166Z" fill="#348041"/>
<path d="M54.5534 9.23249C49.4637 9.23249 45.3228 5.09118 45.3228 0.00202942H36.5649C36.5649 9.92014 44.6342 17.9893 54.5534 17.9893C64.4726 17.9893 72.5419 9.92014 72.5419 0.00202942H63.784C63.784 5.09118 59.6431 9.23249 54.5534 9.23249Z" fill="black"/>
<path d="M36.7998 53.7333V46.8758L41.433 51.7746V47.3119H42.3913V54.124L37.7581 49.2375V53.7333H36.7998Z" fill="black"/>
<path d="M45.4664 50.5085C45.4664 51.2179 45.7025 51.8022 46.174 52.2592C46.6432 52.717 47.1848 52.9455 47.7991 52.9455C48.4654 52.9455 49.028 52.7129 49.4863 52.2469C49.9446 51.776 50.1735 51.2016 50.1735 50.5253C50.1735 49.8404 49.9468 49.2665 49.494 48.8032C49.0443 48.3382 48.4876 48.1047 47.8236 48.1047C47.1626 48.1047 46.6046 48.3382 46.1495 48.8032C45.6935 49.2642 45.4664 49.8322 45.4664 50.5085ZM44.499 50.4958C44.499 49.5929 44.8272 48.8164 45.4827 48.1677C46.1355 47.5191 46.9201 47.1945 47.8358 47.1945C48.7415 47.1945 49.518 47.5209 50.1644 48.1759C50.8154 48.83 51.1404 49.6155 51.1404 50.5335C51.1404 51.4568 50.814 52.2401 50.1612 52.8834C49.5049 53.5293 48.7138 53.8521 47.7868 53.8521C46.9668 53.8521 46.2302 53.5656 45.5774 52.9917C44.8585 52.3562 44.499 51.5244 44.499 50.4958Z" fill="black"/>
<path d="M53.5685 47.3131L55.3259 51.7631L57.1065 47.3131H58.1564L55.3046 54.2168L52.5195 47.3131H53.5685Z" fill="black"/>
<path d="M63.1889 51.2629L62.246 49.0794L61.2592 51.2629H63.1889ZM63.5797 52.174H60.8603L60.1518 53.7329H59.1191L62.2628 46.909L65.295 53.7329H64.246L63.5797 52.174Z" fill="black"/>
<path d="M71.4524 47.3142V51.1817C71.4524 51.7333 71.5417 52.1368 71.7194 52.3915C71.986 52.761 72.3599 52.945 72.8432 52.945C73.3287 52.945 73.704 52.761 73.9705 52.3915C74.1487 52.1454 74.238 51.7415 74.238 51.1817V47.3142H75.1967V51.4482C75.1967 52.1245 74.9877 52.6816 74.5712 53.1195C74.102 53.6077 73.5263 53.8521 72.8432 53.8521C72.16 53.8521 71.5848 53.6077 71.1188 53.1195C70.7022 52.6816 70.4941 52.1245 70.4941 51.4482V47.3142H71.4524Z" fill="black"/>
<path d="M77.6201 53.7333V46.8758L82.2533 51.7746V47.3119H83.2116V54.124L78.5793 49.2375V53.7333H77.6201Z" fill="black"/>
<path d="M86.5935 53.7329H85.6353V47.3115H86.5935V53.7329Z" fill="black"/>
<path d="M89.3434 47.3131L91.1004 51.7631L92.8823 47.3131H93.9313L91.0795 54.2168L88.2944 47.3131H89.3434Z" fill="black"/>
<path d="M99.1279 48.2226H96.5813V49.7657H99.054V50.6763H96.5813V52.8218H99.1279V53.7329H95.6221V47.3115H99.1279V48.2226Z" fill="black"/>
<path d="M102.247 50.2607H102.551C103.459 50.2607 103.913 49.9098 103.913 49.209C103.913 48.5513 103.472 48.2226 102.588 48.2226H102.247V50.2607ZM103.44 50.9964L105.406 53.7329H104.234L102.419 51.1056H102.247V53.7329H101.289V47.3124H102.411C103.25 47.3124 103.857 47.4715 104.23 47.7907C104.641 48.1456 104.847 48.6138 104.847 49.1959C104.847 49.6514 104.718 50.0417 104.46 50.369C104.202 50.6963 103.862 50.9053 103.44 50.9964Z" fill="black"/>
<path d="M110.855 48.2715L110.077 48.7371C109.933 48.4828 109.794 48.3155 109.662 48.2384C109.525 48.1491 109.347 48.1052 109.131 48.1052C108.865 48.1052 108.644 48.1818 108.469 48.3336C108.293 48.4832 108.206 48.6718 108.206 48.8993C108.206 49.213 108.436 49.4655 108.896 49.6559L109.531 49.9184C110.046 50.1287 110.423 50.3857 110.662 50.6894C110.9 50.9931 111.02 51.3657 111.02 51.8063C111.02 52.3965 110.825 52.8852 110.436 53.2705C110.043 53.658 109.556 53.8521 108.975 53.8521C108.424 53.8521 107.968 53.6871 107.609 53.358C107.255 53.028 107.034 52.5629 106.946 51.9645L107.918 51.7479C107.962 52.1254 108.038 52.3856 108.148 52.5298C108.345 52.8072 108.633 52.9459 109.012 52.9459C109.311 52.9459 109.559 52.8444 109.757 52.6422C109.954 52.44 110.053 52.1835 110.053 51.873C110.053 51.7479 110.036 51.6336 110.002 51.5294C109.967 51.426 109.914 51.3299 109.841 51.2429C109.768 51.1554 109.674 51.0738 109.559 50.9972C109.444 50.921 109.306 50.8485 109.148 50.7796L108.535 50.5212C107.665 50.15 107.231 49.6065 107.231 48.8912C107.231 48.4089 107.413 48.005 107.778 47.6804C108.142 47.3536 108.597 47.19 109.139 47.19C109.871 47.19 110.444 47.5503 110.855 48.2715Z" fill="black"/>
<path d="M114.036 53.7329H113.078V47.3115H114.036V53.7329Z" fill="black"/>
<path d="M118.218 48.2226V53.7329H117.26V48.2226H115.799V47.3115H119.675V48.2226H118.218Z" fill="black"/>
<path d="M122.717 50.9592L120.643 47.3115H121.746L123.198 49.8776L124.655 47.3115H125.758L123.676 50.9592V53.7329H122.717V50.9592Z" fill="black"/>
<path d="M37.7581 58.1904V63.7007H39.6262V64.6118H36.7998V58.1904H37.7581Z" fill="black"/>
<path d="M42.3968 64.6104H41.4385V58.189H42.3968V64.6104Z" fill="black"/>
<path d="M48.4167 59.1446L47.6388 59.6101C47.4933 59.3558 47.3555 59.1885 47.2236 59.1115C47.0862 59.0222 46.909 58.9782 46.6927 58.9782C46.4266 58.9782 46.2054 59.0548 46.0305 59.2067C45.8546 59.3563 45.7671 59.5448 45.7671 59.7724C45.7671 60.0861 45.9974 60.3386 46.4579 60.5289L47.0921 60.7914C47.6075 61.0017 47.9847 61.2587 48.2231 61.5625C48.462 61.8662 48.5817 62.2383 48.5817 62.6794C48.5817 63.2696 48.3863 63.7582 47.9964 64.1435C47.6048 64.5311 47.1179 64.7251 46.5363 64.7251C45.9851 64.7251 45.5291 64.5601 45.1705 64.231C44.8161 63.901 44.5958 63.4359 44.5078 62.8367L45.4792 62.6209C45.5232 62.998 45.5994 63.2587 45.7091 63.4028C45.9067 63.6803 46.1946 63.819 46.5735 63.819C46.8727 63.819 47.1207 63.7174 47.3183 63.5153C47.5159 63.3131 47.6143 63.0565 47.6143 62.746C47.6143 62.6209 47.5971 62.5067 47.5631 62.4024C47.5286 62.2991 47.4751 62.203 47.4022 62.1159C47.3296 62.0284 47.2358 61.9468 47.1207 61.8702C47.0055 61.7941 46.8677 61.7216 46.7095 61.6527L46.0962 61.3943C45.2268 61.023 44.792 60.4795 44.792 59.7642C44.792 59.2819 44.9738 58.878 45.3392 58.5535C45.7036 58.2267 46.1583 58.063 46.7009 58.063C47.433 58.063 48.0055 58.4234 48.4167 59.1446Z" fill="black"/>
<path d="M51.5984 63.7007H52.1904C52.6247 63.7007 52.9425 63.615 53.1451 63.4432C53.3595 63.2569 53.466 63.0217 53.466 62.7361C53.466 62.4587 53.3631 62.2257 53.1573 62.0376C52.9574 61.8517 52.5993 61.7588 52.0839 61.7588H51.5984V63.7007ZM51.5984 60.9478H51.899C52.2553 60.9478 52.5164 60.868 52.6827 60.7085C52.8482 60.5489 52.9316 60.3141 52.9316 60.0036C52.9316 59.7013 52.8464 59.4719 52.6759 59.316C52.5059 59.1587 52.2593 59.0802 51.9361 59.0802H51.5984V60.9478ZM50.6401 64.6118V58.1904H51.5943C52.0191 58.1904 52.3582 58.2235 52.6102 58.2897C52.8659 58.3568 53.0812 58.4692 53.2562 58.6274C53.4348 58.791 53.5762 58.9946 53.6804 59.2389C53.787 59.4855 53.8405 59.7344 53.8405 59.9868C53.8405 60.4474 53.6659 60.8368 53.3178 61.1554C53.6555 61.2719 53.9216 61.4755 54.1165 61.7669C54.3142 62.0552 54.413 62.3907 54.413 62.7732C54.413 63.275 54.2371 63.6993 53.8858 64.0457C53.6741 64.2592 53.4375 64.4074 53.1746 64.4908C52.8854 64.571 52.525 64.6118 52.0916 64.6118H50.6401Z" fill="black"/>
<path d="M57.1734 61.382C57.1734 62.0914 57.4096 62.6753 57.881 63.1327C58.3502 63.5905 58.8919 63.819 59.5061 63.819C60.1729 63.819 60.735 63.5864 61.1933 63.1204C61.6516 62.6495 61.8805 62.0751 61.8805 61.3988C61.8805 60.7139 61.6543 60.14 61.2019 59.6767C60.7522 59.2117 60.1947 58.9782 59.5315 58.9782C58.8697 58.9782 58.3117 59.2117 57.8565 59.6767C57.4014 60.1377 57.1734 60.7057 57.1734 61.382ZM56.2061 61.3693C56.2061 60.4664 56.5342 59.6899 57.1897 59.0412C57.8429 58.3916 58.6276 58.068 59.5433 58.068C60.4485 58.068 61.225 58.3944 61.8724 59.0494C62.5224 59.7035 62.8474 60.489 62.8474 61.407C62.8474 62.3303 62.521 63.1136 61.8683 63.7569C61.2128 64.4028 60.4213 64.7251 59.4939 64.7251C58.6743 64.7251 57.9372 64.4391 57.2849 63.8652C56.566 63.2297 56.2061 62.3979 56.2061 61.3693Z" fill="black"/>
<path d="M64.9556 64.6093V57.7518L69.5888 62.6506V58.1879H70.5471V65L65.9139 60.1135V64.6093H64.9556Z" fill="black"/>
</svg>
