<svg width="253" height="32" viewBox="0 0 253 32" fill="none" xmlns="http://www.w3.org/2000/svg">
<path d="M35.1699 29.6809H44.9086L37.1075 2.58689H31.9178V18.8028L35.1699 29.6809ZM47.9651 31.9814H33.4562L29.6172 19.1394V0.286301H38.8391L47.9651 31.9814Z" fill="#E84925"/>
<path d="M54.2525 29.6809H58.8687L58.87 13.0486L55.6254 2.58689H46.451L54.2525 29.6809ZM61.1689 31.9814H52.5209L43.3945 0.286301H57.3207L61.1705 12.6999L61.1689 31.9814Z" fill="#E84925"/>
<path d="M2.30058 8.65486V17.1551L22.7334 11.766V3.26568L2.30058 8.65486ZM0 20.1411V6.88238L25.034 0.279297V13.5384L0 20.1411Z" fill="#E84925"/>
<path d="M25.0444 32L0 25.3831V13.6178H2.30058V23.6115L22.7438 29.0128V20.5125L10.0333 17.1544L10.6211 14.9302L25.0444 18.7409V32Z" fill="#E84925"/>
<path d="M72.2764 18.1883H74.3663V26.0946C74.3663 27.2685 74.6374 28.1503 75.1797 28.7402C75.7224 29.33 76.5334 29.6249 77.6121 29.6249C78.6855 29.6249 79.4931 29.33 80.0358 28.7402C80.5781 28.1503 80.8492 27.2685 80.8492 26.0946V18.1883H82.9658V26.2898C82.9658 28.051 82.5212 29.3688 81.6318 30.2432C80.7428 31.1175 79.4025 31.5547 77.6121 31.5547C75.8217 31.5547 74.4848 31.1192 73.6012 30.2473C72.7181 29.3759 72.2764 28.0569 72.2764 26.2898V18.1883Z" fill="#101828"/>
<path d="M85.7217 31.2085V22.7779H87.5359V24.1561C87.9213 23.575 88.3748 23.1512 88.8966 22.8847C89.418 22.6177 90.0525 22.4842 90.7996 22.4842C91.4279 22.4842 91.9631 22.5835 92.4048 22.7825C92.8466 22.981 93.192 23.2759 93.441 23.6672C93.5891 23.8983 93.6959 24.1682 93.761 24.4761C93.8261 24.7848 93.859 25.3242 93.859 26.0951V31.2085H91.9113V26.8776C91.9113 25.7688 91.7766 25.0322 91.5067 24.6676C91.2368 24.303 90.7579 24.1207 90.0705 24.1207C89.6199 24.1207 89.2182 24.2037 88.8653 24.3697C88.5124 24.5357 88.2354 24.7698 88.0339 25.0722C87.8917 25.2737 87.7924 25.5332 87.7361 25.8502C87.6798 26.1676 87.6514 26.6728 87.6514 27.3665V31.2085H85.7217Z" fill="#101828"/>
<path d="M96.5176 22.7779H98.4473V31.2085H96.5176V22.7779ZM96.2598 19.132C96.2598 18.8058 96.3799 18.5242 96.6202 18.2868C96.86 18.0499 97.1462 17.931 97.4783 17.931C97.822 17.931 98.1082 18.0457 98.3363 18.2735C98.5645 18.5021 98.6788 18.7882 98.6788 19.132C98.6788 19.4757 98.5633 19.7648 98.3317 19.9988C98.1006 20.2332 97.8162 20.3501 97.4783 20.3501C97.1462 20.3501 96.86 20.2299 96.6202 19.9901C96.3799 19.7498 96.2598 19.464 96.2598 19.132Z" fill="#101828"/>
<path d="M104.166 31.7158L99.7461 22.7779H101.854L103.694 27.0204C103.754 27.1505 103.825 27.3462 103.908 27.6069C103.991 27.868 104.077 28.1792 104.166 28.5409C104.225 28.286 104.295 28.0324 104.375 27.7804C104.455 27.5285 104.551 27.2748 104.664 27.0204L106.496 22.7779H108.595L104.166 31.7158Z" fill="#101828"/>
<path d="M115.923 25.9786C115.846 25.3738 115.615 24.9128 115.229 24.5958C114.844 24.2787 114.316 24.1198 113.646 24.1198C113.012 24.1198 112.502 24.2741 112.117 24.5824C111.731 24.8907 111.461 25.3562 111.307 25.9786H115.923ZM117.924 27.2772H111.183C111.23 28.0656 111.464 28.6809 111.885 29.1223C112.306 29.564 112.866 29.7847 113.566 29.7847C114.189 29.7847 114.707 29.6546 115.122 29.3934C115.537 29.1327 115.899 28.7118 116.207 28.1307L117.835 29.038C117.36 29.8857 116.773 30.5172 116.074 30.9323C115.374 31.3469 114.553 31.5547 113.611 31.5547C112.259 31.5547 111.183 31.1425 110.382 30.3187C109.582 29.4944 109.182 28.3948 109.182 27.0194C109.182 25.6971 109.595 24.6104 110.422 23.7598C111.249 22.9092 112.312 22.4833 113.611 22.4833C114.968 22.4833 116.026 22.8721 116.785 23.6484C117.544 24.4256 117.924 25.5131 117.924 26.9126V27.2772Z" fill="#101828"/>
<path d="M121.863 24.1207C122.071 23.5634 122.345 23.1512 122.686 22.8847C123.027 22.6177 123.449 22.4842 123.953 22.4842C124.226 22.4842 124.494 22.5172 124.758 22.5822C125.022 22.6477 125.281 22.7424 125.536 22.8667L124.843 24.5032C124.677 24.3847 124.497 24.2971 124.304 24.2408C124.112 24.1845 123.897 24.1561 123.66 24.1561C123.019 24.1561 122.56 24.4131 122.281 24.9254C122.003 25.4385 121.863 26.2995 121.863 27.5092V31.2085H119.934V22.7599H121.863V24.1207Z" fill="#101828"/>
<path d="M125.67 29.6783L127.271 28.8069C127.389 29.2278 127.609 29.5482 127.929 29.7672C128.249 29.9866 128.661 30.0963 129.165 30.0963C129.598 30.0963 129.937 29.997 130.183 29.7985C130.429 29.5999 130.552 29.3288 130.552 28.9846C130.552 28.5283 130.113 28.137 129.236 27.8108C128.94 27.704 128.711 27.6151 128.551 27.5438C127.65 27.1704 127.02 26.7912 126.661 26.4058C126.303 26.0203 126.123 25.5519 126.123 25.0004C126.123 24.2479 126.418 23.6372 127.008 23.1687C127.598 22.7002 128.379 22.4662 129.352 22.4662C130.004 22.4662 130.563 22.5859 131.028 22.8262C131.493 23.0665 131.833 23.4086 132.046 23.8532L130.677 24.796C130.576 24.5294 130.4 24.3175 130.148 24.1603C129.896 24.003 129.604 23.9246 129.272 23.9246C128.904 23.9246 128.609 24.0122 128.387 24.187C128.164 24.3618 128.053 24.5945 128.053 24.8849C128.053 25.3237 128.551 25.7242 129.547 26.0854C129.861 26.198 130.105 26.2898 130.277 26.3612C131.053 26.6694 131.609 27.0178 131.944 27.4061C132.279 27.7945 132.447 28.2792 132.447 28.8603C132.447 29.7021 132.141 30.3616 131.53 30.8389C130.92 31.3161 130.078 31.5547 129.005 31.5547C128.181 31.5547 127.496 31.4008 126.951 31.0921C126.405 30.7842 125.978 30.3128 125.67 29.6783Z" fill="#101828"/>
<path d="M134.482 22.7779H136.412V31.2085H134.482V22.7779ZM134.225 19.132C134.225 18.8058 134.345 18.5242 134.585 18.2868C134.825 18.0499 135.111 17.931 135.443 17.931C135.787 17.931 136.073 18.0457 136.301 18.2735C136.529 18.5021 136.644 18.7882 136.644 19.132C136.644 19.4757 136.528 19.7648 136.297 19.9988C136.065 20.2332 135.781 20.3501 135.443 20.3501C135.111 20.3501 134.825 20.2299 134.585 19.9901C134.345 19.7498 134.225 19.464 134.225 19.132Z" fill="#101828"/>
<path d="M139.623 31.2085V24.4673H138.146V22.7779H139.623V19.585H141.553V22.7779H143.029V24.4673H141.553V31.2085H139.623Z" fill="#101828"/>
<path d="M144.781 22.7779H146.71V31.2085H144.781V22.7779ZM144.522 19.132C144.522 18.8058 144.643 18.5242 144.883 18.2868C145.123 18.0499 145.409 17.931 145.741 17.931C146.085 17.931 146.371 18.0457 146.599 18.2735C146.827 18.5021 146.942 18.7882 146.942 19.132C146.942 19.4757 146.826 19.7648 146.595 19.9988C146.363 20.2332 146.079 20.3501 145.741 20.3501C145.409 20.3501 145.123 20.2299 144.883 19.9901C144.643 19.7498 144.522 19.464 144.522 19.132Z" fill="#101828"/>
<path d="M155.586 25.9786C155.509 25.3738 155.278 24.9128 154.892 24.5958C154.507 24.2787 153.979 24.1198 153.309 24.1198C152.675 24.1198 152.165 24.2741 151.78 24.5824C151.394 24.8907 151.124 25.3562 150.971 25.9786H155.586ZM157.587 27.2772H150.846C150.893 28.0656 151.127 28.6809 151.548 29.1223C151.969 29.564 152.529 29.7847 153.229 29.7847C153.852 29.7847 154.37 29.6546 154.785 29.3934C155.2 29.1327 155.562 28.7118 155.87 28.1307L157.498 29.038C157.023 29.8857 156.436 30.5172 155.737 30.9323C155.037 31.3469 154.216 31.5547 153.274 31.5547C151.922 31.5547 150.846 31.1425 150.045 30.3187C149.245 29.4944 148.845 28.3948 148.845 27.0194C148.845 25.6971 149.259 24.6104 150.085 23.7598C150.913 22.9092 151.975 22.4833 153.274 22.4833C154.631 22.4833 155.689 22.8721 156.449 23.6484C157.207 24.4256 157.587 25.5131 157.587 26.9126V27.2772Z" fill="#101828"/>
<path d="M158.628 29.6783L160.229 28.8069C160.347 29.2278 160.567 29.5482 160.887 29.7672C161.207 29.9866 161.619 30.0963 162.123 30.0963C162.556 30.0963 162.895 29.997 163.141 29.7985C163.387 29.5999 163.51 29.3288 163.51 28.9846C163.51 28.5283 163.071 28.137 162.194 27.8108C161.898 27.704 161.669 27.6151 161.509 27.5438C160.608 27.1704 159.978 26.7912 159.619 26.4058C159.261 26.0203 159.081 25.5519 159.081 25.0004C159.081 24.2479 159.376 23.6372 159.966 23.1687C160.556 22.7002 161.337 22.4662 162.31 22.4662C162.962 22.4662 163.521 22.5859 163.986 22.8262C164.451 23.0665 164.791 23.4086 165.004 23.8532L163.635 24.796C163.534 24.5294 163.358 24.3175 163.106 24.1603C162.854 24.003 162.562 23.9246 162.23 23.9246C161.862 23.9246 161.567 24.0122 161.345 24.187C161.122 24.3618 161.011 24.5945 161.011 24.8849C161.011 25.3237 161.509 25.7242 162.505 26.0854C162.819 26.198 163.063 26.2898 163.235 26.3612C164.011 26.6694 164.567 27.0178 164.902 27.4061C165.237 27.7945 165.405 28.2792 165.405 28.8603C165.405 29.7021 165.099 30.3616 164.488 30.8389C163.878 31.3161 163.036 31.5547 161.963 31.5547C161.139 31.5547 160.454 31.4008 159.909 31.0921C159.363 30.7842 158.936 30.3128 158.628 29.6783Z" fill="#101828"/>
<path d="M111.393 5.41555L115.539 0.0197029H119.738L114.551 6.21356L120.224 13.1016H115.817L111.393 7.42789V13.1016H107.992V0.0197029H111.393V5.41555Z" fill="#101828"/>
<path d="M121.439 4.20123H124.58V5.32879C125.007 4.8086 125.441 4.45861 125.881 4.27923C126.321 4.10028 126.835 4.01017 127.425 4.01017C128.05 4.01017 128.584 4.11195 129.03 4.31386C129.475 4.51659 129.854 4.80276 130.166 5.17277C130.421 5.47354 130.594 5.80893 130.687 6.17894C130.779 6.54937 130.825 6.97153 130.825 7.44541V13.1016H127.685V8.60801C127.685 8.16875 127.653 7.81292 127.59 7.54094C127.526 7.26937 127.413 7.05245 127.252 6.8906C127.113 6.75169 126.957 6.65366 126.783 6.59567C126.61 6.53769 126.424 6.50891 126.228 6.50891C125.696 6.50891 125.288 6.66784 125.005 6.98571C124.721 7.304 124.58 7.75786 124.58 8.34771V13.1016H121.439V4.20123Z" fill="#101828"/>
<path d="M135.355 8.60854C135.355 8.9093 135.41 9.18421 135.52 9.43241C135.629 9.68145 135.774 9.89837 135.953 10.0832C136.132 10.2684 136.346 10.4127 136.595 10.517C136.844 10.6209 137.107 10.673 137.385 10.673C137.663 10.673 137.925 10.6209 138.174 10.517C138.423 10.4127 138.637 10.2684 138.816 10.0832C138.995 9.89837 139.14 9.68145 139.25 9.43241C139.359 9.18421 139.415 8.91514 139.415 8.62606C139.415 8.34824 139.359 8.08543 139.25 7.83639C139.14 7.58777 138.995 7.37085 138.816 7.18564C138.637 7.00084 138.423 6.85609 138.174 6.75222C137.925 6.64793 137.663 6.5962 137.385 6.5962C137.107 6.5962 136.844 6.64793 136.595 6.75222C136.346 6.85609 136.132 7.00084 135.953 7.18564C135.774 7.37085 135.629 7.58485 135.52 7.82763C135.41 8.07083 135.355 8.33113 135.355 8.60854ZM132.041 8.57392C132.041 7.9144 132.174 7.29868 132.44 6.72593C132.706 6.1536 133.076 5.65636 133.551 5.2342C134.025 4.81205 134.589 4.47916 135.242 4.23638C135.895 3.9936 136.61 3.8722 137.385 3.8722C138.148 3.8722 138.856 3.99067 139.51 4.22762C140.163 4.46498 140.73 4.79453 141.21 5.21668C141.69 5.63926 142.063 6.14234 142.329 6.72593C142.595 7.31036 142.728 7.95528 142.728 8.66068C142.728 9.36609 142.592 10.011 142.321 10.595C142.049 11.179 141.676 11.6825 141.202 12.1043C140.727 12.5268 140.158 12.8535 139.493 13.0846C138.828 13.3161 138.108 13.4316 137.333 13.4316C136.569 13.4316 135.864 13.3161 135.216 13.0846C134.568 12.8535 134.01 12.5239 133.542 12.0959C133.073 11.6679 132.706 11.1561 132.44 10.5604C132.174 9.9647 132.041 9.30268 132.041 8.57392Z" fill="#101828"/>
<path d="M146.232 4.20123L148.366 8.88583L150.587 4.20123H152.564L154.785 9.02433L157.023 4.20123H160.511L155.861 13.1016H153.762L151.541 8.22632L149.424 13.1016H147.29L142.728 4.20123H146.232Z" fill="#101828"/>
<path d="M164.9 13.1016H161.76V0.0201197H164.9V13.1016Z" fill="#101828"/>
<path d="M172.967 7.36454C172.863 6.92528 172.649 6.57237 172.325 6.30623C172.001 6.04009 171.608 5.90702 171.146 5.90702C170.66 5.90702 170.263 6.03466 169.957 6.28871C169.65 6.54359 169.456 6.90192 169.376 7.36454H172.967ZM169.289 9.18624C169.289 10.5395 169.925 11.2161 171.198 11.2161C171.88 11.2161 172.395 10.9387 172.742 10.3835H175.778C175.165 12.4192 173.632 13.437 171.18 13.437C170.428 13.437 169.74 13.324 169.116 13.0987C168.491 12.873 167.956 12.5522 167.511 12.1355C167.065 11.7192 166.721 11.2219 166.478 10.6434C166.236 10.0652 166.114 9.41776 166.114 8.70026C166.114 7.96023 166.23 7.29237 166.461 6.69668C166.692 6.10099 167.022 5.59499 167.45 5.17825C167.878 4.76194 168.396 4.44115 169.003 4.21547C169.61 3.99021 170.295 3.87716 171.059 3.87716C171.81 3.87716 172.487 3.99021 173.089 4.21547C173.69 4.44115 174.199 4.76819 174.615 5.19577C175.032 5.62377 175.35 6.14729 175.57 6.76593C175.789 7.38498 175.899 8.08162 175.899 8.85669V9.18624H169.289Z" fill="#101828"/>
<path d="M180.376 8.63091C180.376 8.92 180.428 9.18906 180.532 9.43768C180.636 9.68672 180.778 9.90364 180.957 10.0884C181.136 10.2732 181.35 10.418 181.599 10.5219C181.848 10.6261 182.117 10.6783 182.406 10.6783C182.684 10.6783 182.946 10.6261 183.195 10.5219C183.444 10.418 183.658 10.2732 183.837 10.0884C184.016 9.90364 184.161 9.68922 184.271 9.44644C184.381 9.20366 184.436 8.94336 184.436 8.66553C184.436 8.38813 184.381 8.12491 184.271 7.87628C184.161 7.62766 184.016 7.41074 183.837 7.22553C183.658 7.04073 183.444 6.89598 183.195 6.79169C182.946 6.68782 182.684 6.63568 182.406 6.63568C182.128 6.63568 181.865 6.68782 181.617 6.79169C181.368 6.89598 181.154 7.04073 180.975 7.22553C180.795 7.41074 180.65 7.62182 180.541 7.85876C180.431 8.09612 180.376 8.35351 180.376 8.63091ZM184.332 0.0254984H187.489V13.1069H184.332V12.1183C183.661 12.9626 182.753 13.3848 181.608 13.3848C180.96 13.3848 180.364 13.2634 179.821 13.0206C179.277 12.7774 178.803 12.442 178.398 12.014C177.993 11.5864 177.678 11.0833 177.453 10.5048C177.227 9.92658 177.114 9.30169 177.114 8.63091C177.114 7.99476 177.221 7.3903 177.435 6.81797C177.649 6.24522 177.953 5.74506 178.346 5.31706C178.739 4.88948 179.21 4.55117 179.76 4.30213C180.309 4.05351 180.914 3.9292 181.573 3.9292C182.684 3.9292 183.603 4.31673 184.332 5.0918V0.0254984Z" fill="#101828"/>
<path d="M191.966 8.60854C191.966 8.89763 192.018 9.16669 192.122 9.41531C192.226 9.66435 192.368 9.88085 192.547 10.0661C192.726 10.2509 192.94 10.3956 193.189 10.4995C193.438 10.6038 193.707 10.6559 193.996 10.6559C194.273 10.6559 194.536 10.6038 194.785 10.4995C195.034 10.3956 195.248 10.2509 195.427 10.0661C195.606 9.88085 195.751 9.66435 195.861 9.41531C195.97 9.16669 196.025 8.90347 196.025 8.62606C196.025 8.33697 195.97 8.07083 195.861 7.82763C195.751 7.58485 195.603 7.37085 195.419 7.18564C195.233 7.00084 195.016 6.85609 194.768 6.75222C194.519 6.64793 194.262 6.5962 193.996 6.5962C193.718 6.5962 193.458 6.65085 193.215 6.76098C192.972 6.87069 192.758 7.01544 192.573 7.1944C192.388 7.37419 192.24 7.58485 192.131 7.82763C192.02 8.07083 191.966 8.33113 191.966 8.60854ZM199.01 4.20175V12.4947C199.01 12.9924 198.981 13.4375 198.923 13.8309C198.865 14.2238 198.784 14.5709 198.68 14.8716C198.541 15.2533 198.324 15.6092 198.029 15.9387C197.735 16.2683 197.379 16.5544 196.962 16.7976C196.546 17.0404 196.075 17.2315 195.549 17.37C195.022 17.5089 194.452 17.5781 193.84 17.5781C193.145 17.5781 192.509 17.4914 191.931 17.3178C191.353 17.1443 190.847 16.9044 190.413 16.5978C189.979 16.2912 189.623 15.9329 189.346 15.5224C189.068 15.1115 188.883 14.6635 188.791 14.1779H192.33C192.55 14.7678 193.047 15.0627 193.822 15.0627C194.482 15.0627 194.987 14.8775 195.34 14.5075C195.693 14.137 195.869 13.6227 195.869 12.9632V12.113C195.638 12.3329 195.415 12.5152 195.202 12.6595C194.987 12.8042 194.77 12.9227 194.551 13.0153C194.331 13.1079 194.1 13.1743 193.857 13.2147C193.614 13.2552 193.348 13.2756 193.059 13.2756C192.423 13.2756 191.839 13.1655 191.307 12.9461C190.774 12.7262 190.315 12.4196 189.927 12.0263C189.54 11.6333 189.239 11.1619 189.025 10.6125C188.811 10.0631 188.704 9.45285 188.704 8.78207C188.704 8.09962 188.82 7.46638 189.051 6.88237C189.282 6.29836 189.598 5.78943 189.996 5.35559C190.396 4.92176 190.87 4.58053 191.419 4.33191C191.969 4.08328 192.567 3.95897 193.215 3.95897C194.267 3.95897 195.152 4.35235 195.869 5.13868V4.20175H199.01Z" fill="#101828"/>
<path d="M207.078 7.35917C206.973 6.91991 206.759 6.567 206.436 6.30086C206.112 6.03472 205.718 5.90164 205.256 5.90164C204.77 5.90164 204.374 6.02929 204.067 6.28334C203.761 6.53822 203.567 6.89655 203.486 7.35917H207.078ZM203.4 9.18087C203.4 10.5341 204.035 11.2107 205.308 11.2107C205.99 11.2107 206.505 10.9333 206.852 10.3781H209.888C209.275 12.4138 207.742 13.4316 205.29 13.4316C204.538 13.4316 203.85 13.3186 203.226 13.0933C202.602 12.8677 202.066 12.5469 201.621 12.1301C201.176 11.7138 200.832 11.2166 200.589 10.638C200.346 10.0598 200.225 9.41239 200.225 8.69489C200.225 7.95486 200.34 7.287 200.571 6.69131C200.803 6.09562 201.132 5.58962 201.56 5.17288C201.988 4.75656 202.506 4.43578 203.113 4.2101C203.72 3.98484 204.406 3.87179 205.169 3.87179C205.921 3.87179 206.597 3.98484 207.199 4.2101C207.8 4.43578 208.309 4.76282 208.726 5.1904C209.142 5.6184 209.46 6.14192 209.68 6.76056C209.9 7.37961 210.01 8.07625 210.01 8.85132V9.18087H203.4Z" fill="#101828"/>
<path d="M221.427 5.04888H226.337V0.000100136H229.737V13.0815H226.337V7.68611H221.427V13.0815H218.026V0.000100136H221.427V5.04888Z" fill="#101828"/>
<path d="M234.092 4.18027V9.19401C234.092 10.2932 234.624 10.8426 235.688 10.8426C236.753 10.8426 237.285 10.2932 237.285 9.19401V4.18027H240.425V9.80138C240.425 11.0044 240.028 11.9067 239.237 12.5079C238.444 13.1094 237.262 13.4102 235.688 13.4102C234.115 13.4102 232.933 13.1094 232.141 12.5079C231.348 11.9067 230.952 11.0044 230.952 9.80138V4.18027H234.092Z" fill="#101828"/>
<path d="M248.734 8.65766C248.734 8.38026 248.682 8.11704 248.578 7.86841C248.474 7.61979 248.329 7.40287 248.145 7.21766C247.959 7.03286 247.745 6.88519 247.503 6.77506C247.26 6.66535 246.994 6.61029 246.705 6.61029C246.427 6.61029 246.167 6.66243 245.924 6.76672C245.681 6.87059 245.47 7.01534 245.29 7.20014C245.111 7.38535 244.967 7.60227 244.857 7.85089C244.747 8.09993 244.692 8.36274 244.692 8.64014C244.692 8.91797 244.744 9.17827 244.848 9.42105C244.952 9.66383 245.097 9.87533 245.282 10.0543C245.467 10.2337 245.684 10.3784 245.932 10.4881C246.181 10.5983 246.444 10.6529 246.722 10.6529C246.999 10.6529 247.26 10.6008 247.503 10.4969C247.745 10.3926 247.956 10.2483 248.136 10.063C248.315 9.87825 248.459 9.66383 248.57 9.42105C248.679 9.17827 248.734 8.92381 248.734 8.65766ZM244.779 0.000107765V5.06641C245.519 4.29134 246.444 3.90381 247.555 3.90381C248.214 3.90381 248.818 4.02812 249.368 4.27674C249.917 4.52578 250.385 4.86117 250.773 5.28333C251.16 5.70548 251.464 6.20273 251.684 6.77506C251.903 7.34781 252.014 7.9581 252.014 8.60552C252.014 9.26504 251.901 9.88367 251.675 10.4618C251.45 11.0404 251.134 11.5435 250.73 11.9715C250.325 12.3995 249.847 12.7378 249.298 12.9864C248.749 13.2351 248.156 13.3594 247.52 13.3594C246.363 13.3594 245.449 12.9372 244.779 12.0929V13.082H241.639V0.000107765H244.779Z" fill="#101828"/>
<path d="M75.5825 2.90013V13.1016H72.1819V2.90013H69.3887V0.0201206H78.3757V2.90013H75.5825Z" fill="#101828"/>
<path d="M79.5898 0.0201206H82.7301V5.3292C83.1577 4.8086 83.5916 4.45903 84.0312 4.27965C84.4709 4.10028 84.9857 4.01059 85.5755 4.01059C86.6972 4.01059 87.5445 4.32012 88.1172 4.93875C88.6896 5.5578 88.9761 6.39336 88.9761 7.44583V13.1016H85.8358V8.60801C85.8358 8.15707 85.8008 7.7929 85.7315 7.51507C85.6623 7.23767 85.5463 7.02367 85.3845 6.87308C85.1071 6.6303 84.7713 6.50891 84.3783 6.50891C83.846 6.50891 83.4385 6.66784 83.1552 6.98613C82.8716 7.30441 82.7301 7.75786 82.7301 8.34813V13.1016H79.5898V0.0201206Z" fill="#101828"/>
<path d="M97.0443 7.35917C96.9401 6.91991 96.7261 6.567 96.4024 6.30086C96.0786 6.03513 95.6853 5.90164 95.2227 5.90164C94.7367 5.90164 94.3404 6.02929 94.0342 6.28334C93.7276 6.53822 93.5336 6.89655 93.4531 7.35917H97.0443ZM93.3663 9.18087C93.3663 10.5341 94.0021 11.2107 95.2748 11.2107C95.9568 11.2107 96.4716 10.9333 96.8187 10.3781H99.8551C99.2419 12.4138 97.7093 13.4316 95.2573 13.4316C94.5052 13.4316 93.8173 13.3186 93.1928 13.0933C92.5683 12.8677 92.0331 12.5469 91.588 12.1301C91.1425 11.7138 90.7984 11.2166 90.5556 10.6384C90.3128 10.0602 90.1914 9.41239 90.1914 8.69531C90.1914 7.95486 90.307 7.287 90.5385 6.69131C90.7696 6.09562 91.0991 5.58962 91.5271 5.1733C91.9551 4.75656 92.4728 4.43578 93.0802 4.2101C93.6871 3.98484 94.3725 3.87179 95.1359 3.87179C95.8876 3.87179 96.5642 3.98484 97.1657 4.2101C97.7673 4.43578 98.2762 4.76282 98.6925 5.1904C99.1088 5.6184 99.4271 6.14192 99.6469 6.76056C99.8664 7.37961 99.9765 8.07667 99.9765 8.85132V9.18087H93.3663Z" fill="#101828"/>
</svg>
