<svg width="242" height="105" viewBox="0 0 242 105" fill="none" xmlns="http://www.w3.org/2000/svg">
<mask id="path-1-outside-1_1_5791" maskUnits="userSpaceOnUse" x="-5.84577" y="-3.60519" width="251.285" height="116.896" fill="black">
<rect fill="white" x="-5.84577" y="-3.60519" width="251.285" height="116.896"/>
<path d="M48.2453 41.3843C44.7321 41.0151 44.0191 37.6385 44.3586 34.4083C44.7017 31.1435 46.1018 27.984 49.615 28.3533C53.162 28.7261 53.8802 32.1082 53.5371 35.373C53.1976 38.6032 51.7924 41.7572 48.2453 41.3843ZM50.0576 24.1422C44.1312 23.5193 39.846 27.3657 39.1632 33.8622C38.4846 40.3185 41.8762 44.9739 47.8026 45.5968C53.7635 46.2233 58.0524 42.3752 58.731 35.9189C59.4138 29.4224 56.0185 24.7687 50.0576 24.1422Z"/>
<path d="M70.1013 47.3798L78.864 27.7229L73.265 27.1344L67.6822 41.6167L65.2317 26.2901L59.6328 25.7016L64.1171 46.7509L70.1013 47.3798Z"/>
<path d="M24.3985 67.5861C31.2957 68.311 34.2328 64.0005 34.7977 58.6259L36.3525 43.8329L33.9838 43.584L32.4869 57.8259C31.8805 63.9009 29.184 65.9496 24.6209 65.47C20.0577 64.9904 17.8454 62.4258 18.516 56.3575L20.0129 42.1156L17.6442 41.8666L16.0894 56.6596C15.5245 62.0342 17.5012 66.8612 24.3985 67.5861Z"/>
<path d="M56.6282 70.425L58.9341 70.6673L60.9186 51.7868L58.6126 51.5444L56.6282 70.425Z"/>
<path d="M71.3475 71.972L80.6165 53.8571L78.0559 53.588L70.2983 69.5325L66.024 52.3234L63.4633 52.0543L68.7635 71.7004L71.3475 71.972Z"/>
<path d="M125.228 77.6351L127.533 77.8774L129.518 58.9969L127.213 58.7546L125.228 77.6351Z"/>
<path d="M102.499 50.7881L103.641 39.9218C104.075 35.7898 105.46 34.2232 108.275 34.519C110.689 34.7728 111.434 36.5233 111.083 39.8693L109.854 51.5611L115.047 52.107L116.363 39.591C116.893 34.5494 115.851 31.0578 110.326 30.4771C108.135 30.2467 105.538 31.1045 104.082 33.2423L104.381 30.4043L99.4429 29.8854L97.3033 50.242L102.499 50.7881Z"/>
<path d="M126.239 27.6014L120.854 28.8589L120.513 32.099L118.537 31.8913L118.143 35.6324L120.12 35.8401L119.013 46.3698C118.495 51.3013 121.1 52.982 124.286 53.3168C125.212 53.4141 126.237 53.4898 127.089 53.4538L127.548 49.0882C127.082 49.1192 126.64 49.1048 126.172 49.0556C124.417 48.8711 124.057 48.3567 124.462 44.5006L125.315 36.3883L128.844 36.7592L129.237 33.0159L125.708 32.6451L126.239 27.6014Z"/>
<path d="M39.7116 68.647L40.8693 57.6325C41.3295 53.9462 43.8175 51.3976 47.4725 51.7818C51.2051 52.1741 52.0075 54.7347 51.6651 57.9924L50.4269 69.7732L52.7335 70.0156L54.0103 57.8679C54.4829 53.3711 52.8457 50.3847 47.862 49.8609C45.2753 49.589 42.3047 50.919 41.2268 53.0972L41.5782 49.754L39.3887 49.5239L37.4043 68.4044L39.7116 68.647Z"/>
<path d="M101.51 75.1422L102.568 65.0768C102.979 61.1671 105.928 58.2932 110.334 58.7562L110.576 56.4509C106.923 56.067 104.404 57.7656 102.913 60.6793L103.379 56.2495L101.189 56.0193L99.2042 74.8999L101.51 75.1422Z"/>
<path d="M113.423 61.7821C113.687 59.2758 115.896 58.9058 118.497 59.1793C119.897 59.3264 121.714 59.9717 122.97 60.8086L123.204 58.5789C121.514 57.8213 119.447 57.3836 118.413 57.2749C114.906 56.9063 111.435 57.9047 111.053 61.533C110.417 67.5884 120.883 67.5677 120.397 72.1965C120.139 74.6449 117.446 75.4705 115.045 75.2182C113.084 75.0121 111.24 74.2789 109.794 73.4086L109.552 75.7116C111.223 76.4993 113.134 76.912 115.008 77.1091C118.09 77.4329 122.338 76.4811 122.762 72.4451C123.442 65.9782 113.033 65.4949 113.423 61.7821Z"/>
<path d="M148.968 80.1301C146.749 84.2857 144.308 86.4583 141.529 86.4665L140.948 84.5891C143.844 84.4719 145.454 81.9923 146.631 79.8844L145.307 79.7453L140.489 61.9669L136.62 61.5602L135.401 73.1582C135.188 75.1882 135.085 76.8503 136.696 77.0197C137.133 77.0656 137.896 77.1522 138.495 77.1517L138.291 79.0899C137.609 79.0625 136.894 79.0052 136.422 78.9555C133.417 78.6398 132.706 76.6181 133.086 73.0054L134.314 61.3178L131.844 61.0583L132.033 59.2597L134.503 59.5192L134.939 55.3752L137.264 55.6196L136.828 59.7636L142.586 60.3688L147.385 78.3686L156.062 61.7852L158.621 62.0542L148.968 80.1301Z"/>
<path d="M155.846 35.8123L149.499 50.215L146.254 34.8041L141.957 34.3525C138.339 33.9722 136.682 35.8448 135.931 37.5016L136.325 33.7605L131.387 33.2416L129.248 53.5961L134.443 54.1421L135.402 45.0109C135.873 40.5317 137.881 38.5911 141.594 38.9043L145.296 55.2828L147.352 55.4989C146.287 57.8325 145.632 58.9957 144.392 59.6594L145.623 64.2739L145.623 64.2754C148.273 63.7121 150.748 59.7082 152.171 56.773L161.304 36.3859L155.846 35.8123Z"/>
<path d="M33.4904 35.0449C32.4578 37.4504 30.5333 38.9003 27.7885 38.6118C22.8747 38.0954 21.4882 33.5109 21.9455 29.1601C22.4262 24.5864 24.7355 20.3911 29.6493 20.9075C32.2403 21.1799 34.3226 23.2172 34.5733 25.6919L39.7052 24.4934C38.8223 19.6173 34.9628 16.5828 30.157 16.0777C22.456 15.2683 17.291 20.8278 16.4756 28.5852C15.684 36.1175 19.5803 42.6295 27.2812 43.4389C32.2141 43.9573 36.2488 41.6184 38.2657 37.2868L33.4904 35.0449Z"/>
<path d="M87.6544 32.3516C90.1755 32.6165 91.2456 34.2521 91.332 37.1155L82.8803 36.2272C83.1217 34.6638 84.3628 32.0056 87.6544 32.3516ZM90.6949 43.7481C89.9789 44.7572 88.3924 45.6042 86.6115 45.417C83.7241 45.1135 82.2835 43.3313 82.5079 39.7707L96.1536 41.205C97.1799 34.9828 94.6796 28.8324 88.2438 28.1559C82.5008 27.5523 78.0974 31.7844 77.456 37.8865C76.7937 44.1882 80.0251 48.983 85.9889 49.6098C89.6298 49.9925 92.5739 48.7988 94.5871 45.5747L90.6949 43.7481Z"/>
<path d="M89.4332 56.1923C93.1645 56.5844 94.977 60.0687 94.724 63.5549L82.5044 62.2705C83.234 58.8716 85.6625 55.796 89.4332 56.1923ZM93.6018 69.3182C92.4585 71.3653 90.5676 72.5834 87.7417 72.2864C83.3126 71.8209 81.9844 67.5771 82.3007 64.2081L96.8249 65.7347C97.5626 60.446 95.7048 54.8889 89.6373 54.2512C83.6368 53.6205 80.5816 58.3695 80.0585 63.3461C79.4938 68.7186 81.5378 73.5912 87.5383 74.2218C91.4868 74.6369 94.0466 73.1702 95.6277 70.2695L93.6018 69.3182Z"/>
<path d="M216.117 66.4741C213.093 67.098 209.995 67.7312 207.057 68.7251C205.91 69.0747 204.732 69.6478 203.627 70.2051C203.355 68.6477 203.969 67.0094 205.198 66.2475C206.009 66.9862 207.048 67.435 208.261 67.3841C210.636 67.362 212.183 65.3587 213.319 63.2516C215.086 62.6297 216.871 62.0226 218.513 61.16C218.025 62.8851 217.196 64.6379 216.432 66.2355C216.341 66.4 216.401 66.4248 216.117 66.4741ZM204.281 71.7277C207.481 70.7729 211.703 69.7677 214.972 69.1125C213.449 71.1762 207.601 75.0723 204.281 71.7277ZM212.637 63.4474C211.956 64.6264 210.971 66.0375 209.727 66.598C208.501 67.2068 206.563 66.9446 205.56 65.9738C207.478 64.7457 210.398 64.0696 212.637 63.4474ZM215.496 53.7083C215.17 56.0096 214.669 58.0523 213.821 60.0777C213.026 60.4656 206.689 62.8437 204.993 64.9883C204.001 60.4438 212.852 56.4174 215.496 53.7083ZM216.151 53.0851C216.879 52.3811 218.455 50.1776 218.688 49.667C219.961 47.3539 220.292 44.6556 220.361 43.5528C220.582 44.679 220.661 45.853 220.674 47.0194C220.766 50.6289 220.101 54.4619 219.277 58.0593C217.735 58.846 216.162 59.3592 214.57 59.8518C215.293 57.6906 215.923 55.5695 216.151 53.0851ZM209.818 77.3377C208.532 78.3633 206.9 79.5294 205.531 80.6475C203.2 79.5963 200.406 79.0081 197.78 79.2393C197.861 78.3468 197.991 77.6071 198.367 76.7799C201.972 76.444 206.053 77.0712 209.818 77.3377ZM207.442 84.212C206.02 85.234 203.419 85.7467 201.045 84.8417L204.063 82.8839C205.194 83.4592 206.28 83.7353 207.442 84.212ZM200.579 84.63C200.579 84.63 198.497 83.2184 197.789 80.2525C199.75 80.6227 201.826 81.8133 203.544 82.6138C203.544 82.6138 201.497 83.9981 200.579 84.63ZM194.775 85.5881C195.474 84.0314 195.602 82.2485 195.161 80.537C195.259 80.4817 196.626 80.1068 197.271 80.2224C198.101 83.4407 200.066 84.6831 200.22 84.8784C198.646 85.8415 196.582 86.2481 194.775 85.5881ZM194.126 85.2359C191.738 82.6464 194.265 80.8823 194.636 80.7608C194.909 82.1172 194.747 84.0071 194.126 85.2359ZM187.443 84.7176C190.75 82.753 189.347 80.4632 188.338 79.2978C188.636 78.8425 188.973 78.278 189.62 77.8088C190.217 78.4729 190.384 79.4057 190.363 80.4258C190.512 80.4472 190.494 80.4368 190.781 80.4791C190.956 79.4017 190.598 78.3025 190.054 77.4193C190.482 77.1004 191.67 76.2679 192.018 76.1561C192.523 76.6971 192.921 77.224 193.383 77.9189C193.383 77.9189 191.944 79.0797 191.834 80.6283L192.229 80.6862C192.503 79.896 192.489 79.3552 193.693 78.4124C194.083 78.9806 194.364 79.5523 194.491 80.2048C193.786 80.6736 190.916 82.7133 193.872 85.66C189.878 90.5023 187.448 84.9849 187.443 84.7176ZM188.071 79.7919C190.146 82.233 188.097 83.8004 187.3 84.2245C187.3 84.2245 186.915 82.0631 188.071 79.7919ZM186.559 84.3942C184.647 84.4822 182.735 83.3659 181.559 82.1958C184.444 80.9573 185.463 78.7402 185.696 78.5256C186.429 78.699 187.045 79.0113 187.61 79.4282C186.933 80.584 186.201 82.6188 186.559 84.3942ZM178.996 79.0913C180.92 78.7835 183.058 78.2562 185.137 78.4391C185.114 78.727 183.131 81.2082 181.272 81.8339C180.512 80.9321 178.996 79.0913 178.996 79.0913ZM174.805 79.5568C175.092 79.5556 177.32 79.3561 178.403 79.2002C179.121 80.0783 179.988 81.0725 180.759 81.9418C180.759 81.9418 176.994 82.1961 174.805 79.5568ZM174.464 72.2986C176.97 72.7674 184.063 74.0779 185.56 74.9238C185.72 75.6825 185.61 76.706 185.46 77.4458C183.048 76.5745 180.108 76.2069 177.601 76.6383C177.601 76.6383 175.434 73.6661 174.464 72.2986ZM186.191 75.1669C187.312 75.5708 188.399 76.5312 189.287 77.3465C188.636 77.9143 188.361 78.2893 187.97 78.908C187.408 78.3888 186.962 78.1187 185.92 77.6339C186.098 76.8522 186.197 75.958 186.191 75.1669ZM182.722 67.5C183.704 65.677 183.447 64.1919 182.693 62.2977C185.898 58.8729 182.87 53.4045 180.572 50.5577C179.385 49.0033 176.589 45.1995 176.384 44.7677C176.422 38.7171 179.871 33.7248 180.13 33.3148C178.371 36.2646 177.187 40.5603 184.288 51.5554C185.547 53.5054 187.318 55.7433 186.944 58.3763C186.653 60.7513 184.542 62.4606 184.578 64.6346C184.633 66.0814 185.301 67.3644 186.79 67.8119C188.377 68.2906 189.747 67.9637 190.894 66.9407C194.655 62.9835 189.89 59.2995 190.322 55.0018C190.487 53.3676 191.537 52.4777 193.018 52.1062C194.045 51.9238 195.39 51.7641 196.1 52.6456C195.811 52.648 195.231 52.6926 194.505 52.9624L194.512 52.9837C194.436 52.8438 194.295 52.7427 194.126 52.7249C193.852 52.6961 193.608 52.8938 193.58 53.1654C193.572 53.2416 193.582 53.3141 193.607 53.3816C193.659 53.574 193.818 53.7377 194.111 53.7121C194.122 53.7111 194.134 53.7095 194.145 53.7079C194.245 53.694 194.356 53.6608 194.485 53.6001C195.175 53.2746 195.968 53.2138 196.331 53.2035L196.332 53.2057C199.441 53.3093 198.424 54.8746 198.424 54.8746C198.424 54.8746 196.179 53.2782 193.625 55.2419C189.761 58.7402 204.812 68.0404 192.005 75.4877C191.555 74.9838 190.132 73.7998 189.169 73.2741C189.067 73.3825 189.005 73.4737 188.924 73.5722C189.891 74.1583 190.859 74.9064 191.595 75.7007C190.818 76.112 190.397 76.4444 189.769 76.932C188.817 75.7425 187.678 74.7304 186.202 73.9125C185.698 71.4932 184.361 69.3216 182.722 67.5ZM182.368 67.0883C179.807 64.7031 175.464 62.1029 171.196 59.9436C170.907 58.8516 170.57 54.931 170.586 54.315C171.744 55.4833 173.513 56.8827 175.032 57.8506C176.402 64.7862 180.992 63.4159 181.96 62.9055C182.973 64.1235 183.025 65.6078 182.368 67.0883ZM171.782 62.9351C173.961 63.9946 180.766 68.0392 181.291 68.4261C180.469 69.113 175.591 70.3096 171.782 62.9351ZM173.236 37.7452C173.01 38.9835 172.825 42.1136 175.074 47.2404C174.706 49.5145 174.644 51.8979 174.729 54.1227C173.291 53.2175 172.071 52.1311 170.715 51.1346C170.791 49.1886 172.034 39.7497 173.236 37.7452ZM181.666 62.5258C181.315 62.7892 176.875 64.268 175.609 58.1717C177.611 59.3501 180.092 60.8501 181.666 62.5258ZM175.568 48.0178C176.59 50.1648 184.782 57.851 182.495 61.6862C180.608 58.3903 175.553 54.9091 175.372 54.6176C175.173 52.5542 175.298 50.2173 175.568 48.0178ZM197.703 76.8428C197.524 77.6437 197.396 77.9633 197.296 79.2976C196.491 79.4134 195.647 79.5751 194.967 79.9481C194.772 79.2691 194.492 78.6497 194.131 78.0789C194.131 78.0789 195.92 77.0656 197.703 76.8428ZM221.513 72.2969C222.807 74.5823 215.796 75.6911 212.81 75.4685C212.81 75.4685 219.629 70.0864 221.513 72.2969ZM216.108 82.1779C216.24 83.1328 213.229 84.9658 209.757 82.8003C213.573 80.5982 216.051 80.9406 216.108 82.1779ZM167 75.3785C167.606 72.9674 172.041 76.4192 172.971 77.5349C171.323 78.1401 166.802 77.6306 167 75.3785ZM164.424 64.374C166.202 62.3487 170.628 67.6628 172.072 69.6451C171.155 69.4125 162.841 66.6602 164.424 64.374ZM217.105 66.2385C218.743 62.937 218.631 62.5578 219.269 60.8529C223.562 59.1318 225.05 53.9448 225.061 53.3659C225.142 51.7821 225.129 52.6619 224.919 53.182C224.305 54.7019 222.64 56.3111 221.195 57.2022C220.834 57.374 220.388 57.6924 219.943 57.8297C220.192 56.3876 222.733 47.3906 219.889 39.9512L219.865 39.968C220.64 43.6364 218.687 47.3548 216.288 49.7644C216.297 49.2624 216.454 40.0125 212.898 34.9789L212.603 34.5198C213.111 35.5591 213.264 41.2239 209.476 46.3111C207.584 48.6148 205.123 50.5356 202.939 52.5297C200.855 54.6485 199.74 56.7978 200.18 60.9239C200.352 62.0421 200.633 63.7517 201.083 64.1842C201.359 64.3338 201.355 63.9589 201.281 63.7199C200.902 62.6156 200.597 58.3568 205.877 53.4128C214.746 45.1122 213.391 36.8755 213.391 36.8755C214.518 38.3551 215.797 46.1629 215.585 50.3375C212.824 52.9202 203.282 58.3415 204.108 63.519C204.194 64.1994 204.399 64.8801 204.652 65.4567C203.282 67.2112 202.739 68.5759 203.165 70.474C201.243 71.7188 199.11 73.4686 198.065 75.6238C196.584 76.0054 195.152 76.5554 193.788 77.5471C193.357 76.9502 193.008 76.4584 192.475 75.9572C192.868 75.7795 196.612 74.2412 198.161 72.9187C199.663 71.6554 200.68 69.7948 200.394 67.5989C199.894 63.7275 191.977 57.8788 193.992 55.884C195.047 54.8192 197.201 54.4927 198.327 55.4629L198.327 55.4607C198.327 55.4607 198.336 55.4702 198.349 55.4795C198.357 55.4845 198.36 55.4884 198.37 55.4974L198.367 55.4985C198.43 55.5543 198.549 55.6696 198.601 55.7378C199.248 54.9761 200.043 52.9309 196.755 52.6102C196.563 51.913 195.784 51.5772 195.089 51.4136C193.001 51.05 190.878 51.7772 189.914 53.5214C188.693 55.7159 191.057 61.0908 190.52 64.346C190.35 67.1503 184.565 68.4199 185.106 64.0759C185.349 62.126 190.467 57.3063 186.888 50.74C185.532 48.4694 183.881 46.3184 182.523 44.1503C177.568 36.2393 181.549 31.1725 181.483 31.1612C175.138 37.7931 175.805 43.8928 175.693 43.6001C175.397 42.8862 172.648 38.7999 174.688 34.0968C174.688 34.0968 170.784 38.0689 170.083 50.6566C169.523 50.2318 166.26 46.5929 166.657 44.1635C166.657 44.1635 165.26 49.4534 169.925 53.8452C170.108 55.8599 170.051 57.5725 170.491 59.5848C168.606 58.6698 165.817 56.0388 165.05 53.773C164.953 53.3612 165.12 58.7528 170.894 62.4394C174.909 71.3602 180.625 69.6951 181.861 68.7086C183.382 69.4834 185.351 73.0641 185.419 73.5427C182.31 72.1858 177.202 70.4226 173.154 69.8601C171.101 67.3073 166.48 61.9106 164.045 64.0231C161.385 66.7905 169.193 71.1474 173.402 72.0435C174.418 73.3752 175.926 75.2231 176.903 76.7347C175.569 76.9213 175.355 76.9936 173.492 77.4406C167.918 71.7989 166.639 75.103 166.639 75.103C165.289 79.0917 173.179 79.7005 174.118 79.5745C176.131 82.1531 179.44 82.7107 181.1 82.3665C183.248 84.8181 185.786 85.0128 186.582 84.9017C188.547 91.1415 193.321 88.6876 194.642 86.062C196.829 86.8883 198.825 86.1806 200.63 85.1525C201.72 85.6666 204.847 86.5703 208.084 84.4279C215.53 86.6837 216.753 82.7287 216.455 81.9113C215.588 79.5365 210.686 81.6195 209.271 82.5759C207.998 81.8792 207.444 81.4393 206.196 80.9278C207.679 79.6141 209.363 78.4628 210.878 77.4028C226.371 77.9126 225.173 65.2116 211.803 75.4005C208.272 74.9987 202.759 74.9022 198.893 75.5103C198.893 75.1993 201.591 72.4417 203.684 71.8462C207.076 75.6199 213.026 72.841 215.93 68.8693C219.775 67.8609 222.565 65.3584 223.783 62.6L224.018 62.1224C223.092 63.4527 220.094 65.7971 217.105 66.2385Z"/>
</mask>
<path d="M48.2453 41.3843C44.7321 41.0151 44.0191 37.6385 44.3586 34.4083C44.7017 31.1435 46.1018 27.984 49.615 28.3533C53.162 28.7261 53.8802 32.1082 53.5371 35.373C53.1976 38.6032 51.7924 41.7572 48.2453 41.3843ZM50.0576 24.1422C44.1312 23.5193 39.846 27.3657 39.1632 33.8622C38.4846 40.3185 41.8762 44.9739 47.8026 45.5968C53.7635 46.2233 58.0524 42.3752 58.731 35.9189C59.4138 29.4224 56.0185 24.7687 50.0576 24.1422Z" fill="white"/>
<path d="M70.1013 47.3798L78.864 27.7229L73.265 27.1344L67.6822 41.6167L65.2317 26.2901L59.6328 25.7016L64.1171 46.7509L70.1013 47.3798Z" fill="white"/>
<path d="M24.3985 67.5861C31.2957 68.311 34.2328 64.0005 34.7977 58.6259L36.3525 43.8329L33.9838 43.584L32.4869 57.8259C31.8805 63.9009 29.184 65.9496 24.6209 65.47C20.0577 64.9904 17.8454 62.4258 18.516 56.3575L20.0129 42.1156L17.6442 41.8666L16.0894 56.6596C15.5245 62.0342 17.5012 66.8612 24.3985 67.5861Z" fill="white"/>
<path d="M56.6282 70.425L58.9341 70.6673L60.9186 51.7868L58.6126 51.5444L56.6282 70.425Z" fill="white"/>
<path d="M71.3475 71.972L80.6165 53.8571L78.0559 53.588L70.2983 69.5325L66.024 52.3234L63.4633 52.0543L68.7635 71.7004L71.3475 71.972Z" fill="white"/>
<path d="M125.228 77.6351L127.533 77.8774L129.518 58.9969L127.213 58.7546L125.228 77.6351Z" fill="white"/>
<path d="M102.499 50.7881L103.641 39.9218C104.075 35.7898 105.46 34.2232 108.275 34.519C110.689 34.7728 111.434 36.5233 111.083 39.8693L109.854 51.5611L115.047 52.107L116.363 39.591C116.893 34.5494 115.851 31.0578 110.326 30.4771C108.135 30.2467 105.538 31.1045 104.082 33.2423L104.381 30.4043L99.4429 29.8854L97.3033 50.242L102.499 50.7881Z" fill="white"/>
<path d="M126.239 27.6014L120.854 28.8589L120.513 32.099L118.537 31.8913L118.143 35.6324L120.12 35.8401L119.013 46.3698C118.495 51.3013 121.1 52.982 124.286 53.3168C125.212 53.4141 126.237 53.4898 127.089 53.4538L127.548 49.0882C127.082 49.1192 126.64 49.1048 126.172 49.0556C124.417 48.8711 124.057 48.3567 124.462 44.5006L125.315 36.3883L128.844 36.7592L129.237 33.0159L125.708 32.6451L126.239 27.6014Z" fill="white"/>
<path d="M39.7116 68.647L40.8693 57.6325C41.3295 53.9462 43.8175 51.3976 47.4725 51.7818C51.2051 52.1741 52.0075 54.7347 51.6651 57.9924L50.4269 69.7732L52.7335 70.0156L54.0103 57.8679C54.4829 53.3711 52.8457 50.3847 47.862 49.8609C45.2753 49.589 42.3047 50.919 41.2268 53.0972L41.5782 49.754L39.3887 49.5239L37.4043 68.4044L39.7116 68.647Z" fill="white"/>
<path d="M101.51 75.1422L102.568 65.0768C102.979 61.1671 105.928 58.2932 110.334 58.7562L110.576 56.4509C106.923 56.067 104.404 57.7656 102.913 60.6793L103.379 56.2495L101.189 56.0193L99.2042 74.8999L101.51 75.1422Z" fill="white"/>
<path d="M113.423 61.7821C113.687 59.2758 115.896 58.9058 118.497 59.1793C119.897 59.3264 121.714 59.9717 122.97 60.8086L123.204 58.5789C121.514 57.8213 119.447 57.3836 118.413 57.2749C114.906 56.9063 111.435 57.9047 111.053 61.533C110.417 67.5884 120.883 67.5677 120.397 72.1965C120.139 74.6449 117.446 75.4705 115.045 75.2182C113.084 75.0121 111.24 74.2789 109.794 73.4086L109.552 75.7116C111.223 76.4993 113.134 76.912 115.008 77.1091C118.09 77.4329 122.338 76.4811 122.762 72.4451C123.442 65.9782 113.033 65.4949 113.423 61.7821Z" fill="white"/>
<path d="M148.968 80.1301C146.749 84.2857 144.308 86.4583 141.529 86.4665L140.948 84.5891C143.844 84.4719 145.454 81.9923 146.631 79.8844L145.307 79.7453L140.489 61.9669L136.62 61.5602L135.401 73.1582C135.188 75.1882 135.085 76.8503 136.696 77.0197C137.133 77.0656 137.896 77.1522 138.495 77.1517L138.291 79.0899C137.609 79.0625 136.894 79.0052 136.422 78.9555C133.417 78.6398 132.706 76.6181 133.086 73.0054L134.314 61.3178L131.844 61.0583L132.033 59.2597L134.503 59.5192L134.939 55.3752L137.264 55.6196L136.828 59.7636L142.586 60.3688L147.385 78.3686L156.062 61.7852L158.621 62.0542L148.968 80.1301Z" fill="white"/>
<path d="M155.846 35.8123L149.499 50.215L146.254 34.8041L141.957 34.3525C138.339 33.9722 136.682 35.8448 135.931 37.5016L136.325 33.7605L131.387 33.2416L129.248 53.5961L134.443 54.1421L135.402 45.0109C135.873 40.5317 137.881 38.5911 141.594 38.9043L145.296 55.2828L147.352 55.4989C146.287 57.8325 145.632 58.9957 144.392 59.6594L145.623 64.2739L145.623 64.2754C148.273 63.7121 150.748 59.7082 152.171 56.773L161.304 36.3859L155.846 35.8123Z" fill="white"/>
<path d="M33.4904 35.0449C32.4578 37.4504 30.5333 38.9003 27.7885 38.6118C22.8747 38.0954 21.4882 33.5109 21.9455 29.1601C22.4262 24.5864 24.7355 20.3911 29.6493 20.9075C32.2403 21.1799 34.3226 23.2172 34.5733 25.6919L39.7052 24.4934C38.8223 19.6173 34.9628 16.5828 30.157 16.0777C22.456 15.2683 17.291 20.8278 16.4756 28.5852C15.684 36.1175 19.5803 42.6295 27.2812 43.4389C32.2141 43.9573 36.2488 41.6184 38.2657 37.2868L33.4904 35.0449Z" fill="white"/>
<path d="M87.6544 32.3516C90.1755 32.6165 91.2456 34.2521 91.332 37.1155L82.8803 36.2272C83.1217 34.6638 84.3628 32.0056 87.6544 32.3516ZM90.6949 43.7481C89.9789 44.7572 88.3924 45.6042 86.6115 45.417C83.7241 45.1135 82.2835 43.3313 82.5079 39.7707L96.1536 41.205C97.1799 34.9828 94.6796 28.8324 88.2438 28.1559C82.5008 27.5523 78.0974 31.7844 77.456 37.8865C76.7937 44.1882 80.0251 48.983 85.9889 49.6098C89.6298 49.9925 92.5739 48.7988 94.5871 45.5747L90.6949 43.7481Z" fill="white"/>
<path d="M89.4332 56.1923C93.1645 56.5844 94.977 60.0687 94.724 63.5549L82.5044 62.2705C83.234 58.8716 85.6625 55.796 89.4332 56.1923ZM93.6018 69.3182C92.4585 71.3653 90.5676 72.5834 87.7417 72.2864C83.3126 71.8209 81.9844 67.5771 82.3007 64.2081L96.8249 65.7347C97.5626 60.446 95.7048 54.8889 89.6373 54.2512C83.6368 53.6205 80.5816 58.3695 80.0585 63.3461C79.4938 68.7186 81.5378 73.5912 87.5383 74.2218C91.4868 74.6369 94.0466 73.1702 95.6277 70.2695L93.6018 69.3182Z" fill="white"/>
<path d="M216.117 66.4741C213.093 67.098 209.995 67.7312 207.057 68.7251C205.91 69.0747 204.732 69.6478 203.627 70.2051C203.355 68.6477 203.969 67.0094 205.198 66.2475C206.009 66.9862 207.048 67.435 208.261 67.3841C210.636 67.362 212.183 65.3587 213.319 63.2516C215.086 62.6297 216.871 62.0226 218.513 61.16C218.025 62.8851 217.196 64.6379 216.432 66.2355C216.341 66.4 216.401 66.4248 216.117 66.4741ZM204.281 71.7277C207.481 70.7729 211.703 69.7677 214.972 69.1125C213.449 71.1762 207.601 75.0723 204.281 71.7277ZM212.637 63.4474C211.956 64.6264 210.971 66.0375 209.727 66.598C208.501 67.2068 206.563 66.9446 205.56 65.9738C207.478 64.7457 210.398 64.0696 212.637 63.4474ZM215.496 53.7083C215.17 56.0096 214.669 58.0523 213.821 60.0777C213.026 60.4656 206.689 62.8437 204.993 64.9883C204.001 60.4438 212.852 56.4174 215.496 53.7083ZM216.151 53.0851C216.879 52.3811 218.455 50.1776 218.688 49.667C219.961 47.3539 220.292 44.6556 220.361 43.5528C220.582 44.679 220.661 45.853 220.674 47.0194C220.766 50.6289 220.101 54.4619 219.277 58.0593C217.735 58.846 216.162 59.3592 214.57 59.8518C215.293 57.6906 215.923 55.5695 216.151 53.0851ZM209.818 77.3377C208.532 78.3633 206.9 79.5294 205.531 80.6475C203.2 79.5963 200.406 79.0081 197.78 79.2393C197.861 78.3468 197.991 77.6071 198.367 76.7799C201.972 76.444 206.053 77.0712 209.818 77.3377ZM207.442 84.212C206.02 85.234 203.419 85.7467 201.045 84.8417L204.063 82.8839C205.194 83.4592 206.28 83.7353 207.442 84.212ZM200.579 84.63C200.579 84.63 198.497 83.2184 197.789 80.2525C199.75 80.6227 201.826 81.8133 203.544 82.6138C203.544 82.6138 201.497 83.9981 200.579 84.63ZM194.775 85.5881C195.474 84.0314 195.602 82.2485 195.161 80.537C195.259 80.4817 196.626 80.1068 197.271 80.2224C198.101 83.4407 200.066 84.6831 200.22 84.8784C198.646 85.8415 196.582 86.2481 194.775 85.5881ZM194.126 85.2359C191.738 82.6464 194.265 80.8823 194.636 80.7608C194.909 82.1172 194.747 84.0071 194.126 85.2359ZM187.443 84.7176C190.75 82.753 189.347 80.4632 188.338 79.2978C188.636 78.8425 188.973 78.278 189.62 77.8088C190.217 78.4729 190.384 79.4057 190.363 80.4258C190.512 80.4472 190.494 80.4368 190.781 80.4791C190.956 79.4017 190.598 78.3025 190.054 77.4193C190.482 77.1004 191.67 76.2679 192.018 76.1561C192.523 76.6971 192.921 77.224 193.383 77.9189C193.383 77.9189 191.944 79.0797 191.834 80.6283L192.229 80.6862C192.503 79.896 192.489 79.3552 193.693 78.4124C194.083 78.9806 194.364 79.5523 194.491 80.2048C193.786 80.6736 190.916 82.7133 193.872 85.66C189.878 90.5023 187.448 84.9849 187.443 84.7176ZM188.071 79.7919C190.146 82.233 188.097 83.8004 187.3 84.2245C187.3 84.2245 186.915 82.0631 188.071 79.7919ZM186.559 84.3942C184.647 84.4822 182.735 83.3659 181.559 82.1958C184.444 80.9573 185.463 78.7402 185.696 78.5256C186.429 78.699 187.045 79.0113 187.61 79.4282C186.933 80.584 186.201 82.6188 186.559 84.3942ZM178.996 79.0913C180.92 78.7835 183.058 78.2562 185.137 78.4391C185.114 78.727 183.131 81.2082 181.272 81.8339C180.512 80.9321 178.996 79.0913 178.996 79.0913ZM174.805 79.5568C175.092 79.5556 177.32 79.3561 178.403 79.2002C179.121 80.0783 179.988 81.0725 180.759 81.9418C180.759 81.9418 176.994 82.1961 174.805 79.5568ZM174.464 72.2986C176.97 72.7674 184.063 74.0779 185.56 74.9238C185.72 75.6825 185.61 76.706 185.46 77.4458C183.048 76.5745 180.108 76.2069 177.601 76.6383C177.601 76.6383 175.434 73.6661 174.464 72.2986ZM186.191 75.1669C187.312 75.5708 188.399 76.5312 189.287 77.3465C188.636 77.9143 188.361 78.2893 187.97 78.908C187.408 78.3888 186.962 78.1187 185.92 77.6339C186.098 76.8522 186.197 75.958 186.191 75.1669ZM182.722 67.5C183.704 65.677 183.447 64.1919 182.693 62.2977C185.898 58.8729 182.87 53.4045 180.572 50.5577C179.385 49.0033 176.589 45.1995 176.384 44.7677C176.422 38.7171 179.871 33.7248 180.13 33.3148C178.371 36.2646 177.187 40.5603 184.288 51.5554C185.547 53.5054 187.318 55.7433 186.944 58.3763C186.653 60.7513 184.542 62.4606 184.578 64.6346C184.633 66.0814 185.301 67.3644 186.79 67.8119C188.377 68.2906 189.747 67.9637 190.894 66.9407C194.655 62.9835 189.89 59.2995 190.322 55.0018C190.487 53.3676 191.537 52.4777 193.018 52.1062C194.045 51.9238 195.39 51.7641 196.1 52.6456C195.811 52.648 195.231 52.6926 194.505 52.9624L194.512 52.9837C194.436 52.8438 194.295 52.7427 194.126 52.7249C193.852 52.6961 193.608 52.8938 193.58 53.1654C193.572 53.2416 193.582 53.3141 193.607 53.3816C193.659 53.574 193.818 53.7377 194.111 53.7121C194.122 53.7111 194.134 53.7095 194.145 53.7079C194.245 53.694 194.356 53.6608 194.485 53.6001C195.175 53.2746 195.968 53.2138 196.331 53.2035L196.332 53.2057C199.441 53.3093 198.424 54.8746 198.424 54.8746C198.424 54.8746 196.179 53.2782 193.625 55.2419C189.761 58.7402 204.812 68.0404 192.005 75.4877C191.555 74.9838 190.132 73.7998 189.169 73.2741C189.067 73.3825 189.005 73.4737 188.924 73.5722C189.891 74.1583 190.859 74.9064 191.595 75.7007C190.818 76.112 190.397 76.4444 189.769 76.932C188.817 75.7425 187.678 74.7304 186.202 73.9125C185.698 71.4932 184.361 69.3216 182.722 67.5ZM182.368 67.0883C179.807 64.7031 175.464 62.1029 171.196 59.9436C170.907 58.8516 170.57 54.931 170.586 54.315C171.744 55.4833 173.513 56.8827 175.032 57.8506C176.402 64.7862 180.992 63.4159 181.96 62.9055C182.973 64.1235 183.025 65.6078 182.368 67.0883ZM171.782 62.9351C173.961 63.9946 180.766 68.0392 181.291 68.4261C180.469 69.113 175.591 70.3096 171.782 62.9351ZM173.236 37.7452C173.01 38.9835 172.825 42.1136 175.074 47.2404C174.706 49.5145 174.644 51.8979 174.729 54.1227C173.291 53.2175 172.071 52.1311 170.715 51.1346C170.791 49.1886 172.034 39.7497 173.236 37.7452ZM181.666 62.5258C181.315 62.7892 176.875 64.268 175.609 58.1717C177.611 59.3501 180.092 60.8501 181.666 62.5258ZM175.568 48.0178C176.59 50.1648 184.782 57.851 182.495 61.6862C180.608 58.3903 175.553 54.9091 175.372 54.6176C175.173 52.5542 175.298 50.2173 175.568 48.0178ZM197.703 76.8428C197.524 77.6437 197.396 77.9633 197.296 79.2976C196.491 79.4134 195.647 79.5751 194.967 79.9481C194.772 79.2691 194.492 78.6497 194.131 78.0789C194.131 78.0789 195.92 77.0656 197.703 76.8428ZM221.513 72.2969C222.807 74.5823 215.796 75.6911 212.81 75.4685C212.81 75.4685 219.629 70.0864 221.513 72.2969ZM216.108 82.1779C216.24 83.1328 213.229 84.9658 209.757 82.8003C213.573 80.5982 216.051 80.9406 216.108 82.1779ZM167 75.3785C167.606 72.9674 172.041 76.4192 172.971 77.5349C171.323 78.1401 166.802 77.6306 167 75.3785ZM164.424 64.374C166.202 62.3487 170.628 67.6628 172.072 69.6451C171.155 69.4125 162.841 66.6602 164.424 64.374ZM217.105 66.2385C218.743 62.937 218.631 62.5578 219.269 60.8529C223.562 59.1318 225.05 53.9448 225.061 53.3659C225.142 51.7821 225.129 52.6619 224.919 53.182C224.305 54.7019 222.64 56.3111 221.195 57.2022C220.834 57.374 220.388 57.6924 219.943 57.8297C220.192 56.3876 222.733 47.3906 219.889 39.9512L219.865 39.968C220.64 43.6364 218.687 47.3548 216.288 49.7644C216.297 49.2624 216.454 40.0125 212.898 34.9789L212.603 34.5198C213.111 35.5591 213.264 41.2239 209.476 46.3111C207.584 48.6148 205.123 50.5356 202.939 52.5297C200.855 54.6485 199.74 56.7978 200.18 60.9239C200.352 62.0421 200.633 63.7517 201.083 64.1842C201.359 64.3338 201.355 63.9589 201.281 63.7199C200.902 62.6156 200.597 58.3568 205.877 53.4128C214.746 45.1122 213.391 36.8755 213.391 36.8755C214.518 38.3551 215.797 46.1629 215.585 50.3375C212.824 52.9202 203.282 58.3415 204.108 63.519C204.194 64.1994 204.399 64.8801 204.652 65.4567C203.282 67.2112 202.739 68.5759 203.165 70.474C201.243 71.7188 199.11 73.4686 198.065 75.6238C196.584 76.0054 195.152 76.5554 193.788 77.5471C193.357 76.9502 193.008 76.4584 192.475 75.9572C192.868 75.7795 196.612 74.2412 198.161 72.9187C199.663 71.6554 200.68 69.7948 200.394 67.5989C199.894 63.7275 191.977 57.8788 193.992 55.884C195.047 54.8192 197.201 54.4927 198.327 55.4629L198.327 55.4607C198.327 55.4607 198.336 55.4702 198.349 55.4795C198.357 55.4845 198.36 55.4884 198.37 55.4974L198.367 55.4985C198.43 55.5543 198.549 55.6696 198.601 55.7378C199.248 54.9761 200.043 52.9309 196.755 52.6102C196.563 51.913 195.784 51.5772 195.089 51.4136C193.001 51.05 190.878 51.7772 189.914 53.5214C188.693 55.7159 191.057 61.0908 190.52 64.346C190.35 67.1503 184.565 68.4199 185.106 64.0759C185.349 62.126 190.467 57.3063 186.888 50.74C185.532 48.4694 183.881 46.3184 182.523 44.1503C177.568 36.2393 181.549 31.1725 181.483 31.1612C175.138 37.7931 175.805 43.8928 175.693 43.6001C175.397 42.8862 172.648 38.7999 174.688 34.0968C174.688 34.0968 170.784 38.0689 170.083 50.6566C169.523 50.2318 166.26 46.5929 166.657 44.1635C166.657 44.1635 165.26 49.4534 169.925 53.8452C170.108 55.8599 170.051 57.5725 170.491 59.5848C168.606 58.6698 165.817 56.0388 165.05 53.773C164.953 53.3612 165.12 58.7528 170.894 62.4394C174.909 71.3602 180.625 69.6951 181.861 68.7086C183.382 69.4834 185.351 73.0641 185.419 73.5427C182.31 72.1858 177.202 70.4226 173.154 69.8601C171.101 67.3073 166.48 61.9106 164.045 64.0231C161.385 66.7905 169.193 71.1474 173.402 72.0435C174.418 73.3752 175.926 75.2231 176.903 76.7347C175.569 76.9213 175.355 76.9936 173.492 77.4406C167.918 71.7989 166.639 75.103 166.639 75.103C165.289 79.0917 173.179 79.7005 174.118 79.5745C176.131 82.1531 179.44 82.7107 181.1 82.3665C183.248 84.8181 185.786 85.0128 186.582 84.9017C188.547 91.1415 193.321 88.6876 194.642 86.062C196.829 86.8883 198.825 86.1806 200.63 85.1525C201.72 85.6666 204.847 86.5703 208.084 84.4279C215.53 86.6837 216.753 82.7287 216.455 81.9113C215.588 79.5365 210.686 81.6195 209.271 82.5759C207.998 81.8792 207.444 81.4393 206.196 80.9278C207.679 79.6141 209.363 78.4628 210.878 77.4028C226.371 77.9126 225.173 65.2116 211.803 75.4005C208.272 74.9987 202.759 74.9022 198.893 75.5103C198.893 75.1993 201.591 72.4417 203.684 71.8462C207.076 75.6199 213.026 72.841 215.93 68.8693C219.775 67.8609 222.565 65.3584 223.783 62.6L224.018 62.1224C223.092 63.4527 220.094 65.7971 217.105 66.2385Z" fill="white"/>
<path d="M48.2453 41.3843C44.7321 41.0151 44.0191 37.6385 44.3586 34.4083C44.7017 31.1435 46.1018 27.984 49.615 28.3533C53.162 28.7261 53.8802 32.1082 53.5371 35.373C53.1976 38.6032 51.7924 41.7572 48.2453 41.3843ZM50.0576 24.1422C44.1312 23.5193 39.846 27.3657 39.1632 33.8622C38.4846 40.3185 41.8762 44.9739 47.8026 45.5968C53.7635 46.2233 58.0524 42.3752 58.731 35.9189C59.4138 29.4224 56.0185 24.7687 50.0576 24.1422Z" stroke="#273480" stroke-width="32" stroke-linejoin="round" mask="url(#path-1-outside-1_1_5791)"/>
<path d="M70.1013 47.3798L78.864 27.7229L73.265 27.1344L67.6822 41.6167L65.2317 26.2901L59.6328 25.7016L64.1171 46.7509L70.1013 47.3798Z" stroke="#273480" stroke-width="32" stroke-linejoin="round" mask="url(#path-1-outside-1_1_5791)"/>
<path d="M24.3985 67.5861C31.2957 68.311 34.2328 64.0005 34.7977 58.6259L36.3525 43.8329L33.9838 43.584L32.4869 57.8259C31.8805 63.9009 29.184 65.9496 24.6209 65.47C20.0577 64.9904 17.8454 62.4258 18.516 56.3575L20.0129 42.1156L17.6442 41.8666L16.0894 56.6596C15.5245 62.0342 17.5012 66.8612 24.3985 67.5861Z" stroke="#273480" stroke-width="32" stroke-linejoin="round" mask="url(#path-1-outside-1_1_5791)"/>
<path d="M56.6282 70.425L58.9341 70.6673L60.9186 51.7868L58.6126 51.5444L56.6282 70.425Z" stroke="#273480" stroke-width="32" stroke-linejoin="round" mask="url(#path-1-outside-1_1_5791)"/>
<path d="M71.3475 71.972L80.6165 53.8571L78.0559 53.588L70.2983 69.5325L66.024 52.3234L63.4633 52.0543L68.7635 71.7004L71.3475 71.972Z" stroke="#273480" stroke-width="32" stroke-linejoin="round" mask="url(#path-1-outside-1_1_5791)"/>
<path d="M125.228 77.6351L127.533 77.8774L129.518 58.9969L127.213 58.7546L125.228 77.6351Z" stroke="#273480" stroke-width="32" stroke-linejoin="round" mask="url(#path-1-outside-1_1_5791)"/>
<path d="M102.499 50.7881L103.641 39.9218C104.075 35.7898 105.46 34.2232 108.275 34.519C110.689 34.7728 111.434 36.5233 111.083 39.8693L109.854 51.5611L115.047 52.107L116.363 39.591C116.893 34.5494 115.851 31.0578 110.326 30.4771C108.135 30.2467 105.538 31.1045 104.082 33.2423L104.381 30.4043L99.4429 29.8854L97.3033 50.242L102.499 50.7881Z" stroke="#273480" stroke-width="32" stroke-linejoin="round" mask="url(#path-1-outside-1_1_5791)"/>
<path d="M126.239 27.6014L120.854 28.8589L120.513 32.099L118.537 31.8913L118.143 35.6324L120.12 35.8401L119.013 46.3698C118.495 51.3013 121.1 52.982 124.286 53.3168C125.212 53.4141 126.237 53.4898 127.089 53.4538L127.548 49.0882C127.082 49.1192 126.64 49.1048 126.172 49.0556C124.417 48.8711 124.057 48.3567 124.462 44.5006L125.315 36.3883L128.844 36.7592L129.237 33.0159L125.708 32.6451L126.239 27.6014Z" stroke="#273480" stroke-width="32" stroke-linejoin="round" mask="url(#path-1-outside-1_1_5791)"/>
<path d="M39.7116 68.647L40.8693 57.6325C41.3295 53.9462 43.8175 51.3976 47.4725 51.7818C51.2051 52.1741 52.0075 54.7347 51.6651 57.9924L50.4269 69.7732L52.7335 70.0156L54.0103 57.8679C54.4829 53.3711 52.8457 50.3847 47.862 49.8609C45.2753 49.589 42.3047 50.919 41.2268 53.0972L41.5782 49.754L39.3887 49.5239L37.4043 68.4044L39.7116 68.647Z" stroke="#273480" stroke-width="32" stroke-linejoin="round" mask="url(#path-1-outside-1_1_5791)"/>
<path d="M101.51 75.1422L102.568 65.0768C102.979 61.1671 105.928 58.2932 110.334 58.7562L110.576 56.4509C106.923 56.067 104.404 57.7656 102.913 60.6793L103.379 56.2495L101.189 56.0193L99.2042 74.8999L101.51 75.1422Z" stroke="#273480" stroke-width="32" stroke-linejoin="round" mask="url(#path-1-outside-1_1_5791)"/>
<path d="M113.423 61.7821C113.687 59.2758 115.896 58.9058 118.497 59.1793C119.897 59.3264 121.714 59.9717 122.97 60.8086L123.204 58.5789C121.514 57.8213 119.447 57.3836 118.413 57.2749C114.906 56.9063 111.435 57.9047 111.053 61.533C110.417 67.5884 120.883 67.5677 120.397 72.1965C120.139 74.6449 117.446 75.4705 115.045 75.2182C113.084 75.0121 111.24 74.2789 109.794 73.4086L109.552 75.7116C111.223 76.4993 113.134 76.912 115.008 77.1091C118.09 77.4329 122.338 76.4811 122.762 72.4451C123.442 65.9782 113.033 65.4949 113.423 61.7821Z" stroke="#273480" stroke-width="32" stroke-linejoin="round" mask="url(#path-1-outside-1_1_5791)"/>
<path d="M148.968 80.1301C146.749 84.2857 144.308 86.4583 141.529 86.4665L140.948 84.5891C143.844 84.4719 145.454 81.9923 146.631 79.8844L145.307 79.7453L140.489 61.9669L136.62 61.5602L135.401 73.1582C135.188 75.1882 135.085 76.8503 136.696 77.0197C137.133 77.0656 137.896 77.1522 138.495 77.1517L138.291 79.0899C137.609 79.0625 136.894 79.0052 136.422 78.9555C133.417 78.6398 132.706 76.6181 133.086 73.0054L134.314 61.3178L131.844 61.0583L132.033 59.2597L134.503 59.5192L134.939 55.3752L137.264 55.6196L136.828 59.7636L142.586 60.3688L147.385 78.3686L156.062 61.7852L158.621 62.0542L148.968 80.1301Z" stroke="#273480" stroke-width="32" stroke-linejoin="round" mask="url(#path-1-outside-1_1_5791)"/>
<path d="M155.846 35.8123L149.499 50.215L146.254 34.8041L141.957 34.3525C138.339 33.9722 136.682 35.8448 135.931 37.5016L136.325 33.7605L131.387 33.2416L129.248 53.5961L134.443 54.1421L135.402 45.0109C135.873 40.5317 137.881 38.5911 141.594 38.9043L145.296 55.2828L147.352 55.4989C146.287 57.8325 145.632 58.9957 144.392 59.6594L145.623 64.2739L145.623 64.2754C148.273 63.7121 150.748 59.7082 152.171 56.773L161.304 36.3859L155.846 35.8123Z" stroke="#273480" stroke-width="32" stroke-linejoin="round" mask="url(#path-1-outside-1_1_5791)"/>
<path d="M33.4904 35.0449C32.4578 37.4504 30.5333 38.9003 27.7885 38.6118C22.8747 38.0954 21.4882 33.5109 21.9455 29.1601C22.4262 24.5864 24.7355 20.3911 29.6493 20.9075C32.2403 21.1799 34.3226 23.2172 34.5733 25.6919L39.7052 24.4934C38.8223 19.6173 34.9628 16.5828 30.157 16.0777C22.456 15.2683 17.291 20.8278 16.4756 28.5852C15.684 36.1175 19.5803 42.6295 27.2812 43.4389C32.2141 43.9573 36.2488 41.6184 38.2657 37.2868L33.4904 35.0449Z" stroke="#273480" stroke-width="32" stroke-linejoin="round" mask="url(#path-1-outside-1_1_5791)"/>
<path d="M87.6544 32.3516C90.1755 32.6165 91.2456 34.2521 91.332 37.1155L82.8803 36.2272C83.1217 34.6638 84.3628 32.0056 87.6544 32.3516ZM90.6949 43.7481C89.9789 44.7572 88.3924 45.6042 86.6115 45.417C83.7241 45.1135 82.2835 43.3313 82.5079 39.7707L96.1536 41.205C97.1799 34.9828 94.6796 28.8324 88.2438 28.1559C82.5008 27.5523 78.0974 31.7844 77.456 37.8865C76.7937 44.1882 80.0251 48.983 85.9889 49.6098C89.6298 49.9925 92.5739 48.7988 94.5871 45.5747L90.6949 43.7481Z" stroke="#273480" stroke-width="32" stroke-linejoin="round" mask="url(#path-1-outside-1_1_5791)"/>
<path d="M89.4332 56.1923C93.1645 56.5844 94.977 60.0687 94.724 63.5549L82.5044 62.2705C83.234 58.8716 85.6625 55.796 89.4332 56.1923ZM93.6018 69.3182C92.4585 71.3653 90.5676 72.5834 87.7417 72.2864C83.3126 71.8209 81.9844 67.5771 82.3007 64.2081L96.8249 65.7347C97.5626 60.446 95.7048 54.8889 89.6373 54.2512C83.6368 53.6205 80.5816 58.3695 80.0585 63.3461C79.4938 68.7186 81.5378 73.5912 87.5383 74.2218C91.4868 74.6369 94.0466 73.1702 95.6277 70.2695L93.6018 69.3182Z" stroke="#273480" stroke-width="32" stroke-linejoin="round" mask="url(#path-1-outside-1_1_5791)"/>
<path d="M216.117 66.4741C213.093 67.098 209.995 67.7312 207.057 68.7251C205.91 69.0747 204.732 69.6478 203.627 70.2051C203.355 68.6477 203.969 67.0094 205.198 66.2475C206.009 66.9862 207.048 67.435 208.261 67.3841C210.636 67.362 212.183 65.3587 213.319 63.2516C215.086 62.6297 216.871 62.0226 218.513 61.16C218.025 62.8851 217.196 64.6379 216.432 66.2355C216.341 66.4 216.401 66.4248 216.117 66.4741ZM204.281 71.7277C207.481 70.7729 211.703 69.7677 214.972 69.1125C213.449 71.1762 207.601 75.0723 204.281 71.7277ZM212.637 63.4474C211.956 64.6264 210.971 66.0375 209.727 66.598C208.501 67.2068 206.563 66.9446 205.56 65.9738C207.478 64.7457 210.398 64.0696 212.637 63.4474ZM215.496 53.7083C215.17 56.0096 214.669 58.0523 213.821 60.0777C213.026 60.4656 206.689 62.8437 204.993 64.9883C204.001 60.4438 212.852 56.4174 215.496 53.7083ZM216.151 53.0851C216.879 52.3811 218.455 50.1776 218.688 49.667C219.961 47.3539 220.292 44.6556 220.361 43.5528C220.582 44.679 220.661 45.853 220.674 47.0194C220.766 50.6289 220.101 54.4619 219.277 58.0593C217.735 58.846 216.162 59.3592 214.57 59.8518C215.293 57.6906 215.923 55.5695 216.151 53.0851ZM209.818 77.3377C208.532 78.3633 206.9 79.5294 205.531 80.6475C203.2 79.5963 200.406 79.0081 197.78 79.2393C197.861 78.3468 197.991 77.6071 198.367 76.7799C201.972 76.444 206.053 77.0712 209.818 77.3377ZM207.442 84.212C206.02 85.234 203.419 85.7467 201.045 84.8417L204.063 82.8839C205.194 83.4592 206.28 83.7353 207.442 84.212ZM200.579 84.63C200.579 84.63 198.497 83.2184 197.789 80.2525C199.75 80.6227 201.826 81.8133 203.544 82.6138C203.544 82.6138 201.497 83.9981 200.579 84.63ZM194.775 85.5881C195.474 84.0314 195.602 82.2485 195.161 80.537C195.259 80.4817 196.626 80.1068 197.271 80.2224C198.101 83.4407 200.066 84.6831 200.22 84.8784C198.646 85.8415 196.582 86.2481 194.775 85.5881ZM194.126 85.2359C191.738 82.6464 194.265 80.8823 194.636 80.7608C194.909 82.1172 194.747 84.0071 194.126 85.2359ZM187.443 84.7176C190.75 82.753 189.347 80.4632 188.338 79.2978C188.636 78.8425 188.973 78.278 189.62 77.8088C190.217 78.4729 190.384 79.4057 190.363 80.4258C190.512 80.4472 190.494 80.4368 190.781 80.4791C190.956 79.4017 190.598 78.3025 190.054 77.4193C190.482 77.1004 191.67 76.2679 192.018 76.1561C192.523 76.6971 192.921 77.224 193.383 77.9189C193.383 77.9189 191.944 79.0797 191.834 80.6283L192.229 80.6862C192.503 79.896 192.489 79.3552 193.693 78.4124C194.083 78.9806 194.364 79.5523 194.491 80.2048C193.786 80.6736 190.916 82.7133 193.872 85.66C189.878 90.5023 187.448 84.9849 187.443 84.7176ZM188.071 79.7919C190.146 82.233 188.097 83.8004 187.3 84.2245C187.3 84.2245 186.915 82.0631 188.071 79.7919ZM186.559 84.3942C184.647 84.4822 182.735 83.3659 181.559 82.1958C184.444 80.9573 185.463 78.7402 185.696 78.5256C186.429 78.699 187.045 79.0113 187.61 79.4282C186.933 80.584 186.201 82.6188 186.559 84.3942ZM178.996 79.0913C180.92 78.7835 183.058 78.2562 185.137 78.4391C185.114 78.727 183.131 81.2082 181.272 81.8339C180.512 80.9321 178.996 79.0913 178.996 79.0913ZM174.805 79.5568C175.092 79.5556 177.32 79.3561 178.403 79.2002C179.121 80.0783 179.988 81.0725 180.759 81.9418C180.759 81.9418 176.994 82.1961 174.805 79.5568ZM174.464 72.2986C176.97 72.7674 184.063 74.0779 185.56 74.9238C185.72 75.6825 185.61 76.706 185.46 77.4458C183.048 76.5745 180.108 76.2069 177.601 76.6383C177.601 76.6383 175.434 73.6661 174.464 72.2986ZM186.191 75.1669C187.312 75.5708 188.399 76.5312 189.287 77.3465C188.636 77.9143 188.361 78.2893 187.97 78.908C187.408 78.3888 186.962 78.1187 185.92 77.6339C186.098 76.8522 186.197 75.958 186.191 75.1669ZM182.722 67.5C183.704 65.677 183.447 64.1919 182.693 62.2977C185.898 58.8729 182.87 53.4045 180.572 50.5577C179.385 49.0033 176.589 45.1995 176.384 44.7677C176.422 38.7171 179.871 33.7248 180.13 33.3148C178.371 36.2646 177.187 40.5603 184.288 51.5554C185.547 53.5054 187.318 55.7433 186.944 58.3763C186.653 60.7513 184.542 62.4606 184.578 64.6346C184.633 66.0814 185.301 67.3644 186.79 67.8119C188.377 68.2906 189.747 67.9637 190.894 66.9407C194.655 62.9835 189.89 59.2995 190.322 55.0018C190.487 53.3676 191.537 52.4777 193.018 52.1062C194.045 51.9238 195.39 51.7641 196.1 52.6456C195.811 52.648 195.231 52.6926 194.505 52.9624L194.512 52.9837C194.436 52.8438 194.295 52.7427 194.126 52.7249C193.852 52.6961 193.608 52.8938 193.58 53.1654C193.572 53.2416 193.582 53.3141 193.607 53.3816C193.659 53.574 193.818 53.7377 194.111 53.7121C194.122 53.7111 194.134 53.7095 194.145 53.7079C194.245 53.694 194.356 53.6608 194.485 53.6001C195.175 53.2746 195.968 53.2138 196.331 53.2035L196.332 53.2057C199.441 53.3093 198.424 54.8746 198.424 54.8746C198.424 54.8746 196.179 53.2782 193.625 55.2419C189.761 58.7402 204.812 68.0404 192.005 75.4877C191.555 74.9838 190.132 73.7998 189.169 73.2741C189.067 73.3825 189.005 73.4737 188.924 73.5722C189.891 74.1583 190.859 74.9064 191.595 75.7007C190.818 76.112 190.397 76.4444 189.769 76.932C188.817 75.7425 187.678 74.7304 186.202 73.9125C185.698 71.4932 184.361 69.3216 182.722 67.5ZM182.368 67.0883C179.807 64.7031 175.464 62.1029 171.196 59.9436C170.907 58.8516 170.57 54.931 170.586 54.315C171.744 55.4833 173.513 56.8827 175.032 57.8506C176.402 64.7862 180.992 63.4159 181.96 62.9055C182.973 64.1235 183.025 65.6078 182.368 67.0883ZM171.782 62.9351C173.961 63.9946 180.766 68.0392 181.291 68.4261C180.469 69.113 175.591 70.3096 171.782 62.9351ZM173.236 37.7452C173.01 38.9835 172.825 42.1136 175.074 47.2404C174.706 49.5145 174.644 51.8979 174.729 54.1227C173.291 53.2175 172.071 52.1311 170.715 51.1346C170.791 49.1886 172.034 39.7497 173.236 37.7452ZM181.666 62.5258C181.315 62.7892 176.875 64.268 175.609 58.1717C177.611 59.3501 180.092 60.8501 181.666 62.5258ZM175.568 48.0178C176.59 50.1648 184.782 57.851 182.495 61.6862C180.608 58.3903 175.553 54.9091 175.372 54.6176C175.173 52.5542 175.298 50.2173 175.568 48.0178ZM197.703 76.8428C197.524 77.6437 197.396 77.9633 197.296 79.2976C196.491 79.4134 195.647 79.5751 194.967 79.9481C194.772 79.2691 194.492 78.6497 194.131 78.0789C194.131 78.0789 195.92 77.0656 197.703 76.8428ZM221.513 72.2969C222.807 74.5823 215.796 75.6911 212.81 75.4685C212.81 75.4685 219.629 70.0864 221.513 72.2969ZM216.108 82.1779C216.24 83.1328 213.229 84.9658 209.757 82.8003C213.573 80.5982 216.051 80.9406 216.108 82.1779ZM167 75.3785C167.606 72.9674 172.041 76.4192 172.971 77.5349C171.323 78.1401 166.802 77.6306 167 75.3785ZM164.424 64.374C166.202 62.3487 170.628 67.6628 172.072 69.6451C171.155 69.4125 162.841 66.6602 164.424 64.374ZM217.105 66.2385C218.743 62.937 218.631 62.5578 219.269 60.8529C223.562 59.1318 225.05 53.9448 225.061 53.3659C225.142 51.7821 225.129 52.6619 224.919 53.182C224.305 54.7019 222.64 56.3111 221.195 57.2022C220.834 57.374 220.388 57.6924 219.943 57.8297C220.192 56.3876 222.733 47.3906 219.889 39.9512L219.865 39.968C220.64 43.6364 218.687 47.3548 216.288 49.7644C216.297 49.2624 216.454 40.0125 212.898 34.9789L212.603 34.5198C213.111 35.5591 213.264 41.2239 209.476 46.3111C207.584 48.6148 205.123 50.5356 202.939 52.5297C200.855 54.6485 199.74 56.7978 200.18 60.9239C200.352 62.0421 200.633 63.7517 201.083 64.1842C201.359 64.3338 201.355 63.9589 201.281 63.7199C200.902 62.6156 200.597 58.3568 205.877 53.4128C214.746 45.1122 213.391 36.8755 213.391 36.8755C214.518 38.3551 215.797 46.1629 215.585 50.3375C212.824 52.9202 203.282 58.3415 204.108 63.519C204.194 64.1994 204.399 64.8801 204.652 65.4567C203.282 67.2112 202.739 68.5759 203.165 70.474C201.243 71.7188 199.11 73.4686 198.065 75.6238C196.584 76.0054 195.152 76.5554 193.788 77.5471C193.357 76.9502 193.008 76.4584 192.475 75.9572C192.868 75.7795 196.612 74.2412 198.161 72.9187C199.663 71.6554 200.68 69.7948 200.394 67.5989C199.894 63.7275 191.977 57.8788 193.992 55.884C195.047 54.8192 197.201 54.4927 198.327 55.4629L198.327 55.4607C198.327 55.4607 198.336 55.4702 198.349 55.4795C198.357 55.4845 198.36 55.4884 198.37 55.4974L198.367 55.4985C198.43 55.5543 198.549 55.6696 198.601 55.7378C199.248 54.9761 200.043 52.9309 196.755 52.6102C196.563 51.913 195.784 51.5772 195.089 51.4136C193.001 51.05 190.878 51.7772 189.914 53.5214C188.693 55.7159 191.057 61.0908 190.52 64.346C190.35 67.1503 184.565 68.4199 185.106 64.0759C185.349 62.126 190.467 57.3063 186.888 50.74C185.532 48.4694 183.881 46.3184 182.523 44.1503C177.568 36.2393 181.549 31.1725 181.483 31.1612C175.138 37.7931 175.805 43.8928 175.693 43.6001C175.397 42.8862 172.648 38.7999 174.688 34.0968C174.688 34.0968 170.784 38.0689 170.083 50.6566C169.523 50.2318 166.26 46.5929 166.657 44.1635C166.657 44.1635 165.26 49.4534 169.925 53.8452C170.108 55.8599 170.051 57.5725 170.491 59.5848C168.606 58.6698 165.817 56.0388 165.05 53.773C164.953 53.3612 165.12 58.7528 170.894 62.4394C174.909 71.3602 180.625 69.6951 181.861 68.7086C183.382 69.4834 185.351 73.0641 185.419 73.5427C182.31 72.1858 177.202 70.4226 173.154 69.8601C171.101 67.3073 166.48 61.9106 164.045 64.0231C161.385 66.7905 169.193 71.1474 173.402 72.0435C174.418 73.3752 175.926 75.2231 176.903 76.7347C175.569 76.9213 175.355 76.9936 173.492 77.4406C167.918 71.7989 166.639 75.103 166.639 75.103C165.289 79.0917 173.179 79.7005 174.118 79.5745C176.131 82.1531 179.44 82.7107 181.1 82.3665C183.248 84.8181 185.786 85.0128 186.582 84.9017C188.547 91.1415 193.321 88.6876 194.642 86.062C196.829 86.8883 198.825 86.1806 200.63 85.1525C201.72 85.6666 204.847 86.5703 208.084 84.4279C215.53 86.6837 216.753 82.7287 216.455 81.9113C215.588 79.5365 210.686 81.6195 209.271 82.5759C207.998 81.8792 207.444 81.4393 206.196 80.9278C207.679 79.6141 209.363 78.4628 210.878 77.4028C226.371 77.9126 225.173 65.2116 211.803 75.4005C208.272 74.9987 202.759 74.9022 198.893 75.5103C198.893 75.1993 201.591 72.4417 203.684 71.8462C207.076 75.6199 213.026 72.841 215.93 68.8693C219.775 67.8609 222.565 65.3584 223.783 62.6L224.018 62.1224C223.092 63.4527 220.094 65.7971 217.105 66.2385Z" stroke="#273480" stroke-width="32" stroke-linejoin="round" mask="url(#path-1-outside-1_1_5791)"/>
</svg>
