<svg width="167" height="91" viewBox="0 0 167 91" fill="none" xmlns="http://www.w3.org/2000/svg">
<mask id="path-1-outside-1_1_5799" maskUnits="userSpaceOnUse" x="0" y="0" width="167" height="92" fill="black">
<rect fill="white" width="167" height="92"/>
<path d="M150.963 49.9396C146.168 38.6295 141.373 27.3191 136.577 16.0095H127.549C123.112 26.478 118.673 36.9461 114.235 47.4142C113.878 48.2565 113.521 49.0989 113.163 49.9412L123.001 49.9379C125.993 42.3133 128.984 34.6886 131.976 27.064C134.95 34.6915 137.926 42.3198 140.899 49.9482C144.254 49.9449 147.609 49.942 150.963 49.9396Z"/>
<path d="M82.7292 16.0166C87.5244 27.3267 92.32 38.6371 97.1148 49.9467H106.143C110.581 39.4782 115.019 29.0101 119.457 18.542C119.815 17.6997 120.172 16.8573 120.529 16.015L110.691 16.0183C107.699 23.6429 104.708 31.2676 101.717 38.8931L92.7928 16.008C89.4383 16.0113 86.0833 16.0142 82.7292 16.0166Z"/>
<path d="M38.8628 16V36.9016L22.9074 16H16V49.9482H23.3938V28.3668L39.8846 49.9482H46.2567V16H38.8628Z"/>
<path d="M65.5224 41.5674C70.1428 41.5674 73.9018 45.3264 73.9018 49.9467H81.8519C81.8519 40.9431 74.5269 33.6172 65.5224 33.6172C56.518 33.6172 49.193 40.9431 49.193 49.9467H57.1431C57.1431 45.3264 60.9021 41.5674 65.5224 41.5674Z"/>
<path d="M65.5224 24.3795C60.9021 24.3795 57.1431 20.62 57.1431 16.0001H49.193C49.193 25.0037 56.518 32.3288 65.5224 32.3288C74.5269 32.3288 81.8519 25.0037 81.8519 16.0001L73.9018 16.0001C73.9018 20.62 70.1428 24.3795 65.5224 24.3795Z"/>
<path d="M49.4069 64.7775V58.5524L53.6128 62.9995V58.9483H54.4827V65.1323L50.2768 60.6963V64.7775H49.4069Z"/>
<path d="M57.2734 61.8487C57.2734 62.4927 57.4878 63.0231 57.9157 63.4379C58.3416 63.8535 58.8334 64.0609 59.391 64.0609C59.9959 64.0609 60.5065 63.8498 60.9226 63.4268C61.3386 62.9992 61.5464 62.4779 61.5464 61.8639C61.5464 61.2421 61.3406 60.7212 60.9295 60.3006C60.5213 59.8784 60.016 59.6665 59.4132 59.6665C58.8132 59.6665 58.3067 59.8784 57.8935 60.3006C57.4795 60.7191 57.2734 61.2347 57.2734 61.8487ZM56.3952 61.8372C56.3952 61.0175 56.6932 60.3126 57.2882 59.7237C57.8808 59.1349 58.5931 58.8402 59.4243 58.8402C60.2465 58.8402 60.9514 59.1365 61.5382 59.7311C62.1291 60.3249 62.4241 61.038 62.4241 61.8713C62.4241 62.7095 62.1278 63.4206 61.5353 64.0045C60.9394 64.5909 60.2214 64.8839 59.3798 64.8839C58.6354 64.8839 57.9668 64.6238 57.3742 64.1029C56.7216 63.526 56.3952 62.7709 56.3952 61.8372Z"/>
<path d="M64.6279 58.9483L66.2233 62.9879L67.8397 58.9483H68.7927L66.204 65.2154L63.6757 58.9483H64.6279Z"/>
<path d="M73.3612 62.5354L72.5052 60.5532L71.6094 62.5354H73.3612ZM73.7159 63.3625H71.2473L70.6041 64.7777H69.6667L72.5205 58.583L75.273 64.7777H74.3208L73.7159 63.3625Z"/>
<path d="M80.8623 58.9489V62.4598C80.8623 62.9606 80.9433 63.3268 81.1047 63.5581C81.3466 63.8934 81.6861 64.0605 82.1248 64.0605C82.5655 64.0605 82.9062 63.8934 83.1482 63.5581C83.3099 63.3346 83.3909 62.968 83.3909 62.4598V58.9489H84.2613V62.7017C84.2613 63.3157 84.0716 63.8214 83.6934 64.2189C83.2675 64.6621 82.7449 64.8839 82.1248 64.8839C81.5046 64.8839 80.9824 64.6621 80.5594 64.2189C80.1813 63.8214 79.9924 63.3157 79.9924 62.7017V58.9489H80.8623Z"/>
<path d="M86.4619 64.7775V58.5524L90.6678 62.9995V58.9483H91.5377V65.1323L87.3326 60.6963V64.7775H86.4619Z"/>
<path d="M94.6083 64.7777H93.7384V58.9484H94.6083V64.7777Z"/>
<path d="M97.1039 58.9483L98.6988 62.9879L100.316 58.9483H101.269L98.6799 65.2154L96.1516 58.9483H97.1039Z"/>
<path d="M105.987 59.7755H103.675V61.1762H105.92V62.0029H103.675V63.9506H105.987V64.7777H102.804V58.9484H105.987V59.7755Z"/>
<path d="M108.819 61.6256H109.095C109.919 61.6256 110.331 61.3071 110.331 60.6709C110.331 60.0738 109.931 59.7755 109.128 59.7755H108.819V61.6256ZM109.902 62.2935L111.687 64.7777H110.623L108.975 62.3926H108.819V64.7777H107.949V58.9492H108.968C109.73 58.9492 110.28 59.0937 110.619 59.3833C110.992 59.7055 111.179 60.1306 111.179 60.659C111.179 61.0725 111.062 61.4268 110.828 61.7239C110.594 62.021 110.285 62.2108 109.902 62.2935Z"/>
<path d="M116.633 59.8179L115.927 60.2406C115.795 60.0097 115.67 59.8579 115.55 59.7879C115.425 59.7068 115.264 59.6669 115.068 59.6669C114.826 59.6669 114.626 59.7365 114.467 59.8743C114.307 60.0101 114.228 60.1813 114.228 60.3879C114.228 60.6726 114.437 60.9018 114.855 61.0747L115.43 61.3129C115.898 61.5039 116.241 61.7372 116.457 62.0129C116.674 62.2886 116.783 62.6268 116.783 63.0268C116.783 63.5626 116.606 64.0062 116.252 64.3559C115.896 64.7078 115.454 64.8839 114.926 64.8839C114.426 64.8839 114.012 64.7341 113.686 64.4354C113.364 64.1358 113.164 63.7136 113.085 63.1704L113.966 62.9737C114.006 63.3165 114.075 63.5527 114.175 63.6836C114.354 63.9354 114.616 64.0613 114.96 64.0613C115.231 64.0613 115.456 63.9691 115.636 63.7856C115.815 63.6021 115.905 63.3692 115.905 63.0873C115.905 62.9737 115.889 62.87 115.858 62.7754C115.827 62.6816 115.778 62.5943 115.712 62.5153C115.646 62.4359 115.561 62.3618 115.456 62.2923C115.352 62.2232 115.227 62.1573 115.083 62.0948L114.526 61.8602C113.737 61.5232 113.343 61.0298 113.343 60.3805C113.343 59.9426 113.508 59.576 113.839 59.2814C114.17 58.9847 114.583 58.8361 115.075 58.8361C115.74 58.8361 116.26 59.1633 116.633 59.8179Z"/>
<path d="M119.52 64.7777H118.65V58.9484H119.52V64.7777Z"/>
<path d="M123.316 59.7755V64.7777H122.446V59.7755H121.119V58.9484H124.638V59.7755H123.316Z"/>
<path d="M127.399 62.2597L125.516 58.9484H126.517L127.836 61.2779L129.158 58.9484H130.159L128.269 62.2597V64.7777H127.399V62.2597Z"/>
<path d="M50.2768 68.8221V73.8243H51.9726V74.6514H49.4069V68.8221H50.2768Z"/>
<path d="M54.4865 74.6499H53.6166V68.8206H54.4865V74.6499Z"/>
<path d="M59.9515 69.6902L59.2453 70.1128C59.1132 69.8819 58.9881 69.7301 58.8684 69.6601C58.7437 69.5791 58.5828 69.5391 58.3865 69.5391C58.145 69.5391 57.9442 69.6087 57.7853 69.7465C57.6257 69.8823 57.5463 70.0535 57.5463 70.2601C57.5463 70.5448 57.7553 70.7741 58.1734 70.9469L58.7491 71.1851C59.2169 71.3761 59.5593 71.6094 59.7758 71.8851C59.9926 72.1608 60.1012 72.4986 60.1012 72.899C60.1012 73.4348 59.9239 73.8784 59.57 74.2282C59.2145 74.58 58.7725 74.7561 58.2446 74.7561C57.7442 74.7561 57.3302 74.6063 57.0047 74.3076C56.6829 74.008 56.4829 73.5858 56.4031 73.0418L57.285 72.8459C57.3249 73.1883 57.394 73.4249 57.4936 73.5558C57.673 73.8076 57.9343 73.9335 58.2783 73.9335C58.5499 73.9335 58.775 73.8414 58.9544 73.6578C59.1338 73.4743 59.2231 73.2414 59.2231 72.9595C59.2231 72.8459 59.2075 72.7422 59.1766 72.6476C59.1453 72.5538 59.0968 72.4665 59.0305 72.3875C58.9647 72.3081 58.8795 72.234 58.775 72.1645C58.6705 72.0954 58.5454 72.0295 58.4018 71.967L57.845 71.7324C57.0557 71.3954 56.6611 70.902 56.6611 70.2527C56.6611 69.8148 56.8261 69.4482 57.1578 69.1536C57.4886 68.8569 57.9014 68.7083 58.3939 68.7083C59.0585 68.7083 59.5782 69.0355 59.9515 69.6902Z"/>
<path d="M62.8396 73.8243H63.377C63.7712 73.8243 64.0597 73.7465 64.2436 73.5905C64.4383 73.4214 64.535 73.2078 64.535 72.9486C64.535 72.6968 64.4416 72.4852 64.2547 72.3145C64.0733 72.1458 63.7482 72.0614 63.2803 72.0614H62.8396V73.8243ZM62.8396 71.3252H63.1124C63.4359 71.3252 63.6729 71.2528 63.8239 71.108C63.9741 70.9631 64.0498 70.75 64.0498 70.4681C64.0498 70.1936 63.9725 69.9854 63.8177 69.8438C63.6634 69.701 63.4396 69.6299 63.1462 69.6299H62.8396V71.3252ZM61.9697 74.6514V68.8221H62.8359C63.2215 68.8221 63.5293 68.8521 63.7581 68.9122C63.9902 68.9731 64.1856 69.0752 64.3445 69.2188C64.5066 69.3673 64.635 69.5521 64.7296 69.7739C64.8263 69.9977 64.8749 70.2236 64.8749 70.4529C64.8749 70.8709 64.7164 71.2244 64.4004 71.5137C64.707 71.6195 64.9485 71.8042 65.1255 72.0688C65.3049 72.3305 65.3946 72.635 65.3946 72.9823C65.3946 73.4379 65.2349 73.823 64.916 74.1374C64.7239 74.3312 64.5091 74.4658 64.2704 74.5415C64.0079 74.6143 63.6807 74.6514 63.2873 74.6514H61.9697Z"/>
<path d="M67.901 71.7213C67.901 72.3653 68.1154 72.8953 68.5433 73.3105C68.9692 73.7261 69.461 73.9335 70.0186 73.9335C70.6239 73.9335 71.1341 73.7224 71.5502 73.2994C71.9662 72.8719 72.174 72.3505 72.174 71.7365C72.174 71.1148 71.9687 70.5938 71.558 70.1733C71.1498 69.7511 70.6436 69.5391 70.0416 69.5391C69.4408 69.5391 68.9343 69.7511 68.5211 70.1733C68.108 70.5918 67.901 71.1074 67.901 71.7213ZM67.0229 71.7098C67.0229 70.8901 67.3208 70.1852 67.9158 69.5963C68.5088 69.0067 69.2211 68.7129 70.0523 68.7129C70.8741 68.7129 71.579 69.0091 72.1666 69.6038C72.7567 70.1975 73.0517 70.9107 73.0517 71.744C73.0517 72.5822 72.7554 73.2932 72.1629 73.8772C71.5679 74.4635 70.8494 74.7561 70.0075 74.7561C69.2635 74.7561 68.5944 74.4965 68.0022 73.9755C67.3496 73.3986 67.0229 72.6435 67.0229 71.7098Z"/>
<path d="M74.9648 74.6507V68.4256L79.1707 72.8727V68.8215H80.0406V75.0055L75.8347 70.5695V74.6507H74.9648Z"/>
</mask>
<path d="M150.963 49.9396C146.168 38.6295 141.373 27.3191 136.577 16.0095H127.549C123.112 26.478 118.673 36.9461 114.235 47.4142C113.878 48.2565 113.521 49.0989 113.163 49.9412L123.001 49.9379C125.993 42.3133 128.984 34.6886 131.976 27.064C134.95 34.6915 137.926 42.3198 140.899 49.9482C144.254 49.9449 147.609 49.942 150.963 49.9396Z" fill="white"/>
<path d="M82.7292 16.0166C87.5244 27.3267 92.32 38.6371 97.1148 49.9467H106.143C110.581 39.4782 115.019 29.0101 119.457 18.542C119.815 17.6997 120.172 16.8573 120.529 16.015L110.691 16.0183C107.699 23.6429 104.708 31.2676 101.717 38.8931L92.7928 16.008C89.4383 16.0113 86.0833 16.0142 82.7292 16.0166Z" fill="white"/>
<path d="M38.8628 16V36.9016L22.9074 16H16V49.9482H23.3938V28.3668L39.8846 49.9482H46.2567V16H38.8628Z" fill="white"/>
<path d="M65.5224 41.5674C70.1428 41.5674 73.9018 45.3264 73.9018 49.9467H81.8519C81.8519 40.9431 74.5269 33.6172 65.5224 33.6172C56.518 33.6172 49.193 40.9431 49.193 49.9467H57.1431C57.1431 45.3264 60.9021 41.5674 65.5224 41.5674Z" fill="#348041"/>
<path d="M65.5224 24.3795C60.9021 24.3795 57.1431 20.62 57.1431 16.0001H49.193C49.193 25.0037 56.518 32.3288 65.5224 32.3288C74.5269 32.3288 81.8519 25.0037 81.8519 16.0001L73.9018 16.0001C73.9018 20.62 70.1428 24.3795 65.5224 24.3795Z" fill="white"/>
<path d="M49.4069 64.7775V58.5524L53.6128 62.9995V58.9483H54.4827V65.1323L50.2768 60.6963V64.7775H49.4069Z" fill="white"/>
<path d="M57.2734 61.8487C57.2734 62.4927 57.4878 63.0231 57.9157 63.4379C58.3416 63.8535 58.8334 64.0609 59.391 64.0609C59.9959 64.0609 60.5065 63.8498 60.9226 63.4268C61.3386 62.9992 61.5464 62.4779 61.5464 61.8639C61.5464 61.2421 61.3406 60.7212 60.9295 60.3006C60.5213 59.8784 60.016 59.6665 59.4132 59.6665C58.8132 59.6665 58.3067 59.8784 57.8935 60.3006C57.4795 60.7191 57.2734 61.2347 57.2734 61.8487ZM56.3952 61.8372C56.3952 61.0175 56.6932 60.3126 57.2882 59.7237C57.8808 59.1349 58.5931 58.8402 59.4243 58.8402C60.2465 58.8402 60.9514 59.1365 61.5382 59.7311C62.1291 60.3249 62.4241 61.038 62.4241 61.8713C62.4241 62.7095 62.1278 63.4206 61.5353 64.0045C60.9394 64.5909 60.2214 64.8839 59.3798 64.8839C58.6354 64.8839 57.9668 64.6238 57.3742 64.1029C56.7216 63.526 56.3952 62.7709 56.3952 61.8372Z" fill="white"/>
<path d="M64.6279 58.9483L66.2233 62.9879L67.8397 58.9483H68.7927L66.204 65.2154L63.6757 58.9483H64.6279Z" fill="white"/>
<path d="M73.3612 62.5354L72.5052 60.5532L71.6094 62.5354H73.3612ZM73.7159 63.3625H71.2473L70.6041 64.7777H69.6667L72.5205 58.583L75.273 64.7777H74.3208L73.7159 63.3625Z" fill="white"/>
<path d="M80.8623 58.9489V62.4598C80.8623 62.9606 80.9433 63.3268 81.1047 63.5581C81.3466 63.8934 81.6861 64.0605 82.1248 64.0605C82.5655 64.0605 82.9062 63.8934 83.1482 63.5581C83.3099 63.3346 83.3909 62.968 83.3909 62.4598V58.9489H84.2613V62.7017C84.2613 63.3157 84.0716 63.8214 83.6934 64.2189C83.2675 64.6621 82.7449 64.8839 82.1248 64.8839C81.5046 64.8839 80.9824 64.6621 80.5594 64.2189C80.1813 63.8214 79.9924 63.3157 79.9924 62.7017V58.9489H80.8623Z" fill="white"/>
<path d="M86.4619 64.7775V58.5524L90.6678 62.9995V58.9483H91.5377V65.1323L87.3326 60.6963V64.7775H86.4619Z" fill="white"/>
<path d="M94.6083 64.7777H93.7384V58.9484H94.6083V64.7777Z" fill="white"/>
<path d="M97.1039 58.9483L98.6988 62.9879L100.316 58.9483H101.269L98.6799 65.2154L96.1516 58.9483H97.1039Z" fill="white"/>
<path d="M105.987 59.7755H103.675V61.1762H105.92V62.0029H103.675V63.9506H105.987V64.7777H102.804V58.9484H105.987V59.7755Z" fill="white"/>
<path d="M108.819 61.6256H109.095C109.919 61.6256 110.331 61.3071 110.331 60.6709C110.331 60.0738 109.931 59.7755 109.128 59.7755H108.819V61.6256ZM109.902 62.2935L111.687 64.7777H110.623L108.975 62.3926H108.819V64.7777H107.949V58.9492H108.968C109.73 58.9492 110.28 59.0937 110.619 59.3833C110.992 59.7055 111.179 60.1306 111.179 60.659C111.179 61.0725 111.062 61.4268 110.828 61.7239C110.594 62.021 110.285 62.2108 109.902 62.2935Z" fill="white"/>
<path d="M116.633 59.8179L115.927 60.2406C115.795 60.0097 115.67 59.8579 115.55 59.7879C115.425 59.7068 115.264 59.6669 115.068 59.6669C114.826 59.6669 114.626 59.7365 114.467 59.8743C114.307 60.0101 114.228 60.1813 114.228 60.3879C114.228 60.6726 114.437 60.9018 114.855 61.0747L115.43 61.3129C115.898 61.5039 116.241 61.7372 116.457 62.0129C116.674 62.2886 116.783 62.6268 116.783 63.0268C116.783 63.5626 116.606 64.0062 116.252 64.3559C115.896 64.7078 115.454 64.8839 114.926 64.8839C114.426 64.8839 114.012 64.7341 113.686 64.4354C113.364 64.1358 113.164 63.7136 113.085 63.1704L113.966 62.9737C114.006 63.3165 114.075 63.5527 114.175 63.6836C114.354 63.9354 114.616 64.0613 114.96 64.0613C115.231 64.0613 115.456 63.9691 115.636 63.7856C115.815 63.6021 115.905 63.3692 115.905 63.0873C115.905 62.9737 115.889 62.87 115.858 62.7754C115.827 62.6816 115.778 62.5943 115.712 62.5153C115.646 62.4359 115.561 62.3618 115.456 62.2923C115.352 62.2232 115.227 62.1573 115.083 62.0948L114.526 61.8602C113.737 61.5232 113.343 61.0298 113.343 60.3805C113.343 59.9426 113.508 59.576 113.839 59.2814C114.17 58.9847 114.583 58.8361 115.075 58.8361C115.74 58.8361 116.26 59.1633 116.633 59.8179Z" fill="white"/>
<path d="M119.52 64.7777H118.65V58.9484H119.52V64.7777Z" fill="white"/>
<path d="M123.316 59.7755V64.7777H122.446V59.7755H121.119V58.9484H124.638V59.7755H123.316Z" fill="white"/>
<path d="M127.399 62.2597L125.516 58.9484H126.517L127.836 61.2779L129.158 58.9484H130.159L128.269 62.2597V64.7777H127.399V62.2597Z" fill="white"/>
<path d="M50.2768 68.8221V73.8243H51.9726V74.6514H49.4069V68.8221H50.2768Z" fill="white"/>
<path d="M54.4865 74.6499H53.6166V68.8206H54.4865V74.6499Z" fill="white"/>
<path d="M59.9515 69.6902L59.2453 70.1128C59.1132 69.8819 58.9881 69.7301 58.8684 69.6601C58.7437 69.5791 58.5828 69.5391 58.3865 69.5391C58.145 69.5391 57.9442 69.6087 57.7853 69.7465C57.6257 69.8823 57.5463 70.0535 57.5463 70.2601C57.5463 70.5448 57.7553 70.7741 58.1734 70.9469L58.7491 71.1851C59.2169 71.3761 59.5593 71.6094 59.7758 71.8851C59.9926 72.1608 60.1012 72.4986 60.1012 72.899C60.1012 73.4348 59.9239 73.8784 59.57 74.2282C59.2145 74.58 58.7725 74.7561 58.2446 74.7561C57.7442 74.7561 57.3302 74.6063 57.0047 74.3076C56.6829 74.008 56.4829 73.5858 56.4031 73.0418L57.285 72.8459C57.3249 73.1883 57.394 73.4249 57.4936 73.5558C57.673 73.8076 57.9343 73.9335 58.2783 73.9335C58.5499 73.9335 58.775 73.8414 58.9544 73.6578C59.1338 73.4743 59.2231 73.2414 59.2231 72.9595C59.2231 72.8459 59.2075 72.7422 59.1766 72.6476C59.1453 72.5538 59.0968 72.4665 59.0305 72.3875C58.9647 72.3081 58.8795 72.234 58.775 72.1645C58.6705 72.0954 58.5454 72.0295 58.4018 71.967L57.845 71.7324C57.0557 71.3954 56.6611 70.902 56.6611 70.2527C56.6611 69.8148 56.8261 69.4482 57.1578 69.1536C57.4886 68.8569 57.9014 68.7083 58.3939 68.7083C59.0585 68.7083 59.5782 69.0355 59.9515 69.6902Z" fill="white"/>
<path d="M62.8396 73.8243H63.377C63.7712 73.8243 64.0597 73.7465 64.2436 73.5905C64.4383 73.4214 64.535 73.2078 64.535 72.9486C64.535 72.6968 64.4416 72.4852 64.2547 72.3145C64.0733 72.1458 63.7482 72.0614 63.2803 72.0614H62.8396V73.8243ZM62.8396 71.3252H63.1124C63.4359 71.3252 63.6729 71.2528 63.8239 71.108C63.9741 70.9631 64.0498 70.75 64.0498 70.4681C64.0498 70.1936 63.9725 69.9854 63.8177 69.8438C63.6634 69.701 63.4396 69.6299 63.1462 69.6299H62.8396V71.3252ZM61.9697 74.6514V68.8221H62.8359C63.2215 68.8221 63.5293 68.8521 63.7581 68.9122C63.9902 68.9731 64.1856 69.0752 64.3445 69.2188C64.5066 69.3673 64.635 69.5521 64.7296 69.7739C64.8263 69.9977 64.8749 70.2236 64.8749 70.4529C64.8749 70.8709 64.7164 71.2244 64.4004 71.5137C64.707 71.6195 64.9485 71.8042 65.1255 72.0688C65.3049 72.3305 65.3946 72.635 65.3946 72.9823C65.3946 73.4379 65.2349 73.823 64.916 74.1374C64.7239 74.3312 64.5091 74.4658 64.2704 74.5415C64.0079 74.6143 63.6807 74.6514 63.2873 74.6514H61.9697Z" fill="white"/>
<path d="M67.901 71.7213C67.901 72.3653 68.1154 72.8953 68.5433 73.3105C68.9692 73.7261 69.461 73.9335 70.0186 73.9335C70.6239 73.9335 71.1341 73.7224 71.5502 73.2994C71.9662 72.8719 72.174 72.3505 72.174 71.7365C72.174 71.1148 71.9687 70.5938 71.558 70.1733C71.1498 69.7511 70.6436 69.5391 70.0416 69.5391C69.4408 69.5391 68.9343 69.7511 68.5211 70.1733C68.108 70.5918 67.901 71.1074 67.901 71.7213ZM67.0229 71.7098C67.0229 70.8901 67.3208 70.1852 67.9158 69.5963C68.5088 69.0067 69.2211 68.7129 70.0523 68.7129C70.8741 68.7129 71.579 69.0091 72.1666 69.6038C72.7567 70.1975 73.0517 70.9107 73.0517 71.744C73.0517 72.5822 72.7554 73.2932 72.1629 73.8772C71.5679 74.4635 70.8494 74.7561 70.0075 74.7561C69.2635 74.7561 68.5944 74.4965 68.0022 73.9755C67.3496 73.3986 67.0229 72.6435 67.0229 71.7098Z" fill="white"/>
<path d="M74.9648 74.6507V68.4256L79.1707 72.8727V68.8215H80.0406V75.0055L75.8347 70.5695V74.6507H74.9648Z" fill="white"/>
<path d="M150.963 49.9396C146.168 38.6295 141.373 27.3191 136.577 16.0095H127.549C123.112 26.478 118.673 36.9461 114.235 47.4142C113.878 48.2565 113.521 49.0989 113.163 49.9412L123.001 49.9379C125.993 42.3133 128.984 34.6886 131.976 27.064C134.95 34.6915 137.926 42.3198 140.899 49.9482C144.254 49.9449 147.609 49.942 150.963 49.9396Z" stroke="url(#paint0_linear_1_5799)" stroke-width="32" stroke-linejoin="round" mask="url(#path-1-outside-1_1_5799)"/>
<path d="M82.7292 16.0166C87.5244 27.3267 92.32 38.6371 97.1148 49.9467H106.143C110.581 39.4782 115.019 29.0101 119.457 18.542C119.815 17.6997 120.172 16.8573 120.529 16.015L110.691 16.0183C107.699 23.6429 104.708 31.2676 101.717 38.8931L92.7928 16.008C89.4383 16.0113 86.0833 16.0142 82.7292 16.0166Z" stroke="url(#paint1_linear_1_5799)" stroke-width="32" stroke-linejoin="round" mask="url(#path-1-outside-1_1_5799)"/>
<path d="M38.8628 16V36.9016L22.9074 16H16V49.9482H23.3938V28.3668L39.8846 49.9482H46.2567V16H38.8628Z" stroke="url(#paint2_linear_1_5799)" stroke-width="32" stroke-linejoin="round" mask="url(#path-1-outside-1_1_5799)"/>
<path d="M65.5224 41.5674C70.1428 41.5674 73.9018 45.3264 73.9018 49.9467H81.8519C81.8519 40.9431 74.5269 33.6172 65.5224 33.6172C56.518 33.6172 49.193 40.9431 49.193 49.9467H57.1431C57.1431 45.3264 60.9021 41.5674 65.5224 41.5674Z" stroke="url(#paint3_linear_1_5799)" stroke-width="32" stroke-linejoin="round" mask="url(#path-1-outside-1_1_5799)"/>
<path d="M65.5224 24.3795C60.9021 24.3795 57.1431 20.62 57.1431 16.0001H49.193C49.193 25.0037 56.518 32.3288 65.5224 32.3288C74.5269 32.3288 81.8519 25.0037 81.8519 16.0001L73.9018 16.0001C73.9018 20.62 70.1428 24.3795 65.5224 24.3795Z" stroke="url(#paint4_linear_1_5799)" stroke-width="32" stroke-linejoin="round" mask="url(#path-1-outside-1_1_5799)"/>
<path d="M49.4069 64.7775V58.5524L53.6128 62.9995V58.9483H54.4827V65.1323L50.2768 60.6963V64.7775H49.4069Z" stroke="url(#paint5_linear_1_5799)" stroke-width="32" stroke-linejoin="round" mask="url(#path-1-outside-1_1_5799)"/>
<path d="M57.2734 61.8487C57.2734 62.4927 57.4878 63.0231 57.9157 63.4379C58.3416 63.8535 58.8334 64.0609 59.391 64.0609C59.9959 64.0609 60.5065 63.8498 60.9226 63.4268C61.3386 62.9992 61.5464 62.4779 61.5464 61.8639C61.5464 61.2421 61.3406 60.7212 60.9295 60.3006C60.5213 59.8784 60.016 59.6665 59.4132 59.6665C58.8132 59.6665 58.3067 59.8784 57.8935 60.3006C57.4795 60.7191 57.2734 61.2347 57.2734 61.8487ZM56.3952 61.8372C56.3952 61.0175 56.6932 60.3126 57.2882 59.7237C57.8808 59.1349 58.5931 58.8402 59.4243 58.8402C60.2465 58.8402 60.9514 59.1365 61.5382 59.7311C62.1291 60.3249 62.4241 61.038 62.4241 61.8713C62.4241 62.7095 62.1278 63.4206 61.5353 64.0045C60.9394 64.5909 60.2214 64.8839 59.3798 64.8839C58.6354 64.8839 57.9668 64.6238 57.3742 64.1029C56.7216 63.526 56.3952 62.7709 56.3952 61.8372Z" stroke="url(#paint6_linear_1_5799)" stroke-width="32" stroke-linejoin="round" mask="url(#path-1-outside-1_1_5799)"/>
<path d="M64.6279 58.9483L66.2233 62.9879L67.8397 58.9483H68.7927L66.204 65.2154L63.6757 58.9483H64.6279Z" stroke="url(#paint7_linear_1_5799)" stroke-width="32" stroke-linejoin="round" mask="url(#path-1-outside-1_1_5799)"/>
<path d="M73.3612 62.5354L72.5052 60.5532L71.6094 62.5354H73.3612ZM73.7159 63.3625H71.2473L70.6041 64.7777H69.6667L72.5205 58.583L75.273 64.7777H74.3208L73.7159 63.3625Z" stroke="url(#paint8_linear_1_5799)" stroke-width="32" stroke-linejoin="round" mask="url(#path-1-outside-1_1_5799)"/>
<path d="M80.8623 58.9489V62.4598C80.8623 62.9606 80.9433 63.3268 81.1047 63.5581C81.3466 63.8934 81.6861 64.0605 82.1248 64.0605C82.5655 64.0605 82.9062 63.8934 83.1482 63.5581C83.3099 63.3346 83.3909 62.968 83.3909 62.4598V58.9489H84.2613V62.7017C84.2613 63.3157 84.0716 63.8214 83.6934 64.2189C83.2675 64.6621 82.7449 64.8839 82.1248 64.8839C81.5046 64.8839 80.9824 64.6621 80.5594 64.2189C80.1813 63.8214 79.9924 63.3157 79.9924 62.7017V58.9489H80.8623Z" stroke="url(#paint9_linear_1_5799)" stroke-width="32" stroke-linejoin="round" mask="url(#path-1-outside-1_1_5799)"/>
<path d="M86.4619 64.7775V58.5524L90.6678 62.9995V58.9483H91.5377V65.1323L87.3326 60.6963V64.7775H86.4619Z" stroke="url(#paint10_linear_1_5799)" stroke-width="32" stroke-linejoin="round" mask="url(#path-1-outside-1_1_5799)"/>
<path d="M94.6083 64.7777H93.7384V58.9484H94.6083V64.7777Z" stroke="url(#paint11_linear_1_5799)" stroke-width="32" stroke-linejoin="round" mask="url(#path-1-outside-1_1_5799)"/>
<path d="M97.1039 58.9483L98.6988 62.9879L100.316 58.9483H101.269L98.6799 65.2154L96.1516 58.9483H97.1039Z" stroke="url(#paint12_linear_1_5799)" stroke-width="32" stroke-linejoin="round" mask="url(#path-1-outside-1_1_5799)"/>
<path d="M105.987 59.7755H103.675V61.1762H105.92V62.0029H103.675V63.9506H105.987V64.7777H102.804V58.9484H105.987V59.7755Z" stroke="url(#paint13_linear_1_5799)" stroke-width="32" stroke-linejoin="round" mask="url(#path-1-outside-1_1_5799)"/>
<path d="M108.819 61.6256H109.095C109.919 61.6256 110.331 61.3071 110.331 60.6709C110.331 60.0738 109.931 59.7755 109.128 59.7755H108.819V61.6256ZM109.902 62.2935L111.687 64.7777H110.623L108.975 62.3926H108.819V64.7777H107.949V58.9492H108.968C109.73 58.9492 110.28 59.0937 110.619 59.3833C110.992 59.7055 111.179 60.1306 111.179 60.659C111.179 61.0725 111.062 61.4268 110.828 61.7239C110.594 62.021 110.285 62.2108 109.902 62.2935Z" stroke="url(#paint14_linear_1_5799)" stroke-width="32" stroke-linejoin="round" mask="url(#path-1-outside-1_1_5799)"/>
<path d="M116.633 59.8179L115.927 60.2406C115.795 60.0097 115.67 59.8579 115.55 59.7879C115.425 59.7068 115.264 59.6669 115.068 59.6669C114.826 59.6669 114.626 59.7365 114.467 59.8743C114.307 60.0101 114.228 60.1813 114.228 60.3879C114.228 60.6726 114.437 60.9018 114.855 61.0747L115.43 61.3129C115.898 61.5039 116.241 61.7372 116.457 62.0129C116.674 62.2886 116.783 62.6268 116.783 63.0268C116.783 63.5626 116.606 64.0062 116.252 64.3559C115.896 64.7078 115.454 64.8839 114.926 64.8839C114.426 64.8839 114.012 64.7341 113.686 64.4354C113.364 64.1358 113.164 63.7136 113.085 63.1704L113.966 62.9737C114.006 63.3165 114.075 63.5527 114.175 63.6836C114.354 63.9354 114.616 64.0613 114.96 64.0613C115.231 64.0613 115.456 63.9691 115.636 63.7856C115.815 63.6021 115.905 63.3692 115.905 63.0873C115.905 62.9737 115.889 62.87 115.858 62.7754C115.827 62.6816 115.778 62.5943 115.712 62.5153C115.646 62.4359 115.561 62.3618 115.456 62.2923C115.352 62.2232 115.227 62.1573 115.083 62.0948L114.526 61.8602C113.737 61.5232 113.343 61.0298 113.343 60.3805C113.343 59.9426 113.508 59.576 113.839 59.2814C114.17 58.9847 114.583 58.8361 115.075 58.8361C115.74 58.8361 116.26 59.1633 116.633 59.8179Z" stroke="url(#paint15_linear_1_5799)" stroke-width="32" stroke-linejoin="round" mask="url(#path-1-outside-1_1_5799)"/>
<path d="M119.52 64.7777H118.65V58.9484H119.52V64.7777Z" stroke="url(#paint16_linear_1_5799)" stroke-width="32" stroke-linejoin="round" mask="url(#path-1-outside-1_1_5799)"/>
<path d="M123.316 59.7755V64.7777H122.446V59.7755H121.119V58.9484H124.638V59.7755H123.316Z" stroke="url(#paint17_linear_1_5799)" stroke-width="32" stroke-linejoin="round" mask="url(#path-1-outside-1_1_5799)"/>
<path d="M127.399 62.2597L125.516 58.9484H126.517L127.836 61.2779L129.158 58.9484H130.159L128.269 62.2597V64.7777H127.399V62.2597Z" stroke="url(#paint18_linear_1_5799)" stroke-width="32" stroke-linejoin="round" mask="url(#path-1-outside-1_1_5799)"/>
<path d="M50.2768 68.8221V73.8243H51.9726V74.6514H49.4069V68.8221H50.2768Z" stroke="url(#paint19_linear_1_5799)" stroke-width="32" stroke-linejoin="round" mask="url(#path-1-outside-1_1_5799)"/>
<path d="M54.4865 74.6499H53.6166V68.8206H54.4865V74.6499Z" stroke="url(#paint20_linear_1_5799)" stroke-width="32" stroke-linejoin="round" mask="url(#path-1-outside-1_1_5799)"/>
<path d="M59.9515 69.6902L59.2453 70.1128C59.1132 69.8819 58.9881 69.7301 58.8684 69.6601C58.7437 69.5791 58.5828 69.5391 58.3865 69.5391C58.145 69.5391 57.9442 69.6087 57.7853 69.7465C57.6257 69.8823 57.5463 70.0535 57.5463 70.2601C57.5463 70.5448 57.7553 70.7741 58.1734 70.9469L58.7491 71.1851C59.2169 71.3761 59.5593 71.6094 59.7758 71.8851C59.9926 72.1608 60.1012 72.4986 60.1012 72.899C60.1012 73.4348 59.9239 73.8784 59.57 74.2282C59.2145 74.58 58.7725 74.7561 58.2446 74.7561C57.7442 74.7561 57.3302 74.6063 57.0047 74.3076C56.6829 74.008 56.4829 73.5858 56.4031 73.0418L57.285 72.8459C57.3249 73.1883 57.394 73.4249 57.4936 73.5558C57.673 73.8076 57.9343 73.9335 58.2783 73.9335C58.5499 73.9335 58.775 73.8414 58.9544 73.6578C59.1338 73.4743 59.2231 73.2414 59.2231 72.9595C59.2231 72.8459 59.2075 72.7422 59.1766 72.6476C59.1453 72.5538 59.0968 72.4665 59.0305 72.3875C58.9647 72.3081 58.8795 72.234 58.775 72.1645C58.6705 72.0954 58.5454 72.0295 58.4018 71.967L57.845 71.7324C57.0557 71.3954 56.6611 70.902 56.6611 70.2527C56.6611 69.8148 56.8261 69.4482 57.1578 69.1536C57.4886 68.8569 57.9014 68.7083 58.3939 68.7083C59.0585 68.7083 59.5782 69.0355 59.9515 69.6902Z" stroke="url(#paint21_linear_1_5799)" stroke-width="32" stroke-linejoin="round" mask="url(#path-1-outside-1_1_5799)"/>
<path d="M62.8396 73.8243H63.377C63.7712 73.8243 64.0597 73.7465 64.2436 73.5905C64.4383 73.4214 64.535 73.2078 64.535 72.9486C64.535 72.6968 64.4416 72.4852 64.2547 72.3145C64.0733 72.1458 63.7482 72.0614 63.2803 72.0614H62.8396V73.8243ZM62.8396 71.3252H63.1124C63.4359 71.3252 63.6729 71.2528 63.8239 71.108C63.9741 70.9631 64.0498 70.75 64.0498 70.4681C64.0498 70.1936 63.9725 69.9854 63.8177 69.8438C63.6634 69.701 63.4396 69.6299 63.1462 69.6299H62.8396V71.3252ZM61.9697 74.6514V68.8221H62.8359C63.2215 68.8221 63.5293 68.8521 63.7581 68.9122C63.9902 68.9731 64.1856 69.0752 64.3445 69.2188C64.5066 69.3673 64.635 69.5521 64.7296 69.7739C64.8263 69.9977 64.8749 70.2236 64.8749 70.4529C64.8749 70.8709 64.7164 71.2244 64.4004 71.5137C64.707 71.6195 64.9485 71.8042 65.1255 72.0688C65.3049 72.3305 65.3946 72.635 65.3946 72.9823C65.3946 73.4379 65.2349 73.823 64.916 74.1374C64.7239 74.3312 64.5091 74.4658 64.2704 74.5415C64.0079 74.6143 63.6807 74.6514 63.2873 74.6514H61.9697Z" stroke="url(#paint22_linear_1_5799)" stroke-width="32" stroke-linejoin="round" mask="url(#path-1-outside-1_1_5799)"/>
<path d="M67.901 71.7213C67.901 72.3653 68.1154 72.8953 68.5433 73.3105C68.9692 73.7261 69.461 73.9335 70.0186 73.9335C70.6239 73.9335 71.1341 73.7224 71.5502 73.2994C71.9662 72.8719 72.174 72.3505 72.174 71.7365C72.174 71.1148 71.9687 70.5938 71.558 70.1733C71.1498 69.7511 70.6436 69.5391 70.0416 69.5391C69.4408 69.5391 68.9343 69.7511 68.5211 70.1733C68.108 70.5918 67.901 71.1074 67.901 71.7213ZM67.0229 71.7098C67.0229 70.8901 67.3208 70.1852 67.9158 69.5963C68.5088 69.0067 69.2211 68.7129 70.0523 68.7129C70.8741 68.7129 71.579 69.0091 72.1666 69.6038C72.7567 70.1975 73.0517 70.9107 73.0517 71.744C73.0517 72.5822 72.7554 73.2932 72.1629 73.8772C71.5679 74.4635 70.8494 74.7561 70.0075 74.7561C69.2635 74.7561 68.5944 74.4965 68.0022 73.9755C67.3496 73.3986 67.0229 72.6435 67.0229 71.7098Z" stroke="url(#paint23_linear_1_5799)" stroke-width="32" stroke-linejoin="round" mask="url(#path-1-outside-1_1_5799)"/>
<path d="M74.9648 74.6507V68.4256L79.1707 72.8727V68.8215H80.0406V75.0055L75.8347 70.5695V74.6507H74.9648Z" stroke="url(#paint24_linear_1_5799)" stroke-width="32" stroke-linejoin="round" mask="url(#path-1-outside-1_1_5799)"/>
<defs>
<linearGradient id="paint0_linear_1_5799" x1="38.2478" y1="31.2459" x2="121.524" y2="70.2035" gradientUnits="userSpaceOnUse">
<stop stop-color="#1E2749"/>
<stop offset="0.5" stop-color="#101828"/>
<stop offset="1" stop-color="#27202F"/>
</linearGradient>
<linearGradient id="paint1_linear_1_5799" x1="38.2478" y1="31.2459" x2="121.524" y2="70.2035" gradientUnits="userSpaceOnUse">
<stop stop-color="#1E2749"/>
<stop offset="0.5" stop-color="#101828"/>
<stop offset="1" stop-color="#27202F"/>
</linearGradient>
<linearGradient id="paint2_linear_1_5799" x1="38.2478" y1="31.2459" x2="121.524" y2="70.2035" gradientUnits="userSpaceOnUse">
<stop stop-color="#1E2749"/>
<stop offset="0.5" stop-color="#101828"/>
<stop offset="1" stop-color="#27202F"/>
</linearGradient>
<linearGradient id="paint3_linear_1_5799" x1="38.2478" y1="31.2459" x2="121.524" y2="70.2035" gradientUnits="userSpaceOnUse">
<stop stop-color="#1E2749"/>
<stop offset="0.5" stop-color="#101828"/>
<stop offset="1" stop-color="#27202F"/>
</linearGradient>
<linearGradient id="paint4_linear_1_5799" x1="38.2478" y1="31.2459" x2="121.524" y2="70.2035" gradientUnits="userSpaceOnUse">
<stop stop-color="#1E2749"/>
<stop offset="0.5" stop-color="#101828"/>
<stop offset="1" stop-color="#27202F"/>
</linearGradient>
<linearGradient id="paint5_linear_1_5799" x1="38.2478" y1="31.2459" x2="121.524" y2="70.2035" gradientUnits="userSpaceOnUse">
<stop stop-color="#1E2749"/>
<stop offset="0.5" stop-color="#101828"/>
<stop offset="1" stop-color="#27202F"/>
</linearGradient>
<linearGradient id="paint6_linear_1_5799" x1="38.2478" y1="31.2459" x2="121.524" y2="70.2035" gradientUnits="userSpaceOnUse">
<stop stop-color="#1E2749"/>
<stop offset="0.5" stop-color="#101828"/>
<stop offset="1" stop-color="#27202F"/>
</linearGradient>
<linearGradient id="paint7_linear_1_5799" x1="38.2478" y1="31.2459" x2="121.524" y2="70.2035" gradientUnits="userSpaceOnUse">
<stop stop-color="#1E2749"/>
<stop offset="0.5" stop-color="#101828"/>
<stop offset="1" stop-color="#27202F"/>
</linearGradient>
<linearGradient id="paint8_linear_1_5799" x1="38.2478" y1="31.2459" x2="121.524" y2="70.2035" gradientUnits="userSpaceOnUse">
<stop stop-color="#1E2749"/>
<stop offset="0.5" stop-color="#101828"/>
<stop offset="1" stop-color="#27202F"/>
</linearGradient>
<linearGradient id="paint9_linear_1_5799" x1="38.2478" y1="31.2459" x2="121.524" y2="70.2035" gradientUnits="userSpaceOnUse">
<stop stop-color="#1E2749"/>
<stop offset="0.5" stop-color="#101828"/>
<stop offset="1" stop-color="#27202F"/>
</linearGradient>
<linearGradient id="paint10_linear_1_5799" x1="38.2478" y1="31.2459" x2="121.524" y2="70.2035" gradientUnits="userSpaceOnUse">
<stop stop-color="#1E2749"/>
<stop offset="0.5" stop-color="#101828"/>
<stop offset="1" stop-color="#27202F"/>
</linearGradient>
<linearGradient id="paint11_linear_1_5799" x1="38.2478" y1="31.2459" x2="121.524" y2="70.2035" gradientUnits="userSpaceOnUse">
<stop stop-color="#1E2749"/>
<stop offset="0.5" stop-color="#101828"/>
<stop offset="1" stop-color="#27202F"/>
</linearGradient>
<linearGradient id="paint12_linear_1_5799" x1="38.2478" y1="31.2459" x2="121.524" y2="70.2035" gradientUnits="userSpaceOnUse">
<stop stop-color="#1E2749"/>
<stop offset="0.5" stop-color="#101828"/>
<stop offset="1" stop-color="#27202F"/>
</linearGradient>
<linearGradient id="paint13_linear_1_5799" x1="38.2478" y1="31.2459" x2="121.524" y2="70.2035" gradientUnits="userSpaceOnUse">
<stop stop-color="#1E2749"/>
<stop offset="0.5" stop-color="#101828"/>
<stop offset="1" stop-color="#27202F"/>
</linearGradient>
<linearGradient id="paint14_linear_1_5799" x1="38.2478" y1="31.2459" x2="121.524" y2="70.2035" gradientUnits="userSpaceOnUse">
<stop stop-color="#1E2749"/>
<stop offset="0.5" stop-color="#101828"/>
<stop offset="1" stop-color="#27202F"/>
</linearGradient>
<linearGradient id="paint15_linear_1_5799" x1="38.2478" y1="31.2459" x2="121.524" y2="70.2035" gradientUnits="userSpaceOnUse">
<stop stop-color="#1E2749"/>
<stop offset="0.5" stop-color="#101828"/>
<stop offset="1" stop-color="#27202F"/>
</linearGradient>
<linearGradient id="paint16_linear_1_5799" x1="38.2478" y1="31.2459" x2="121.524" y2="70.2035" gradientUnits="userSpaceOnUse">
<stop stop-color="#1E2749"/>
<stop offset="0.5" stop-color="#101828"/>
<stop offset="1" stop-color="#27202F"/>
</linearGradient>
<linearGradient id="paint17_linear_1_5799" x1="38.2478" y1="31.2459" x2="121.524" y2="70.2035" gradientUnits="userSpaceOnUse">
<stop stop-color="#1E2749"/>
<stop offset="0.5" stop-color="#101828"/>
<stop offset="1" stop-color="#27202F"/>
</linearGradient>
<linearGradient id="paint18_linear_1_5799" x1="38.2478" y1="31.2459" x2="121.524" y2="70.2035" gradientUnits="userSpaceOnUse">
<stop stop-color="#1E2749"/>
<stop offset="0.5" stop-color="#101828"/>
<stop offset="1" stop-color="#27202F"/>
</linearGradient>
<linearGradient id="paint19_linear_1_5799" x1="38.2478" y1="31.2459" x2="121.524" y2="70.2035" gradientUnits="userSpaceOnUse">
<stop stop-color="#1E2749"/>
<stop offset="0.5" stop-color="#101828"/>
<stop offset="1" stop-color="#27202F"/>
</linearGradient>
<linearGradient id="paint20_linear_1_5799" x1="38.2478" y1="31.2459" x2="121.524" y2="70.2035" gradientUnits="userSpaceOnUse">
<stop stop-color="#1E2749"/>
<stop offset="0.5" stop-color="#101828"/>
<stop offset="1" stop-color="#27202F"/>
</linearGradient>
<linearGradient id="paint21_linear_1_5799" x1="38.2478" y1="31.2459" x2="121.524" y2="70.2035" gradientUnits="userSpaceOnUse">
<stop stop-color="#1E2749"/>
<stop offset="0.5" stop-color="#101828"/>
<stop offset="1" stop-color="#27202F"/>
</linearGradient>
<linearGradient id="paint22_linear_1_5799" x1="38.2478" y1="31.2459" x2="121.524" y2="70.2035" gradientUnits="userSpaceOnUse">
<stop stop-color="#1E2749"/>
<stop offset="0.5" stop-color="#101828"/>
<stop offset="1" stop-color="#27202F"/>
</linearGradient>
<linearGradient id="paint23_linear_1_5799" x1="38.2478" y1="31.2459" x2="121.524" y2="70.2035" gradientUnits="userSpaceOnUse">
<stop stop-color="#1E2749"/>
<stop offset="0.5" stop-color="#101828"/>
<stop offset="1" stop-color="#27202F"/>
</linearGradient>
<linearGradient id="paint24_linear_1_5799" x1="38.2478" y1="31.2459" x2="121.524" y2="70.2035" gradientUnits="userSpaceOnUse">
<stop stop-color="#1E2749"/>
<stop offset="0.5" stop-color="#101828"/>
<stop offset="1" stop-color="#27202F"/>
</linearGradient>
</defs>
</svg>
